<svg id="Layer_2" data-name="Layer 2" xmlns="http://www.w3.org/2000/svg" viewBox="0 0 163.32 163.48">
  <defs>
    <style>
      .cls-1{fill:#fafafa;stroke-width:0}
    </style>
  </defs>
  <g id="Layer_1-2" data-name="Layer 1">
    <path class="cls-1" d="M40.84 81.81h-3.66L19.37 98.78l15.67-16.97h-6.92l-11.7 11.15L26.9 81.81h-7.8l-5.61 5.27 4.96-5.27h-6.09L1.55 93.05c-.3-1.07-.56-2.16-.78-3.26l8.15-7.99H3.94L.19 85.68A41.65 41.65 0 0 1 0 81.8v40.84h40.84c-1.24-.01-2.48-.06-3.69-.18l3.69-3.56v-4.61l-7.39 7.67c-1.29-.24-2.56-.53-3.81-.89l11.2-10.69v-7.19l-5.73 5.47 5.73-6.04v-7.78L28.6 106.5l12.24-12.87v-7.01l-17.47 16.64 17.47-18.39v-3.08ZM2.58 96.13l10.58-10.24c.18 1.17.43 2.32.74 3.44L4.07 99.59c-.54-1.13-1.04-2.28-1.48-3.46Zm2.84 6.01 9.71-9.3c.36.86.78 1.69 1.23 2.51l-9.2 9.55c-.62-.89-1.2-1.81-1.74-2.76Zm3.48 5.11 9.34-8.95c.55.76 1.14 1.48 1.77 2.18l-8.94 9.29c-.76-.81-1.48-1.65-2.18-2.52Zm27.92 2.23-10.29 10.58c-1.07-.4-2.13-.85-3.15-1.34l10.27-9.88c1.04.27 2.09.49 3.17.64Zm-6.59-1.79-9.33 9.76c-1.07-.6-2.11-1.24-3.11-1.94l9.54-9.21c.93.52 1.91.99 2.9 1.39Zm-5.64-3.11-8.97 9.35c-.92-.74-1.81-1.5-2.68-2.3l9.32-8.91c.74.65 1.51 1.28 2.32 1.86Z"/>
    <path class="cls-1" d="M0 .13c22.54 0 40.84 18.3 40.84 40.84H0V.13Z" transform="rotate(-90 20.42 20.55)"/>
    <path class="cls-1" d="M122.48 122.64c22.54 0 40.84 18.3 40.84 40.84h-40.84v-40.84Z" transform="rotate(90 142.9 143.06)"/>
    <path class="cls-1" d="M81.65 81.81h40.84v2.63H81.65zM81.65 85.43h40.84v3.26H81.65zM81.65 89.68h40.84v4.76H81.65zM81.65 95.41h40.84v8.64H81.65zM81.65 105.03h40.84v17.62H81.65zM81.68.13v40.84h40.84V.13H81.68Zm34.84 34.88h-.01c-7.96-7.97-20.89-7.97-28.85-.01 7.96-7.96 7.96-20.89 0-28.85 0-.01-.01-.01-.01-.01 0-.01.01-.01.01-.02 0 .01.01.01.01.02 7.96 7.96 20.89 7.96 28.85 0-7.96 7.96-7.96 20.88 0 28.85l.01.01s0 .01-.01.01Z"/>
    <path class="cls-1" d="M81.68.13v40.84h40.84V.13H81.68Zm34.84 34.88h-.01c-7.96-7.97-20.89-7.97-28.85-.01 7.96-7.96 7.96-20.89 0-28.85 0-.01-.01-.01-.01-.01 0-.01.01-.01.01-.02 0 .01.01.01.01.02 7.96 7.96 20.89 7.96 28.85 0-7.96 7.96-7.96 20.88 0 28.85l.01.01s0 .01-.01.01Z"/>
    <path class="cls-1" d="M102.09.27V.15h-.13V.02l.13-.02h.14l-.01.15h-.13v.12zM149.71 40.97h13.61l-13.61 13.61V40.97zM136.1 40.97h13.61L136.1 54.58V40.97zM122.48 40.97h13.62l-13.62 13.61V40.97zM149.71 54.58h13.61l-13.61 13.61V54.58zM136.1 54.58h13.61L136.1 68.19V54.58zM122.48 54.58h13.62l-13.62 13.61V54.58zM149.71 68.19h13.61l-13.61 13.62V68.19zM136.1 68.19h13.61L136.1 81.81V68.19zM122.48 68.19h13.62l-13.62 13.62V68.19zM62.33 40.97H40.81v14.22c9.05-1.43 16.82-6.76 21.52-14.22ZM73.77 40.97c-5.31 12.05-16.21 21.09-29.41 23.84 3.64.17 7.69-.41 11.64-2.11a41.611 41.611 0 0 1 15.31 19.11h10.33V40.97h-7.88ZM40.81 66.74v15.07h19.35c-4.08-7.35-11.04-12.88-19.35-15.07ZM40.84 122.64v40.84h40.84v-40.84H40.84Zm20.42 31.57c-6.16 0-11.15-4.99-11.15-11.15s4.99-11.15 11.15-11.15 11.15 4.99 11.15 11.15-4.99 11.15-11.15 11.15Z"/>
  </g>
</svg>