<svg xmlns="http://www.w3.org/2000/svg" viewBox="0 0 140.47 140.53">
    <path class="cls-1" d="M62 37.4c-.07.42.32-.12 0 .3-.1-.09-.16-.2 0-.3zM139.24 31.73c-.93-1.2-.56-3.07-1.43-4.36-.07-.16.42-.07.22-.42A6.46 6.46 0 01137 24.6c-.29-.91-.44-1.91-.63-2.79h.15c-.06-.34-.58-.54-.68-.88.07 0 .15.06.21-.07-.24 0-.39-.51-.62-.56 0-.17.19-.24.2-.45l-.34-.05c-.81-.19-.61-1.21-1.3-1.69h.17a13.12 13.12 0 01-1.35-1.49 17.79 17.79 0 00-1.35-1.6c.11 0 .27-.08.31-.21-.27.12-.57-.17-.84-.42.12-.31-.61-.29-.76-.72h.07c-.43 0-.17-.47-.61-.42v-.3c-.4.18-.16-.47-.49-.51l-.06.06c-.24-.1-.18-.34-.39-.45-.44-.31-.51-.68-.72-.44 0-.31.46.26.5-.2-1.49-1-2.82-2.17-4.26-3.17-.09-.23-.18-.32-.15-.45-.18 0-.59-.31-.81-.26 0 0 0-.2-.08-.26-.21-.28-.47.1-.7-.2.16 0 .26-.07.28-.19a2.49 2.49 0 01-1.07-.27c.07 0 .16 0 .2-.1-.48.06-.58-.41-1-.4l.2-.11c-.39-.44-.33.28-.69 0 .13 0 .12-.09.18-.14-.55.1-1.13-.32-1.59-.38a.1.1 0 000-.06 5.69 5.69 0 00-1.42-.51c-.14-.15.23-.4-.27-.52-.12.36-.86-.16-.73.34a3.12 3.12 0 00-1.29-.51c.22-.08-.07-.5.28-.42l-.19-.3c.09-.13.26.14.23-.07a4 4 0 01-.87-.17c-.39.13-.8.46-1.33.36.28-.07 0-.43.15-.45-.31.16-.61.33-.91.51-.17 0 0-.3-.24-.26 0 .1-.13.13-.23.19s-.74-.07-.74-.45c-.05-.16.3 0 .13-.18-.32-.06-.36.06-.69 0-.2-.09-.66 0-.46.28.15 0 0-.23.18-.08a1.1 1.1 0 01-.89.11c.12 0 .12-.13.18-.23a4.39 4.39 0 01-1.46.28c0 .18.22-.28.28-.18-.59-.34-1.33.18-1.81-.24.09 0 0 .25 0 .2-.3-.05-.26-.3-.47-.23 0-.15-.26 0-.46 0s0-.07.13-.07a4.3 4.3 0 01-2.09 0c0 .1-.42.34-.57.32l.07-.23c-.13-.14-.5 0-.52-.2-.34.26 1.25-.18.81 0-.11-.2-.63.33-.52 0-.31 0-.61.24-.89 0 .08 0 .25-.31 0-.3-.44 0-.13.11-.48.17l-.22.09c0 .22-.39 0-.23.22 0-.19-.63.11-.58-.26l.06-.29c-.19 0-.31.31-.46.43s-.07-.08-.06-.13c0 .45-.45 0-.67.31-.39-.15-1 0-1.19-.27a1.3 1.3 0 01-.91.23c.06 0 .16-.06.17-.15-.22-.13-.27 0-.46.07 0-.06-.45-.24-.7-.39-.29.15-.18.38-.2.53-.3-.42-.83.33-1.19 0 .1-.07.42-.25.16-.34-.3-.42-.53.36-1 .18l.13.36c-.21-.21-.62.26-.61-.12-.14.15-.53-.07-.44.28-.62-.33-1.57.28-2.09-.33-.1.07-.36 0-.28.23s.22-.18.3 0c-.09 0-.1.12-.1.17-.23-.05-.41 0-.25-.37-.52-.13-.4.67-1 .65 0-.15 0-.19-.23-.13l-.29.31c-.4 0-.29-.28-.36-.52-.2.09-.46.14-.52.34l-.33-.24c.24.17-.13.19-.22.28l.09-.09c-.07-.09-.3 0-.41.1.07.14.33.14.48.15-.08.13-.25.15-.36.31 0-.25-.38-.07-.55 0s-.15.28-.21.29-.31.07-.22-.14.19.07.26-.07c-.15 0-.2-.27-.41 0s.2.44-.21.41c.07-.09.06-.19.11-.29h-.38v.22c-.06 0 0-.07-.07-.09 0 .26-.49.25-.47.53-.15.09-.4 0-.57 0a.57.57 0 00-.56.36.69.69 0 00-.42.35c-.32 0-.45-.71-.62-.32-.26.14-.22.57-.05.64-.53.12-.86.72-1.43.71v.27a6.24 6.24 0 00-.94.68 1.74 1.74 0 01-1 .49c.11-.22-.13-.19-.22-.28 0 .27-.3 0-.14.28.14.15.19.24.41.16a2.63 2.63 0 01-1.13.86c.16 0 .13.09.1.21-.19-.26-.48-.06-.58.2l.11.17h-.27c0 .11.21.36-.1.41a.47.47 0 00-.2-.1c-.09.29-.15.76-.46.86h-.37c-.06.12-.07.39.14.28-.46.25-.69.48-1 .44a5.93 5.93 0 01-1.45 2.81l-.1-.11c-.27.15.13.27-.06.36-.07-.15-.37 0-.39-.28-.34.23-.07.56-.16.8.14.14 0-.23.19-.06 0 .08-.43.36-.22.57-.15 0-.29-.17-.36-.28v.28c-.45.05-.14-.89-.66-.86l-.08.2c-.38 0 0-.67-.36-.27 0 .28.23.69.45.58-.2.47.46.57.16 1-.22 0 .19-.38-.07-.42s-.15.5-.34.64c.22-.15.36.18.32.35-.26.15-.14-.3-.37 0 .11.14 0 .51.29.31.26.31-.3.28-.15.61-.3 0-.33-.65-.66-.36.25.07 0 .63.48.63a.26.26 0 01-.4-.16c-.26.12.12.73-.36.54l.19.21c-.11 0-.22.08-.4.11s0 .76-.36.55c0 .08-.24.49.09.46.29-.18 0-.39.39-.36-.36 0-.17.39-.16.59h-.15c0 .12-.13.31 0 .45a.14.14 0 00-.22-.07l.15.2c-.08.42-.41-.1-.53.29v-.36c0 .08-.25.1-.28.31.16.16.32.41.44.54s-.26 0-.17.28l-.09-.38c0-.07-.41 0-.54.29s.11.61.36.39c-.07.14-.28.28-.37.1-.08.34.23.06.22.38-.18.05-.53.31-.81.43l-.19-.44-.09.19c-.14-.37-.26 0-.47-.24-.1.1-.08.31-.07.47.62-.17.4.7.85.78-.13.56-1.13-.14-.75.7.15 0 .34.35.37 0-.19.31.3.4 0 .71 0-.36-.55.12-.6-.4.12.09.2-.18.19-.26-.21.06-.39-.21-.54.12s-.17.51.06.56.11-.32.29-.09c-.1.44-.48.35-.15.7.08-.27.35-.22.51-.15V26l-.13-.13c-.32.43.22.27 0 .71l-.4.08c-.22-.22.41-.62 0-.72-.15.29 0 .48-.22.72v-.25c-.06.1-.67 0-.52.54 0 .28.13.13.28.2-.15.51 0 .72-.15 1-.29-.19-.26.54-.44.07a.93.93 0 00.3-1.1c-.45 0 .21-.36-.12-.62-.17.38-.53.21-.8.17-.06.11 0 .25 0 .34.21.14.26 0 .5.08a1.49 1.49 0 00-.18 1.22.21.21 0 01-.33-.22 6.88 6.88 0 01-.67 1.57c.5-.18-.13.59.27.49.19-.23.54-.36.65-.14-.09.15-.16-.07-.27 0 .12.29-.45.2-.22.53.07-.52-.41-.27-.67-.47 0 .41-.2-.1-.34.25a5.13 5.13 0 01-.09 1.29c-.46.38-.47 1.23-.62 1.66-.24.18-.51-.1-.66.13s.43-.09.12.29v-.07c0 .16-.51.71-.08 1l-.31-.27c-.06.07 0 .18 0 .26s-.26 0-.29-.15c-.35.18-.17.58-.26.87l.11-.33c0 .56-.35.81-.44 1.32l-.21-.09v.33c-.17-.14-.4.07-.28.28l-.25-.92c.2-.17.17.31.43.26a.45.45 0 00.14-.66c-.08.16 0 .19 0 .35-.31 0-.21-.3-.35-.5 0 .09-.16.19-.07.24a1 1 0 01.06-.71c0 .24.22 0 .27.07-.24-.12-.22-.43 0-.76.39-.15.06-.75.3-1.13a1.55 1.55 0 01.33.85c.23-.22.1-.3.33-.51a1.18 1.18 0 01-.4-.78h.2c0-.35-.27-.45-.06-.83.35-.63.6-1.33.83-1.83l.2.05c-.3-.44.22-1 .19-1.46.44-.58.4-1.48.86-1.68a16 16 0 011.21-3.41l.19.32c-.11-.3.21-.07.26-.29-.32.14-.15-.41-.25-.63a2.59 2.59 0 00.58-1.75l.19.07c-.13-.63.46-1 .81-1.57.11 0 .33-.05.4-.23a2.42 2.42 0 010-1.16 5.17 5.17 0 01.85-1.09 6 6 0 01.85-2c.36-.62.75-1.24 1.07-1.93l.26.05c.38-1.49 1.85-2.62 2.47-3.72L75 10c.35-.21.51-.73.23-.85.36-.2.5-.88.93-.81.34-.22.22-.47.43-.75A7.39 7.39 0 0078 6.32l-.17.1c0 .13.1.26.27.16.15-.26.88-.57.35-.77.79-.32 1.42-1.34 2.31-1.47-.13-.07 0-.2 0-.33.61-.41 1.42-.52 1.84-1 .14 0-.06.28.21.16s.01-.17.19-.3c1-.74 2.3-.7 3.28-1.07A19.53 19.53 0 0191.69.46v.1c.54-.45 1.41.22 1.82-.38.15.07.53 0 .45.19.44-.3 1.31.15 2-.22-.07 0-.1 0-.17.06.68.17 1.26-.14 2 0-.07.05-.2.09-.22.18.28.18.64-.44.8 0 .16 0 .11-.24 0-.22a42.4 42.4 0 004.81-.17c1.16.33 0 .79 1 .49.07.09.06-.18.07-.08.37-.11.52.55.78.32-.08-.3.18-.15.2-.32.7.24.81.51 1.39.34V.9c.7-.37 1.43-.05 2-.47a40.15 40.15 0 0110.63 2.37 44.13 44.13 0 014.84 2.48 23.44 23.44 0 014.34 3.36 2.25 2.25 0 001.22 1.44c-.07 0-.12 0-.12.07.27-.21.49.45.77.29.92 1 1.81 1.89 2.68 3-.16-.15-.43-.07-.26.13l.33.08v.09c.15.11.39.17.36 0 2.41 2.64 3.59 6 4.93 9.13a7.83 7.83 0 00.47 1.32l.56 1.34c.38 2.64.52 5 1.14 7.52a2 2 0 01-1.27-1.32zM62.11 36.92c.19 0 .37-.27.5 0-.16 0-.37.08-.5 0z"/>
    <path class="cls-1" d="M66.38 30.27s.11-.08.14-.09.07.22 0 .26-.09-.11-.14-.17zM67.2 28.48c.12.08.07.51 0 .75zM68.45 27c.18-.1.22 0 .14.16-.08.01-.09-.06-.14-.16zM68.2 26.78a.34.34 0 01.27-.21c-.12-.05-.07.35-.27.21zM70.19 23.36c0-.09 0-.33.19-.34-.14.05-.02.5-.19.34zM70.78 21.62s.07-.05.07-.13.15.08.12.17zM95 2.94l-.19.08.02-.14.17.06zM109.54 3.38c.21-.06.12.16.15.18-.18-.01.09-.16-.15-.18zM117.31 4.69l-.06-.02.13-.27-.07.29zM.08 42.1c-.08.32.31-.05 0 .24-.08-.09-.08-.19 0-.24zM76.42 5.29c-.59 1.17-2.18 1.1-3 2-.11.09-.15-.39-.38-.17-.75 1-2.51 1.47-3.94 1.59v-.14c-.27 0-.4.51-.68.57 0-.07 0-.13-.06-.21 0 .25-.41.31-.45.51-.14 0-.2-.21-.37-.25v.31c-.15.76-1 .37-1.41.91v-.18a12.66 12.66 0 01-2.83 1.65.44.44 0 00-.12-.36c.06.28-.22.48-.47.63-.23-.23-.37.42-.74.39v-.07c-.13.38-.41 0-.47.38l-.23-.16c0 .43-.41-.07-.53.2v.08c-.14.16-.31 0-.45.13-.36.25-.67.11-.55.41-.23-.19.35-.25 0-.52a16.3 16.3 0 01-3.9 1.64c-.19-.07-.3-.08-.37-.18-.11.1-.48.22-.55.41 0 0-.14-.13-.21-.12-.28 0-.16.42-.47.37a.27.27 0 000-.33c-.15.31-.47.37-.71.53 0-.07.08-.12 0-.21-.21.36-.55.11-.76.36v-.21c-.48-.08 0 .41-.4.4.07-.08 0-.14 0-.22-.24.42-.82.47-1.12.68a.15.15 0 000-.08 5.05 5.05 0 00-1.13.42c-.17 0-.07-.45-.44-.27.11.36-.62.33-.28.67-.35 0-.91 0-1.1.22.11-.17-.28-.39 0-.5l-.27-.16c0-.15.23 0 .11-.17-.13.05-.5.3-.64.28-.19.29-.32.76-.73.91.16-.19-.21-.36-.09-.46l-.41.84c-.14.05-.1-.28-.28-.14 0 .1 0 .18-.08.27s-.56.24-.71-.1c-.09-.13.21-.14 0-.22s-.24.19-.5.26v-.05c-.19 0-.47.27-.24.43.13 0-.09-.2.11-.14-.07.23-.36.36-.62.42.08-.08 0-.17.06-.28a3 3 0 01-1 .74c0 .18.08-.34.15-.26-.55-.12-1 .57-1.44.32.06 0 .09.23.07.18-.24 0-.29-.21-.42-.09-.05-.14-.19.09-.34.17s-.06-.07.08-.11a2.67 2.67 0 01-1.62.48c0 .1-.25.42-.38.43v-.23c-.14-.12-.4.09-.46-.09-.2.32.94-.43.64-.15-.13-.17-.42.45-.4.13-.24.06-.43.35-.7.19.08 0 .14-.35-.06-.3s-.07.13-.34.26l-.15.12c0 .22-.32 0-.14.25-.08-.17-.48.21-.51-.16v-.3c-.14.05-.19.35-.28.5a.2.2 0 01-.07-.12c.05.44-.36 0-.48.4-.34-.1-.79.12-1-.13-.22.18-.41.38-.7.33 0-.05.12-.08.12-.17-.19-.1-.21 0-.36.12 0-.07-.38-.2-.6-.32-.21.17-.09.39-.09.54-.29-.4-.62.39-1 .05.07-.08.31-.27.09-.35-.29-.39-.38.4-.76.25l.14.34c-.19-.19-.47.3-.5-.07-.1.15-.43-.05-.33.29-.63-.19-1.36.43-1.82-.14-.07.08-.29.06-.21.23s.16-.18.24-.05c-.08 0-.07.12-.07.17-.19-.05-.34-.05-.22-.37-.44-.14-.3.67-.82.63 0-.15-.06-.19-.2-.14l-.23.3c-.33 0-.24-.3-.3-.54-.17.07-.38.11-.42.31l-.12-.27c.2.19-.11.18-.18.26l.07-.08c-.06-.1-.24 0-.34.06.06.15.28.16.4.18-.07.13-.21.13-.3.28 0-.24-.32-.11-.46-.1s-.13.25-.18.25-.25 0-.17-.17c0 0 .15.1.21 0-.12-.07-.16-.29-.34-.09s.15.47-.19.38c.07-.07.06-.17.11-.27l-.32-.06v.22c-.05-.05 0-.07-.05-.1 0 .25-.42.17-.42.45-.14.05-.34-.08-.48-.08a.4.4 0 00-.5.23v-.05a.58.58 0 00-.38.25c-.27-.1-.28-.79-.47-.45-.23.06-.26.48-.13.6-.45 0-.82.44-1.29.23 0 .1 0 .14-.09.23-.63.09-1.17.64-1.78.39.14-.15-.06-.21-.11-.33-.07.23-.24-.14-.17.2.08.19.1.28.29.3a1.61 1.61 0 01-1.1.32c.13 0 .07.13 0 .22-.09-.31-.36-.26-.51-.07v.19l-.2-.14c-.05.09.08.41-.18.31a.58.58 0 00-.14-.17c-.14.22-.3.6-.57.54l-.29-.18c-.08.07-.16.29 0 .3-.42 0-.66.09-.88-.08A3.76 3.76 0 0114 27.27v-.18c-.25 0 0 .27-.14.26 0-.15-.29-.17-.24-.4-.34 0-.2.41-.32.57.08.18.06-.18.16 0s-.43.09-.31.36c-.12-.06-.19-.27-.22-.38a1.14 1.14 0 00-.07.22c-.39-.16.08-.8-.35-1l-.12.13c-.31-.16.21-.53-.23-.38-.08.23 0 .67.24.68-.27.29.25.67-.09.89-.19-.07.24-.22 0-.37s-.24.34-.43.37c.22 0 .26.31.2.42-.25 0-.06-.3-.31-.15.06.16-.08.42.18.38.15.36-.31.09-.25.43-.24-.15-.15-.68-.48-.58.2.17-.08.53.29.72-.14 0-.28-.13-.31-.31-.24 0 0 .64-.41.29l.13.24c-.1 0-.2 0-.37-.07s-.15.59-.4.29c0 .07-.28.31 0 .41s0-.33.39-.14c-.32-.11-.21.26-.23.41l-.12-.09c0 .09-.16.19-.08.34a.17.17 0 00-.18-.14l.11.22c-.14.3-.35-.24-.51 0v-.29c0 .06-.24 0-.28.14.11.19.22.44.31.59s-.23-.11-.18.16v-.33a.41.41 0 00-.51 0c0 .16 0 .54.27.44a.19.19 0 01-.33-.05c-.12.25.19.13.15.39a6.28 6.28 0 00-.78.06l-.12-.41-.06.22c-.09-.35-.24-.06-.39-.35-.11.06-.12.23-.12.36.57.06.29.7.69.9-.17.41-1-.45-.74.34.13 0 .27.38.34.09-.2.18.24.41-.09.55 0-.29-.52-.06-.52-.49.1.11.2-.09.2-.15-.2 0-.34-.29-.51-.06s-.2.36 0 .46.14-.22.28 0c-.13.33-.47.16-.19.53.1-.2.34-.09.48 0l-.06.26-.08-.07c-.32.26.19.27-.07.56h-.37c-.19-.24.42-.39 0-.6-.16.2 0 .4-.24.53a1.36 1.36 0 010-.2c-.07.07-.63-.2-.53.3 0 .24.12.14.26.24-.18.36-.09.56-.21.8-.26-.23-.27.37-.41-.06a.6.6 0 00.34-.81c-.42-.09.22-.24-.07-.53-.19.27-.51 0-.76-.06-.07.07 0 .21 0 .27.19.17.25.06.46.2a1 1 0 00-.23.94c-.16 0-.35-.11-.29-.25a5 5 0 01-.71 1.13c.48 0-.15.45.23.46.18-.16.53-.18.62 0-.09.11-.15-.09-.25-.08.1.26-.44.07-.23.39.09-.41-.38-.31-.62-.52 0 .34-.19-.12-.33.13a3.62 3.62 0 01-.13 1c-.46.22-.49.91-.64 1.24-.23.1-.49-.18-.64 0s.43 0 .12.26v-.06c0 .13-.51.48-.1.8l-.3-.27c-.06.05 0 .14 0 .21s-.25 0-.28-.16c-.33.08-.17.44-.26.66h.27c0 .45-.35.6-.45 1l-.2-.11v.28c-.17-.15-.39 0-.28.18L.75 41c.19-.1.16.29.4.29s.32-.36.16-.51c-.09.12-.05.14 0 .28-.3-.09-.2-.28-.34-.47 0 .07-.15.13-.07.18a.64.64 0 01.1-.58c0 .2.21 0 .26.1-.24-.14-.21-.39 0-.63.38-.06.08-.6.31-.88a1.38 1.38 0 01.3.76c.23-.14.11-.23.33-.36-.14-.19-.38-.4-.36-.71l.18.07c0-.28-.23-.41 0-.68.35-.47.63-1 .86-1.36l.19.08c-.26-.42.25-.79.25-1.16.45-.39.46-1.15.91-1.21a9 9 0 011.43-2.53l.13.31c-.06-.27.21 0 .29-.16-.32 0-.1-.39-.17-.6.48-.22.64-.84.76-1.29l.17.12c0-.57.57-.73 1-1 .11 0 .31.08.4-.05 0-.43.09-.52.25-1a2.77 2.77 0 011-.57 3.75 3.75 0 011.18-1.32A16.35 16.35 0 0011.91 25l.2.16c.71-1.08 2.21-1.35 3-2l.09.41c.33 0 .59-.39.4-.62.33 0 .62-.51.94-.27.32 0 .28-.31.51-.46a3.71 3.71 0 001.38-.48h-.15c0 .11 0 .27.17.25.17-.18.8-.16.44-.55.68.05 1.33-.68 2-.49-.08-.11.06-.18.09-.28.54-.18 1.17-.05 1.53-.38.1 0-.07.25.15.21s0-.17.09-.29c.81-.47 1.82-.16 2.58-.41a23.88 23.88 0 014.16-1v.1c.38-.45 1.12.19 1.38-.43.12.08.4 0 .36.18.31-.33 1 .07 1.49-.35 0 0-.07 0-.12.08.55.12 1-.25 1.53-.15 0 .05-.14.1-.14.2.24.14.43-.5.62-.05.12 0 .05-.25 0-.22a15.31 15.31 0 003.63-.9c.93.11.21.77.83.29.07.07 0-.19 0-.1.24-.18.52.43.66.15-.13-.27.09-.18.06-.36.57.07.74.31 1.11 0v.16c.41-.52 1-.43 1.33-1 2.7-.7 5.2-1.65 7.79-2.44s5-1.67 7.66-2.32a1.25 1.25 0 001.38-.25v.14c-.08-.32.45-.19.4-.51 1-.3 1.8-.7 2.76-1.08-.14.09-.11.37.06.28l.11-.27.07.07c.1-.09.18-.29 0-.34 2.31-1.2 4.9-1.62 7.19-2.74A7.35 7.35 0 0071.6 6a13.46 13.46 0 005.3-2.11 1.62 1.62 0 01-.48 1.4zM.22 41.73c.18 0 .36-.16.48.1-.15-.05-.36-.02-.48-.1z"/>
    <path class="cls-1" d="M4.47 37.06s.1-.05.14-.05.06.2 0 .21-.09-.1-.14-.16zM5.32 35.78c.11.1 0 .43 0 .61zM6.58 34.91c.16 0 .2 0 .11.16-.07-.07-.07-.07-.11-.16zM6.35 34.64a.3.3 0 01.27-.1c-.11-.06-.09.27-.27.1zM8.45 32.47c0-.06 0-.26.2-.21-.13-.01-.07.39-.2.21zM9.17 31.28s.07 0 .07-.08.13.12.09.18zM32.34 21.14l-.14.09v-.14l.14.05zM43.92 18.86c.14-.13.14.11.17.12-.09.02.01-.19-.17-.12zM49.9 16.56l-.05.02-.06-.29.11.27zM1.55 39.88c-.2.08.14.24-.13.12.02-.12.05-.21.13-.12zM58 31.51c-.11 1-1.31.87-1.73 1.64-.06.07-.17-.38-.3-.21-.38.88-1.65 1-2.61.86v-.13c-.18 0-.26.4-.44.41s0-.13 0-.22c0 .24-.28.2-.3.39-.09-.06-.14-.24-.25-.32v.29c-.1.68-.67.14-1 .55v-.17a5.3 5.3 0 01-2 .88.69.69 0 00-.05-.37c0 .29-.19.4-.37.48-.13-.27-.27.32-.52.2v-.07c-.12.33-.27-.14-.34.25l-.14-.21c0 .41-.27-.18-.37.05v.08c-.12.12-.21-.08-.32 0-.26.15-.45-.06-.4.26-.13-.24.25-.16 0-.5a7.54 7.54 0 01-2.71.59c-.12-.12-.19-.15-.23-.27-.08.08-.33.1-.4.27 0 0-.07-.16-.12-.17s-.15.37-.34.25a.39.39 0 000-.32c-.13.27-.34.25-.52.35 0-.06.07-.09 0-.19-.17.3-.37 0-.53.17v-.19c-.31-.19 0 .4-.31.29.06-.07 0-.14 0-.21-.19.36-.57.29-.79.42a.16.16 0 000-.07c-.24.06-.51 0-.77.16-.11-.07 0-.45-.27-.36 0 .37-.43.2-.23.6-.23 0-.6-.13-.74 0 .09-.15-.15-.44 0-.49l.1-.24c0-.16.15 0 .08-.15-.09 0-.35.2-.44.15-.15.24-.26.68-.54.75.12-.15-.11-.39 0-.47l-.32.75c-.09 0 0-.29-.17-.18a.52.52 0 01-.07.25s-.38.13-.46-.23c-.05-.14.15-.09 0-.21s-.17.15-.34.17c-.12 0-.32.19-.17.38.08 0-.05-.21.07-.12a.44.44 0 01-.42.32v-.26a1.79 1.79 0 01-.68.57c0 .17.06-.33.11-.24-.36-.2-.65.41-1 .09V38c-.16 0-.18-.25-.28-.15 0-.14-.12.06-.23.12s0-.07.06-.1a1.18 1.18 0 01-1.08.25c0 .1-.17.38-.25.38v-.23c-.09-.13-.27.05-.3-.15-.14.3.63-.3.42-.06-.08-.19-.28.39-.26.08-.16 0-.29.3-.46.1 0 0 .09-.33 0-.3s-.06.12-.23.21l-.11.11c0 .22-.2 0-.09.23-.05-.18-.32.14-.34-.23v-.29c-.1 0-.13.32-.2.46a.4.4 0 010-.13c0 .44-.24 0-.32.34-.22-.13-.52 0-.65-.22-.14.15-.27.32-.46.24 0 0 .08-.06.08-.15s-.14 0-.24.08-.25-.24-.39-.38c-.15.15-.07.38-.07.53-.19-.42-.41.33-.63 0 .05-.07.21-.24.06-.33-.19-.43-.25.35-.5.16l.09.36c-.13-.21-.32.24-.33-.13-.07.14-.29-.09-.22.26-.42-.26-.91.28-1.21-.33-.05.06-.19 0-.14.2s.11-.16.16 0-.05.12-.05.17-.22-.09-.14-.39c-.29-.19-.21.63-.56.52 0-.14 0-.2-.12-.16l-.16.27c-.23 0-.16-.32-.19-.57-.11 0-.26.06-.29.25l-.17-.3c.12.21-.08.16-.13.23v-.07c0-.1-.16 0-.22 0s.17.2.25.24-.14.1-.21.24c0-.25-.2-.16-.3-.17s-.09.23-.12.22-.18 0-.11-.19.09.12.14 0-.1-.31-.22-.13.08.48-.15.34a.82.82 0 00.08-.25l-.2-.11v.12c0 .24-.28.1-.3.37-.1 0-.22-.13-.32-.15-.13-.12-.27 0-.35.14a.27.27 0 00-.27.17c-.17-.15-.14-.83-.28-.53-.16 0-.21.43-.13.57-.3-.12-.59.27-.89 0 0 .09 0 .14-.08.2-.43 0-.85.36-1.23 0 .11-.11 0-.22 0-.35-.08.21-.15-.19-.15.15s0 .3.16.37a.73.73 0 01-.78 0c.08.08 0 .15 0 .22 0-.32-.21-.35-.34-.23v.2l-.12-.19c0 .07 0 .41-.17.24a1 1 0 00-.06-.2c-.13.17-.31.46-.48.31l-.1-.48c-.06 0-.16.22 0 .29-.28-.14-.46-.14-.57-.38a1.74 1.74 0 01-1.6.75v-.14c-.16-.12-.05.26-.16.17s-.14-.29-.05-.47c-.22-.13-.23.28-.36.36s.09-.14.09.11c0 .07-.3-.12-.3.17a.93.93 0 010-.44l-.11.15c-.19-.32.29-.64.08-1l-.11.06c-.14-.29.27-.38 0-.45-.11.16-.17.59-.05.7-.25.11 0 .71-.33.71-.1-.16.22-.06.14-.3s-.25.16-.38.09c.14.1.06.4 0 .46-.16-.12.07-.28-.14-.29 0 .17-.19.32 0 .42 0 .38-.22-.09-.3.22-.09-.26.15-.64-.09-.75.06.26-.24.38-.08.75a.42.42 0 01-.08-.43c-.14-.15-.25.5-.35 0v.27c-.05-.08-.11-.14-.19-.27s-.32.39-.35 0c0 .05-.29.05-.16.32s.16-.22.28.14c-.14-.29-.22.06-.3.17v-.15c-.05.07-.17 0-.19.22a.21.21 0 000-.23v.24c-.21.14-.09-.41-.3-.32l.14-.19s-.12-.17-.22-.09-.06.48-.08.65-.08-.23-.17 0l.12-.28c0-.07-.14-.34-.3-.31s-.22.4 0 .5c-.08 0-.21-.1-.16-.26-.18.09 0 .22-.1.37-.08-.13-.3-.31-.44-.51l.13-.37h-.11c.11-.3-.1-.21-.05-.52-.08 0-.16.07-.22.16.27.45-.18.68-.07 1.11-.28.15-.3-1.05-.54-.33.07.11 0 .46.13.32-.19 0-.08.45-.32.29.15-.2-.22-.43 0-.71 0 .15.14.09.17 0s0-.44-.22-.42-.27.08-.22.3.17 0 .13.22c-.23.11-.3-.27-.35.19.14 0 .2.2.22.38l-.16.12v-.17c-.28-.09 0 .31-.31.29l-.16-.32c0-.29.4.09.3-.37-.17 0-.21.24-.38.14 0 0 .08-.06.11-.1S8.2 40.57 8 41c-.12.16 0 .17 0 .35-.27.08-.34.26-.51.31 0-.34-.32 0-.16-.37.11.19.51.13.57-.2-.14-.39.22 0 .24-.38-.22 0-.25-.38-.32-.64-.06 0-.11.11-.14.15 0 .25.08.23.11.48a.57.57 0 00-.59.3c-.09-.11-.09-.35 0-.39a1.7 1.7 0 01-.89.06c.22.38-.3.13-.15.44a.53.53 0 01.26.53c-.1 0 0-.17-.07-.25-.09.23-.22-.33-.3 0 .26-.16 0-.49 0-.81-.17.2 0-.22-.21-.2a1.79 1.79 0 01-.6.44c-.3-.27-.68.07-.92.1-.14-.14-.09-.5-.23-.55s.15.37-.1.23v-.07c-.07.09-.46-.19-.48.32v-.39s-.08.06-.11.11c0-.13-.08-.23 0-.32-.18-.25-.3.07-.46.1l.12.21c-.25.21-.45 0-.71.11v-.17l-.15.15c0-.22-.14-.34-.2-.16l.35-.58c.12.12-.1.28 0 .49s.31.1.33-.12c-.1 0-.1 0-.16.12-.06-.3.08-.3.13-.52 0 0-.13-.06-.13 0a.36.36 0 01.33-.21c-.09.13.08.18 0 .27 0-.27.13-.37.33-.31.18.29.35-.24.59-.18a1.32 1.32 0 01-.29.64c.16.12.16 0 .32.1 0-.21.07-.53.24-.67v.2c.16-.12.13-.42.35-.39a6.29 6.29 0 001 0v.2c.11-.45.51-.22.7-.43.38.16.76-.27 1 .05a5 5 0 011.82-.42l-.08.3c.1-.23.1.16.21.11-.16-.22.12-.32.19-.51.31.2.66-.09.9-.32v.2c.23-.41.57-.11.91-.08 0 .08.12.26.22.23.14-.35.24-.33.47-.57a1.47 1.47 0 01.72.14c.66-.53 1.42-.32 2.14-.67l.08.23c.66-.58 1.6-.21 2.18-.54v.41c.2.11.42-.15.34-.43.21.1.47-.25.62.07.21.06.23-.21.38-.28a1.31 1.31 0 00.92 0h-.09c0 .09 0 .27.08.28s.52.06.33-.41c.43.24.9-.33 1.33 0-.05-.13.05-.16.08-.26.35 0 .74.19 1-.06.06.06-.07.23.08.23s0-.17.08-.26c.54-.3 1.17.14 1.68 0a12.39 12.39 0 012.72-.46v.1c.26-.4.73.31.91-.27.07.08.27 0 .23.21.21-.29.68.17 1-.19 0 0-.05 0-.08.06.36.18.63-.15 1 0 0 0-.1.08-.1.18.16.17.29-.45.42 0 .08 0 0-.24 0-.22a7.24 7.24 0 002.43-.48c.61.22.11.79.54.39v-.09c.16-.15.33.5.43.24-.08-.28.07-.17.05-.35.38.15.48.41.74.16V36c.29-.46.7-.27.93-.8 1.82-.28 3.55-.73 5.33-1 1.78-.09 3.5-.48 5.27-.43.46.34.5.33.92.11v.14c0-.33.31-.07.31-.39a13.29 13.29 0 001.87-.32c-.1.05-.1.32 0 .28l.09-.23v.09a.23.23 0 000-.33c1.54-.56 3.22-.32 4.65-1a2.32 2.32 0 001.15-.55 4 4 0 003.11-1.36s.71.79.4 1.3zM1.81 39.82c.06.16.22.23.12.46a2.85 2.85 0 01-.12-.46z"/>
    <path class="cls-1" d="M6 41.08l.08.08c.02.02-.08.16-.13.08s.05-.09.05-.16zM7 41.07c0 .15-.21.28-.34.31zM8 41.57c.1.11.08.18 0 .19s0-.12 0-.19zM8 41.23c.08 0 .13.07.18.15.02-.13-.18.1-.18-.15zM10.15 41.44s.14-.15.21 0c-.07-.1-.23.21-.21 0zM11.08 41.12h.08a.12.12 0 010 .19zM28.47 38.71l-.1.08v-.15l.1.07zM36.11 37.9c.1-.1.09.13.11.15s.01-.19-.11-.15zM40.16 36.74l-.03.01-.02-.3.05.29zM9.53 43.62c0-.17-.27 0-.09-.12.11.04.19.09.09.12zM6 87.3c-.79-.49-.06-1.22-.58-1.78 0-.06.42 0 .31-.15-.62-.53-.29-1.43.14-2.13h.12c.08-.13-.32-.28-.27-.42s.12 0 .22 0c-.24 0-.12-.25-.29-.3.09-.06.27-.06.37-.13l-.27-.07c-.64-.21 0-.54-.3-.83a.25.25 0 00.17 0c-.4-.47-.34-1.08-.49-1.61a1 1 0 00.38 0 .44.44 0 01-.42-.33c.29-.07-.27-.24-.11-.42h.07c-.31-.12.17-.19-.19-.29l.22-.08c-.41 0 .22-.18 0-.28H5c-.1-.1.11-.15 0-.24-.11-.21.12-.33-.2-.33.25-.07.12.21.49.09a4.39 4.39 0 01-.2-2c.13-.08.17-.13.29-.15-.07-.07-.06-.26-.22-.33 0 0 .16 0 .18-.08s-.35-.14-.2-.28a.38.38 0 00.3.06c-.24-.12-.2-.28-.28-.43a.27.27 0 00.18.06c-.28-.16.07-.28-.11-.42h.19c.22-.21-.39-.07-.25-.25h.2c-.33-.18-.22-.47-.32-.64a.16.16 0 00.07 0c0-.19.08-.38-.06-.6.08-.07.45 0 .39-.16-.37 0-.14-.35-.57-.25.07-.17.22-.44.1-.55.13.08.45-.07.48.07l.23-.1c.15 0-.06.11.13.08 0-.07-.15-.28-.09-.34-.22-.15-.64-.28-.68-.5.14.1.41 0 .47 0l-.7-.19c0-.08.3 0 .21-.11a.5.5 0 01-.24-.09s-.08-.3.29-.31c.15 0 .07.12.21 0s-.13-.14-.12-.27c.06-.09-.14-.27-.34-.18 0 .06.22 0 .11.07a.35.35 0 01-.26-.36 1 1 0 00.25.07 1.37 1.37 0 01-.46-.6c-.18 0 .31.1.21.12.26-.24-.31-.55 0-.74h-.2c.05 0 .28-.1.19-.18.15 0 0-.11-.08-.19s.07 0 .09 0c-.12-.12-.32-.59-.08-.85-.1 0-.35-.18-.34-.24h.23c.14 0 0-.21.19-.21-.27-.15.2.52 0 .33.19 0-.35-.27 0-.21 0-.12-.25-.26 0-.36 0 0 .3.12.3 0s-.11-.06-.18-.21l-.08-.09c-.23 0 0-.16-.22-.11.19 0-.09-.26.28-.22h.28c0-.08-.29-.15-.42-.22a.57.57 0 01.14 0c-.45 0 0-.18-.29-.29.16-.15 0-.41.32-.46-.12-.13-.27-.26-.16-.39 0 0 .05.07.14.09s0-.11 0-.19.27-.16.44-.24c-.12-.13-.37-.11-.51-.14.45-.07-.25-.36.15-.47.06 0 .2.2.32.11.45-.07-.3-.25-.08-.41h-.37c.23-.06-.19-.28.18-.23-.13-.07.13-.2-.22-.21.32-.27-.12-.73.53-.85-.05-.05 0-.15-.16-.14s.13.11 0 .12-.1 0-.15-.06.12-.15.41 0c.24-.18-.58-.27-.42-.51.15 0 .2 0 .19-.07l-.24-.16c.08-.17.35-.07.59 0 0-.1 0-.2-.19-.26l.33-.08c-.24.06-.15-.09-.2-.14.11 0 .06-.11 0-.17a.38.38 0 00-.28.15c-.1-.06-.07-.13-.19-.2.24.05.19-.13.22-.19s-.14 0-.14-.02 0-.13.21 0-.13 0 0 .11.32 0 .17-.14-.48 0-.31-.18a1.08 1.08 0 00.24.11l.14-.13h-.22.1c-.22-.07 0-.23-.3-.29 0-.08.17-.14.2-.21.14-.07.07-.19-.07-.28a.22.22 0 00-.12-.24c.18-.1.84 0 .57-.11 0-.12-.38-.24-.53-.21.18-.2-.15-.49.22-.65-.09 0-.15 0-.19-.1.12-.32-.18-.72.28-.92.08.11.22 0 .35.05-.19-.1.21-.07-.12-.14s-.3 0-.39 0a.46.46 0 01.16-.58.18.18 0 01-.21-.05c.32.05.39-.08.29-.21h-.19.2s-.4-.1-.19-.18h.21c-.15-.14-.39-.33-.21-.43l.29-.06s-.18-.16-.27-.08c.2-.19.23-.31.49-.34a1.19 1.19 0 01-.39-1.37h.14c.15-.09-.25-.1-.13-.16s.31 0 .47.07c.17-.13-.22-.24-.27-.35s.11.1-.13.05c-.07 0 .18-.2-.1-.27a1.09 1.09 0 01.43.08L5.75 53c.35-.06.56.36 1 .3v-.09c.31 0 .3.28.44.08a.91.91 0 00-.67-.2c-.05-.21-.67-.2-.61-.41.17 0 0 .18.25.17s-.09-.22 0-.3c-.12.08-.4 0-.44-.12.15-.09.26.12.31 0-.16-.05-.26-.21-.4-.11-.36-.11.13-.14-.15-.27.28 0 .59.26.75.11-.26 0-.31-.27-.71-.24a.54.54 0 01.44 0c.17-.07-.43-.31.08-.26l-.26-.07.31-.08c0-.08-.31-.33.09-.25 0 0 0-.23-.27-.2s.17.17-.21.18c.32 0 0-.18-.09-.27h.15c0-.05 0-.14-.16-.2a.24.24 0 00.23 0l-.23-.08c-.08-.18.42 0 .38-.14l.16.15s.19-.05.13-.14l-.61-.22c-.08-.11.25 0 0-.13l.24.16c.06 0 .36 0 .38-.14s-.35-.27-.48-.16c0-.07.15-.13.29 0 0-.16-.23 0-.34-.17.15 0 .38-.14.6-.2l.33.19v-.08c.26.15.22 0 .51.09.06-.05 0-.13-.1-.2-.51.08-.62-.3-1.07-.33-.07-.25 1.09 0 .45-.31-.12 0-.43-.16-.33 0 .07-.13-.42-.18-.21-.31.15.15.46-.06.69.17-.14 0-.13.08-.09.12S7 49.16 7 49s0-.22-.25-.24 0 .14-.23 0c-.06-.2.32-.16-.1-.31 0 .12-.25.1-.42.07l-.08-.15h.16c.16-.18-.29-.11-.21-.31h.35c.27.1-.18.27.28.32 0-.13-.18-.22 0-.32s0 .08.08.11.64 0 .32-.23c-.12-.12-.16 0-.33-.09 0-.22-.18-.31-.18-.45.33.09.08-.24.4 0-.21 0-.25.34 0 .47s-.08.15.31.27c0-.16.43-.08.69-.06 0 0-.07-.11-.11-.14-.24-.07-.24 0-.49-.05.1-.18 0-.38-.22-.53.14 0 .37 0 .38.11a1.11 1.11 0 01.16-.67c-.41.06 0-.25-.39-.22a.6.6 0 01-.57 0c0-.07.17 0 .26 0-.19-.13.37-.07 0-.23.09.23.47.14.77.23-.14-.18.22.05.25-.09a1.28 1.28 0 01-.21-.49c.33-.15.11-.52.14-.7s.5.07.59 0-.4 0-.2-.13h.06c-.07-.07.31-.28-.18-.43l.37.13s0-.08-.08-.11c.13 0 .24 0 .31.08.28-.06 0-.24 0-.36H8.4c-.13-.25.11-.34.08-.55l.21.05-.1-.14c.2.07.36 0 .2-.11l.47.42c-.15.06-.25-.15-.47-.14s-.18.2 0 .27c0-.06 0-.07-.07-.14.31 0 .27.14.46.24 0 0 .1-.08 0-.1a.26.26 0 01.12.3c-.1-.11-.2 0-.28 0 .27.07.33.2.22.33-.33 0 .14.32 0 .47a1.36 1.36 0 01-.47-.38c-.16.08 0 .12-.18.2.19.09.49.19.59.36h-.2c.07.15.37.21.28.36a2.68 2.68 0 00-.28.75h-.2c.4.2.08.42.24.62-.24.23.08.62-.29.69a3.33 3.33 0 010 1.44l-.28-.14c.2.13-.18 0-.15.12.25-.06.28.18.45.27-.26.18-.07.51.1.74h-.2c.34.26 0 .44-.13.68-.09 0-.29 0-.28.1.3.19.27.26.44.49a1 1 0 01-.29.48c.37.62 0 1.12.18 1.72H8.3c.41.61-.14 1.22.06 1.72l-.4-.1c-.14.12.06.34.35.34-.14.13.15.4-.2.44-.09.14.16.21.2.34a.8.8 0 00-.14.69v-.07c-.09 0-.26-.07-.29 0s-.16.37.33.33c-.31.26.15.73-.26 1 .13 0 .15.07.23.11 0 .27-.33.51-.13.75-.07 0-.21-.09-.24 0s.17 0 .24.11c.19.46-.36.84-.33 1.24a6.94 6.94 0 010 2.09h-.1c.34.25-.43.48.11.71-.09 0-.06.2-.24.14.25.2-.29.48 0 .76v-.07c-.23.24 0 .5-.18.75a.29.29 0 00-.16-.1c-.19.09.39.29-.08.31 0 .06.23.06.22 0a4 4 0 00.09 1.88c-.31.43-.79 0-.47.35H7c.12.15-.54.18-.3.29s.15.07.33.09c-.21.26-.47.3-.27.53h-.15c.42.28.18.56.66.8 0 1.4.24 2.75.25 4.1s.07 2.66-.19 4c-.4.32-.39.34-.23.69h-.14c.33 0 0 .25.35.28a10.65 10.65 0 000 1.49c0-.09-.3-.12-.28 0l.21.1h-.09a.27.27 0 00.32.07c.3 1.29-.33 2.59-.19 3.86a1.85 1.85 0 00.09 1.06A3.91 3.91 0 007 87.78s-.81-.08-1-.48zM9.52 43.82c-.17 0-.28.1-.47 0a3.57 3.57 0 01.47 0z"/>
    <path class="cls-1" d="M7.25 46.49h-.1c-.03 0-.14-.11-.05-.12s.08.09.15.12zM7 47.25a.38.38 0 01-.22-.33zM6.27 47.86c-.13 0-.19 0-.17-.07a.44.44 0 01.17.07zM6.59 48c0 .06-.1.08-.18.09.12-.01-.06-.18.18-.09zM5.89 49.48s.11.14-.06.15c.17-.02-.15-.22.06-.15zM6 50.25v.06c0 .06-.17 0-.17-.07zM4.83 63.74l-.07-.09.15.03-.08.06zM4.43 69.65c.09.08-.14 0-.16.06s.18.03.16-.06zM5.03 72.86v-.03l.3.02-.3.01zM45.57 100.29c.16 0 .08-.26.15 0-.09.04-.17.1-.15 0zM7.22 91.32c.35-.83 1.12-.18 1.57-.75.06 0 0 .42.17.3.43-.68 1.3-.4 2 0v.12c.13.08.24-.33.37-.29s0 .12 0 .22c0-.24.22-.13.25-.31.06.08.07.27.15.37l.05-.28c.14-.66.49 0 .74-.33a.33.33 0 000 .17c.42-.42 1-.38 1.48-.55a1 1 0 000 .38.44.44 0 01.3-.43c.07.29.22-.27.38-.11v.06c.11-.3.18.18.26-.19l.08.23c.05-.41.18.21.27 0v-.08c.09-.1.14.1.23 0 .2-.11.32.12.31-.2.07.25-.19.12-.08.49a3.64 3.64 0 012-.25c.06.13.11.17.12.3.07-.07.25 0 .31-.21 0 0 0 .16.07.18s.15-.35.27-.2a.46.46 0 00-.07.31c.13-.25.27-.2.41-.27a.27.27 0 00-.06.18c.16-.28.26.07.39-.1v.18c.18.23.08-.38.25-.24-.05 0 0 .13-.05.2.18-.33.44-.2.61-.3a.32.32 0 000 .08c.18 0 .35.1.56 0 .06.09-.06.45.13.4 0-.37.33-.12.26-.55.15.07.39.24.51.12-.08.13 0 .46-.1.48l.07.23c0 .15-.09-.06-.08.13.07 0 .27-.13.33-.07.14-.21.3-.62.51-.65-.11.13 0 .41-.07.47l.37-.67c.07 0 0 .29.08.21a.54.54 0 01.1-.23s.29-.05.27.32c0 .14-.12.06-.06.2s.14-.11.27-.1v.05c.07.06.26-.12.2-.33-.05 0 0 .22-.08.1a.35.35 0 01.37-.23 1 1 0 00-.1.25 1.32 1.32 0 01.6-.41c0-.17-.11.3-.13.21.2.27.55-.27.69.11v-.2c0 .05.06.29.15.21 0 .14.1 0 .19-.07s0 .08-.07.08c.13-.1.6-.24.8 0 0-.1.22-.32.28-.3l-.07.22c0 .14.2 0 .17.21.17-.25-.51.14-.31 0 0 .2.3-.31.2 0 .12 0 .28-.22.34 0 0 0-.15.3 0 .3s.06-.1.21-.15l.1-.07c.05-.22.14 0 .13-.2 0 .18.26-.06.16.29l-.08.28c.07 0 .18-.27.26-.39a.35.35 0 010 .14c.11-.44.16.07.32-.25.11.17.37.09.37.38.15-.11.28-.24.39-.11a.2.2 0 00-.1.13c0 .15.09 0 .18 0s.1.29.15.46c.14-.1.16-.34.21-.48 0 .45.38-.2.41.22-.05.05-.21.17-.15.3 0 .45.28-.26.39 0l.05-.36c0 .24.3-.14.19.21.09-.11.16.17.23-.18.19.35.7 0 .69.66.05 0 .13 0 .16-.14s-.12.11-.11 0 .07-.09.09-.14c.06.11.12.15 0 .41.12.27.35-.52.55-.32-.06.14-.05.2 0 .2l.2-.2c.14.1 0 .34-.08.58.09 0 .19 0 .28-.14v.33c0-.24.11-.12.17-.17h-.06c0 .1.1.07.15 0a.33.33 0 00-.07-.29c.07-.1.13-.05.22-.16-.09.23.08.21.13.25s.15-.18.17-.17.11.06 0 .21 0-.13-.09 0-.06.31.09.19.13-.47.23-.27a.71.71 0 00-.15.21l.09.16.08-.21v.1c.11-.21.23 0 .34-.24.07 0 .09.19.15.24 0 .16.16.11.28 0a.2.2 0 00.24-.07c.06.2-.24.8 0 .58.11 0 .31-.32.31-.47.15.21.49-.05.56.34.06-.07.06-.13.13-.16.26.19.71 0 .78.47-.12 0-.09.2-.13.32.14-.16 0 .22.15-.09s.11-.28.06-.38a.4.4 0 01.49.29.18.18 0 01.11-.19c-.13.29 0 .39.11.32l.08-.17v.21c.06 0 .19-.36.22-.15a1 1 0 00-.06.21c.16-.11.41-.3.45-.11v.3c.06 0 .2-.13.16-.24.11.23.22.3.17.55a1.07 1.07 0 011.35 0l-.07.13c0 .17.16-.21.18-.08s0 .31-.2.43c.07.2.28-.15.4-.17.09-.17-.12.08 0-.13s.12.22.27 0a1.28 1.28 0 01-.21.4l.15-.09c0 .36-.49.44-.57.87h.1c-.06.31-.35.22-.2.4a1 1 0 00.37-.59c.21 0 .38-.58.56-.47 0 .18-.17 0-.24.2s.24 0 .28.07c0-.14.16-.36.24-.39 0 .17-.18.22-.06.31.09-.14.27-.19.22-.35.22-.31.09.17.3-.06-.08.26-.42.49-.33.68.09-.25.34-.23.43-.61a.54.54 0 01-.17.4c0 .18.41-.32.21.15l.15-.22v.31c0 .15.39-.2.2.15 0 0 .2.08.26-.2s-.2.12-.09-.24c-.07.3.16 0 .27 0l-.06.14c.06 0 .13 0 .23-.09a.27.27 0 00-.1.21l.15-.19c.2 0-.16.39 0 .4l-.19.1s0 .2.08.17l.4-.51c.12 0-.08.23.1.08l-.22.18c0 .05-.1.34 0 .4s.36-.25.31-.41c0 0 .06.18 0 .3.15 0 .09-.21.26-.28v.62l-.28.26h.07c-.23.2-.06.22-.26.45 0 .07.13 0 .21 0 .1-.5.48-.49.66-.9.25 0-.41 1 .13.51 0-.12.29-.36.1-.31.1.1.31-.34.36-.11-.2.1-.12.45-.4.6.09-.12 0-.15-.07-.12s-.23.38-.11.44.2.06.3-.15-.13 0 .05-.23c.19 0 0 .35.31 0-.11 0 0-.27.09-.41h.16l-.11.13c.11.21.21-.23.35-.09l-.09.33c-.19.23-.18-.25-.38.17.09.08.25-.1.29.06s-.08 0-.12 0-.25.59.09.37c.15-.07.1-.13.19-.28.2.06.35-.06.47 0-.2.28.18.15-.12.37 0-.2-.22-.34-.44-.1s-.11-.13-.35.19c.13.1-.08.43-.2.67 0 0 .12 0 .17-.06a4.51 4.51 0 00.22-.44c.11.15.33.12.54 0 0 .14-.16.34-.23.32a1 1 0 01.53.37c.1-.41.24 0 .34-.29a.62.62 0 01.18-.54s-.1.14-.12.23c.19-.14-.07.37.18.12-.23 0-.29.39-.49.64.21-.08-.12.18 0 .25a1.3 1.3 0 01.6-.07c0 .35.4.28.56.37 0 .18-.27.44-.22.55s.14-.37.19-.13h-.05c.09 0 .12.38.45 0l-.26.29h.12c.04 0-.1.22-.19.25-.07.28.2.09.3.15l.07-.23c.26 0 .24.23.44.27l-.13.18.17-.05c-.15.16-.15.33 0 .22l-.56.28c0-.15.23-.17.32-.38s-.11-.23-.25-.07c0 .06.07 0 .16 0-.16.26-.24.19-.4.33 0 0 0 .12.09 0-.15.09-.22.07-.31 0 .13-.06.07-.18.15-.24-.17.22-.3.23-.37.09.09-.32-.33 0-.41-.15a1.52 1.52 0 01.54-.36c0-.17-.09-.06-.1-.23-.16.14-.36.38-.54.41l.11-.17c-.16 0-.33.26-.42.13a1.91 1.91 0 00-.54-.5l.11-.18c-.33.31-.4-.06-.63 0-.11-.3-.57-.13-.5-.49a2.92 2.92 0 01-1.23-.47l.22-.22c-.18.15 0-.17-.06-.17 0 .25-.25.21-.39.34-.07-.3-.42-.21-.68-.11l.09-.18c-.34.24-.37-.16-.54-.32 0-.09.07-.28 0-.29A1.11 1.11 0 0139 97a.86.86 0 01-.34-.4c-.65.19-1-.29-1.56-.26l.07-.24c-.66.24-1-.42-1.54-.34l.2-.36c-.07-.17-.32 0-.4.26-.08-.17-.39 0-.33-.29-.1-.13-.23.11-.36.11a.61.61 0 00-.56-.28h.05c.06-.08.12-.24.07-.29s-.29-.22-.37.26c-.16-.36-.69 0-.81-.45 0 .13-.09.13-.15.21-.23-.08-.37-.42-.63-.27 0-.08.13-.19 0-.24s0 .16-.15.21c-.44.1-.66-.51-1-.55a5.66 5.66 0 01-1.86-.39v-.09c-.29.3-.36-.49-.66 0 0-.1-.16-.09-.08-.26-.22.22-.38-.35-.69-.08h.07c-.17-.27-.45 0-.64-.28 0 0 .08 0 .11-.15s-.31.35-.26-.12c0 0-.09.22 0 .21-.49-.31-1.13-.11-1.71-.12-.34-.36.13-.79-.25-.5 0-.1-.05.17 0 .07-.15.11-.09-.55-.22-.33s-.09.15-.12.32c-.21-.23-.22-.5-.45-.32v-.14c-.3.39-.53.12-.8.58h-3.71c-1.2-.19-2.39 0-3.61-.3-.28-.39-.31-.38-.62-.22v-.14c0 .33-.23 0-.25.35a6.68 6.68 0 00-1.34.05c.07 0 .1-.31 0-.28l-.08.21L14 92a.28.28 0 000 .32c-1.15.34-2.35-.25-3.49 0a1.5 1.5 0 00-.94.16 3.24 3.24 0 00-2.62-.07s-.07-.84.27-1.09z"/>
    <path class="cls-1" d="M45.4 100.21c.07-.15 0-.28.23-.41a2.71 2.71 0 01-.23.41zM44 97.21v-.11c0-.03.14-.08.12 0s-.12.06-.12.11zM43.41 96.74a.34.34 0 01.37-.1zM43.13 95.86c0-.14.06-.19.13-.14s-.08.08-.13.14zM42.92 96.11c-.05 0 0-.11 0-.2-.08.09.14 0 0 .2zM41.82 95s-.17.06-.12-.1c-.02.1.24-.09.12.1zM41.09 94.84h-.06c-.06 0 .09-.16.13-.15zM29.02 90.73l.09-.05-.05.14-.04-.09zM23.57 89.64c-.09.08 0-.14 0-.17s-.09.18 0 .17zM20.53 90.01h.02l-.04.29.02-.29zM12.16 102.93c.05.1.26 0 .1.09s-.19-.09-.1-.09z"/>
    <path class="cls-1" d="M19.13 108.1c.14.83-.64.39-.73 1 0 0-.18-.37-.22-.24-.05.69-.76.61-1.29.29V109c-.1-.06-.07.35-.17.32s0-.11-.06-.21c.05.23-.11.14-.1.32-.06-.08-.1-.26-.17-.35v.27c0 .66-.32 0-.43.4a.51.51 0 000-.17c-.21.44-.61.43-.94.6a1.58 1.58 0 000-.37.43.43 0 01-.18.43c-.06-.29-.15.28-.27.12v-.07c-.08.31-.13-.17-.19.2l-.05-.23c0 .41-.12-.21-.19 0v.08c-.06.1-.09-.11-.15 0-.14.1-.21-.13-.22.19 0-.26.14-.11.08-.48a1.68 1.68 0 01-1.38.09.79.79 0 010-.3c-.06 0-.18 0-.26.17a.31.31 0 000-.19c-.05-.14-.18.32-.23.16a.64.64 0 00.12-.29c-.14.22-.23.15-.34.2a.52.52 0 00.09-.17c-.18.24-.15-.11-.29 0l.09-.16c-.06-.26-.17.35-.24.18s.06-.11.09-.18c-.22.27-.35.1-.5.16v-.07c-.13 0-.2-.17-.39-.09 0-.1.21-.4.07-.39-.17.33-.27 0-.4.43-.07-.11-.16-.32-.29-.25.12-.1.19-.42.29-.4v-.22c.09-.13 0 .08.12-.1h-.23c-.19.14-.5.45-.64.41.14-.08.2-.36.28-.38l-.58.46c-.05 0 .16-.24 0-.21a.86.86 0 01-.18.16s-.22 0 0-.35c.08-.12.11 0 .15-.15s-.15 0-.22 0c0-.08-.23 0-.32.2 0 0 .13-.18.11-.06-.17.14-.29.11-.36.05a.72.72 0 00.2-.17 1 1 0 01-.63.1c-.12.12.26-.19.21-.11.05-.29-.5 0-.35-.38 0 0-.17.18-.14.14s.15-.24 0-.22c.11-.1-.08 0-.15 0s0-.06.09 0c-.14 0-.54-.09-.48-.38-.08.07-.36.12-.38.08l.2-.12c.09-.11-.1-.11 0-.23-.28.09.4.15.15.18.14-.14-.39.07-.12-.09-.06-.07-.32 0-.19-.18 0 0 .3-.12.25-.17s-.11 0-.23 0h.05c-.19.11 0-.11-.22.06.15-.11-.2-.1.13-.28l.26-.14s-.31.09-.45.11l.11-.08c-.39.22 0-.13-.36 0 .08-.18-.13-.27.09-.44-.16 0-.34 0-.29-.16a.31.31 0 00.16 0c.09-.12 0-.08-.11-.11.07 0 .19-.22.31-.34a1.34 1.34 0 00-.51.14c.38-.23-.35-.14 0-.37.07 0 .24 0 .33-.06.39-.21-.36 0-.2-.23l-.34.14c.2-.12-.26-.13.1-.22-.14 0 .08-.18-.26-.07.24-.29-.32-.49.3-.74-.07 0 0-.11-.2-.06s.15 0 0 .09-.11 0-.16 0 .09-.14.39-.13c.2-.17-.62 0-.51-.27.14 0 .2 0 .17-.08l-.26-.08c0-.13.33-.1.58-.13 0 0 0-.13-.23-.15l.31-.09c-.23.06-.16-.05-.22-.08h.06c.11 0 0-.08 0-.12a.35.35 0 00-.26.13c-.11 0-.09-.08-.22-.12.25 0 .17-.11.2-.17s-.22-.07-.21-.09 0-.1.2 0-.12 0 0 .08.31 0 .15-.12-.48 0-.32-.11.16 0 .24.07l.13-.1h-.22.11c-.23 0-.06-.17-.32-.22 0-.06.16-.11.19-.16.14 0 .06-.14-.08-.22s0-.13-.12-.2c.19-.06.83.12.58 0 0-.08-.37-.23-.52-.22.18-.13-.11-.43.27-.49-.07 0-.13-.06-.17-.12.17-.22 0-.67.48-.67 0 .12.19.11.3.17-.14-.15.22 0-.07-.15s-.26-.15-.37-.12c0-.2.13-.43.34-.4a.21.21 0 01-.16-.15c.26.19.37.13.33 0l-.14-.13.19.08c0-.07-.29-.3-.08-.25a1.25 1.25 0 00.18.11c-.07-.18-.14-.48.06-.45l.26.15c0-.06 0-.24-.16-.25.27 0 .38-.06.57.11a.92.92 0 01.75-1.08v.14c.15.1 0-.25.07-.18s.17.25.16.44c.17.1.08-.3.16-.39s0 .14-.09-.1c0-.07.23.09.18-.2a1.09 1.09 0 01.1.44l.05-.16c.18.3-.07.65.14 1l.05-.06c.13.28-.06.38.11.44a1.42 1.42 0 00-.1-.69c.13-.11-.08-.7.12-.71.08.16-.15.07-.06.3s.14-.17.24-.09a.45.45 0 010-.46c.12.12 0 .28.12.29 0-.17.12-.31 0-.41 0-.39.17.09.23-.21.06.27-.11.63 0 .75 0-.25.18-.36.09-.73a.51.51 0 010 .43c.09.15.23-.47.25 0v-.26c0 .09.06.15.1.3.07 0 .29-.33.24.06 0 0 .2 0 .17-.28s-.15.18-.18-.19c.05.31.18 0 .27-.11v.15c.05 0 .14 0 .2-.16a.24.24 0 000 .23l.09-.22c.2-.08 0 .41.12.38l-.16.15s0 .19.13.14c.08-.2.2-.43.27-.58s0 .24.13.06l-.19.21c0 .06 0 .36.09.39s.31-.29.23-.45c.07 0 .1.18 0 .3.16 0 .06-.22.23-.3a5.2 5.2 0 010 .63l-.26.27h.07c-.21.22-.06.22-.23.47 0 .06.11 0 .18-.06.1-.49.46-.51.65-.91.28 0-.45 1 .12.53 0-.11.32-.32.12-.3.1.12.34-.31.38 0-.21.07-.17.44-.46.54.09-.11 0-.15-.06-.13s-.26.36-.17.43.18.07.31-.12-.11 0 .09-.22c.19 0-.05.35.3.06-.1 0 0-.26.16-.39h.17l-.13.11c.08.23.26-.18.39 0l-.17.31c-.23.16-.13-.3-.42.06.08.1.28 0 .27.13h-.12c-.04 0-.41.5 0 .38.17 0 .14-.09.28-.21.17.12.34.07.45.16-.29.18.1.21-.26.29.13-.16-.08-.4-.37-.24-.26.32 0-.15-.38.1.09.11-.22.36-.41.55h.16c.2-.14.17-.18.36-.34 0 .16.24.19.49.14-.07.11-.29.23-.34.2a.58.58 0 01.24.48c.31-.28.17.13.44-.08a.67.67 0 01.44-.37c0 .08-.16.08-.23.14.24 0-.26.27.09.2-.2-.12-.46.17-.76.27.21 0-.2.08-.16.18a.93.93 0 01.49.22c-.24.24.1.4.13.55-.14.1-.5.11-.55.19s.37-.12.23 0H13c.08 0-.22.25.29.27h-.39s.06 0 .1.07a1.13 1.13 0 01-.32 0c-.27.07 0 .15.05.23h.23c.17.16-.06.25 0 .4h-.22l.11.11c-.2-.06-.35 0-.18.06-.17-.1-.34-.2-.51-.28.14 0 .26.09.48.09s.15-.14-.06-.17l.09.09a1.55 1.55 0 01-.49-.13s-.08 0 0 .06c-.14-.06-.17-.1-.17-.16s.2 0 .28 0c-.27 0-.35-.07-.28-.15.32-.07-.21-.14-.13-.22a1.55 1.55 0 01.62.09c.13-.07 0-.07.12-.15a3.22 3.22 0 01-.66 0h.2c-.11 0-.41 0-.37-.09a.72.72 0 000-.41l.19-.08c-.43.1-.23-.13-.45-.12.11-.22-.31-.14-.06-.39-.28-.11-.51-.13-.64-.32l.21-.21c-.17.15.08-.15 0-.15-.09.22-.23.22-.34.36 0-.25-.22-.1-.36.07l.08-.19c-.22.32-.18 0-.28-.11s0-.28 0-.26a2.64 2.64 0 01-.26.47c-.06 0-.14-.1-.21-.23-.22.46-.45.2-.59.53l-.09-.22c0 .53-.41.23-.39.55l-.24-.33c-.13-.06 0 .16.17.37-.12-.06.07.21-.19 0-.1 0 .1.17.12.23-.18 0-.18.05-.17.17-.07-.05-.22-.15-.26-.13s-.17.08.28.27c-.31 0 .11.31-.28.29a.71.71 0 01.23.1c0 .09-.31.15-.11.28-.07 0-.22-.07-.24 0s.17 0 .24.08-.3.34-.24.54c.25.32.16.65.26 1h-.1c.39 0-.3.34.26.28-.09 0 0 .1-.2.14.28 0-.16.31.19.32h-.05c-.16.2.16.19 0 .39a.45.45 0 00-.17 0c-.15.13.42-.05 0 .17 0 0 .23-.08.21-.09 0 .36.4.51.66.69-.09.35-.63.48-.24.42-.06.07.15-.1.07 0 .15 0-.34.42-.12.3s.15-.07.29-.18c0 .23-.23.43 0 .37l-.12.1c.41-.19.36.08.78-.19a6.3 6.3 0 001.83.79c.52.35 1.17.29 1.78.61.12.42.14.41.33.25a.34.34 0 000 .14c0-.32.12 0 .15-.33a2 2 0 00.73-.06v.28-.21.09a.43.43 0 000-.32c.57-.33 1.34.17 2-.15.2.07.37-.13.49-.27.63.19 1.27.23 1.54-.34.31-.52.75.2.65.51z"/>
    <path class="cls-1" d="M12.16 102.83a1 1 0 01.47.07 3.31 3.31 0 01-.47-.07zM13.56 100.62c-.05 0 0-.06.07-.08s.16 0 .09.06-.09.01-.16.02zM13.33 100a.34.34 0 01.37.07zM13.41 99.07c.05-.13.11-.17.17-.09s-.11.02-.17.09zM13.12 99.25s0-.12.05-.2c-.09.08.15.05-.05.2zM12.14 97.92c-.05 0-.18.06-.14-.1 0 .11.26-.08.14.1zM11.34 97.81h-.06a.16.16 0 01.1-.17zM5.92 105.29l-.09-.04.14-.03-.05.07zM8.25 108.83c.1 0-.07.13-.07.15s.13-.12.07-.15zM10.46 109.49h-.02l.14-.26-.12.26zM58.86 102.18c.23-.08-.13-.25.15-.12-.01.12-.07.21-.15.12zM56 115.71a1.1 1.1 0 01.07-1.28 3.75 3.75 0 00.64-1.2c0-.1.29.29.37.07a1.49 1.49 0 011-1.13 2.55 2.55 0 011.63-.08v.13c.17.07.33-.36.53-.31v.22c0-.24.32-.11.41-.29.07.11 0 .29.12.41l.14-.26a.36.36 0 01.57-.13c.19.09.34.27.61.2 0 0-.1.08-.1.15a3.26 3.26 0 012.13 1.08.61.61 0 00-.29.24c.23-.16.45 0 .63.12-.18.26.44.15.45.46h-.07c.36 0 0 .33.39.28l-.13.21c.39-.12-.07.35.19.39l.07-.05c.16.09 0 .25.12.35.23.25.09.5.38.38-.2.19-.23-.24-.51.06a5.32 5.32 0 011 3c-.12.13-.16.21-.28.24.07.1.09.38.26.47 0 0-.17.07-.18.13s.35.2.21.41a.33.33 0 00-.31-.09c.25.18.2.42.26.63 0 0-.08-.09-.18-.09.26.26-.1.41 0 .63l-.17-.1c-.28.27.37.15.18.41 0-.08-.12-.07-.19-.1.28.32.06.72.06 1a.17.17 0 00-.07 0c-.06.29-.3.51-.36.87-.13.05-.35-.28-.46 0 .31.22-.22.49.21.64-.24.17-.66.35-.74.55 0-.19-.37-.3-.21-.45l-.26-.09c-.07-.14.16 0 0-.18-.07.07-.23.35-.34.34 0 .28 0 .75-.33.93.09-.2-.23-.35-.15-.45a8.15 8.15 0 01-.2.82c-.11 0-.11-.27-.24-.13 0 .09 0 .17-.05.26s-.45.2-.57-.15c-.07-.14.16-.11 0-.22-.19 0-.18.17-.38.2-.14 0-.37.2-.2.38.09 0-.07-.21.09-.12a.54.54 0 01-.52.32c.06-.06.05-.16.07-.26a1.93 1.93 0 01-.86.53c0 .17.11-.32.16-.23-.39-.22-.83.33-1.15 0 .06 0 0 .24 0 .19-.2 0-.17-.28-.3-.2 0-.15-.16 0-.29.07s0-.08.09-.08a1.5 1.5 0 01-1.32 0c0 .1-.32.31-.41.27l.08-.21c-.05-.16-.32 0-.29-.25-.26.23.81-.06.5.09 0-.2-.45.27-.33 0-.18 0-.43.18-.55-.07 0 0 .22-.27.07-.3s-.1.09-.33.1l-.16.06c-.07.21-.22-.1-.19.17 0-.19-.42 0-.28-.35l.12-.27c-.11 0-.27.23-.4.32a.22.22 0 010-.14c-.16.42-.25-.12-.5.15-.18-.23-.58-.25-.58-.55-.23.06-.46.13-.61 0 0 0 .11 0 .16-.09s-.14-.09-.29-.07c.06 0-.13-.35-.18-.56-.23 0-.28.27-.37.39.06-.47-.61 0-.6-.46.09 0 .35 0 .27-.22.07-.46-.46.1-.59-.23l-.13.35c0-.26-.47 0-.24-.34-.15.07-.2-.28-.38 0-.2-.49-1-.51-.84-1.18-.09 0-.18-.14-.27 0s.21 0 .16.11c-.06 0-.13 0-.16.08-.07-.15-.13-.24.16-.39-.1-.37-.63.26-.85-.12.11-.09.12-.16 0-.21h-.33c-.15-.22.12-.34.28-.53-.12-.06-.23-.19-.41-.1l.1-.34c-.07.25-.18 0-.27 0h.09c0-.09-.1-.16-.18-.19-.1.12 0 .28 0 .38-.13 0-.18-.08-.34-.06.2-.14 0-.28-.09-.38s-.25.05-.27 0-.13-.16.07-.21 0 .16.11.13.18-.26-.06-.28-.33.35-.38.06c.09 0 .17 0 .27-.07l-.06-.26-.17.14c0-.06.05 0 .06-.08-.22.09-.28-.23-.52-.11-.09-.08 0-.29-.09-.4 0-.19-.15-.29-.35-.3a.41.41 0 00-.33-.21c0-.26.67-.52.32-.54-.11-.16-.51 0-.59.09-.05-.38-.58-.59-.41-1h-.23c-.14-.53-.68-1-.35-1.59.13.13.22 0 .35-.07-.23-.08.17-.19-.18-.17-.19 0-.29.06-.34.23a1.11 1.11 0 01-.07-1c-.09.1-.15 0-.22 0 .32 0 .36-.24.24-.42h-.2l.21-.12c-.06-.07-.42-.09-.22-.27a.65.65 0 00.21 0c-.15-.19-.4-.5-.21-.69l.31-.13c0-.09-.17-.26-.27-.12.22-.32.29-.53.55-.59a2.17 2.17 0 010-2.14l.13.07c.2-.12-.2-.18-.06-.26.11.1.33 0 .44.18.24-.18-.11-.4-.11-.58-.17-.1.06.17-.15.05 0-.06.27-.27 0-.42a.73.73 0 01.4.2l-.07-.2c.39 0 .38.63.85.62v-.14c.33 0 .18.46.4.2-.07-.18-.4-.48-.57-.41.06-.31-.57-.42-.39-.73.19 0-.09.27.16.32s0-.35.16-.45c-.17.1-.37-.16-.37-.28.2-.09.19.23.33 0-.13-.11-.13-.37-.33-.25-.29-.26.22-.18 0-.45.28.07.42.53.67.36-.25-.09-.14-.47-.54-.53.12-.06.3 0 .4.18.21 0-.22-.57.24-.35l-.19-.18a3.55 3.55 0 01.36 0c.07-.11-.06-.56.26-.33 0-.06.18-.31-.11-.36s0 .3-.33.18c.33 0 .13-.26.11-.41l.13.07c0-.09.11-.2 0-.33a.18.18 0 00.2.11l-.14-.19c.08-.3.37.19.48-.06v.27c0-.06.22 0 .24-.14-.14-.17-.28-.4-.39-.54s.23.09.16-.16l.08.31a.37.37 0 00.47 0c0-.14-.08-.49-.3-.41a.19.19 0 01.32.06c.09-.22-.2-.13-.16-.36h.73l.13.39.09-.09c.1.32.22.08.38.36.09 0 .08-.18.08-.3-.53-.14-.27-.67-.64-.92.19-.35.92.6.72-.16-.13 0-.23-.42-.31-.16.2-.12-.19-.44.14-.49 0 .27.46.19.42.57-.08-.12-.19 0-.19.09.18.06.29.34.45.18s.22-.25.05-.4-.15.16-.25-.09c.16-.26.44 0 .24-.41-.11.14-.32 0-.43-.16l.1-.22.07.16c.35-.14-.11-.31.18-.49l.33.16c.11.27-.46.21-.12.53.18-.12.08-.36.32-.38 0 .06-.06.1-.06.16s.51.41.53-.05c0-.21-.07-.16-.17-.3.25-.25.23-.46.4-.61.15.31.35-.19.34.24-.22-.12-.61.2-.51.53.33.25-.25.12-.06.48.22-.15.44.18.63.36.07 0 .06-.15.07-.21-.12-.22-.19-.16-.35-.36a.8.8 0 00.45-.68c.15 0 .25.27.17.35a2.15 2.15 0 01.92-.51c-.38-.25.29-.26 0-.48-.2 0-.48-.17-.48-.38.12 0 .08.16.17.21 0-.26.36.2.33-.17-.23.27.17.46.26.77.12-.27.1.2.29.09a2 2 0 01.53-.66c.41.14.76-.29 1-.4.19.11.2.48.37.48s-.24-.32.07-.25v.07c.06-.1.55.11.51-.4v.39c.06 0 .08-.07.11-.12 0 .12.12.21.06.31.22.22.32-.13.5-.16l-.16-.21c.28-.22.53 0 .82-.16v.22l.16-.15c0 .21.16.34.24.16-.14.19-.27.37-.4.58-.14-.11.1-.29 0-.49s-.36-.08-.37.14c.11 0 .1 0 .17-.13.08.3-.08.31-.12.53 0 0 .14.06.14 0-.08.17-.18.2-.35.24.1-.14-.09-.18-.07-.27 0 .26-.1.37-.32.35-.22-.27-.34.29-.59.27a1.14 1.14 0 01.21-.68c-.19-.1-.17 0-.37 0 0 .22 0 .54-.13.73l-.07-.19c-.14.15 0 .44-.28.46a4.61 4.61 0 00-1.06.3l-.1-.17c0 .47-.42.4-.53.68-.43 0-.6.6-1 .41a8.83 8.83 0 01-1.39 1.41l-.11-.3c.05.25-.18-.06-.24.06.27.07.09.34.16.53-.39 0-.49.52-.51.86l-.16-.13c.1.46-.36.48-.62.73-.09 0-.28-.09-.32 0 .14.35.06.41.08.75a1.46 1.46 0 01-.57.49c0 .88-.6 1.4-.63 2.23h-.24c.17.86-.52 1.58-.38 2.22l-.39-.14c-.16.17 0 .45.33.44-.16.17.14.45-.2.54-.08.18.18.23.23.37a.78.78 0 000 .77v-.08c-.09 0-.27 0-.28.09s0 .47.44.24c-.2.42.43.68.23 1.14.11-.09.17 0 .27 0 .13.27.08.7.41.81 0 .08-.23 0-.17.17s.14-.09.26-.05c.5.29.45 1 .86 1.39.81.53 1.43 1.26 2.17 1.77l-.07.07c.45-.11.36.72.86.39 0 .13.2.19.06.32.34-.11.43.57.91.43h-.1c.2.36.6.24.85.57 0 0-.13 0-.18.1s.48-.23.36.23c.07 0 .14-.19.09-.2a4.61 4.61 0 002.41.56c.51.41-.13.79.4.54 0 .1.06-.17.05-.07.2-.1.2.56.37.34 0-.3.1-.15.13-.32.34.24.39.5.7.31v.15c.37-.39.76-.16 1-.64a5.37 5.37 0 002.3-.56 2.28 2.28 0 001-1.1 3.48 3.48 0 00.34-1.89 22.3 22.3 0 00-.22-2.4c.27-.49.24-.53-.06-.87h.13c-.31.11-.15-.26-.45-.17a4.37 4.37 0 00-.9-1.41c.08 0 .32-.09.23-.16h-.23l.06-.07a.25.25 0 00-.29.14c-1.08-.73-1.62-1.66-2.84-1.14-.31 0-.63.3-.81.56a2 2 0 00-1.15 1.75 1.42 1.42 0 01-.43-.15.87.87 0 01-.57-.61zM58.59 102.23c-.05-.16-.23-.24-.11-.47a2.12 2.12 0 01.11.47z"/>
    <path class="cls-1" d="M53.76 101.86h-.12c-.03 0 0-.19.12-.14s-.01.07 0 .14zM52.62 102.39c-.06-.13.11-.37.24-.47zM51.3 102.57c-.16 0-.17-.11-.06-.19s.04.11.06.19zM51.43 102.89c-.08.06-.17 0-.26 0 .08.11.14-.22.26 0zM49.21 104.29s0 .24-.2.17c.12.03.07-.35.2-.17zM48.57 105.34s-.07 0-.06.08-.13-.11-.11-.17zM52.28 123.75l-.15-.01.1-.11.05.12zM61.11 126c.13-.1.1.13.13.15-.12.05.03-.15-.13-.15zM65.45 123.33l-.02.03-.23-.19.25.16zM71.2 32c-.07-.28-.26.14-.12-.18.12.07.21.18.12.18zM71.25 105.39c-.77-.88 0-2-.49-3 0-.11.42 0 .32-.22-.6-.94-.25-2.41.2-3.55l.12.07c.09-.22-.3-.48-.25-.71.08 0 .11.07.22 0-.24-.06-.11-.42-.29-.51.09-.09.28-.08.38-.2l-.27-.13c-.64-.37 0-.89-.29-1.39.07 0 .12.08.18 0a9.61 9.61 0 01-.47-2.7.52.52 0 00.37 0c-.28 0-.35-.32-.41-.56.29-.11-.26-.41-.1-.7h.06c-.31-.21.18-.31-.19-.48l.23-.13c-.41-.09.21-.3 0-.47h-.08c-.1-.16.1-.24 0-.39-.11-.35.12-.56-.2-.55.25-.12.12.34.49.15a12.67 12.67 0 01-.28-3.52c.12-.13.16-.21.28-.24-.06-.12-.06-.44-.22-.55 0 0 .16-.07.18-.13.12-.22-.35-.23-.21-.47a.29.29 0 00.31.09c-.25-.19-.21-.46-.3-.69.06 0 .09.09.19.08-.28-.26.06-.47-.12-.69l.19.08c.22-.36-.39-.1-.26-.42.06.08.13 0 .21.06-.34-.29-.23-.76-.35-1a.13.13 0 00.08 0 3.16 3.16 0 00-.09-1c.09-.13.45 0 .39-.29-.38 0-.16-.57-.58-.37.06-.29.2-.75.07-.94.15.13.46-.14.49.1l.22-.18c.16 0 0 .19.14.13 0-.12-.16-.47-.1-.58-.23-.22-.65-.42-.7-.78.14.17.41-.1.47 0l-.71-.5c0-.12.29 0 .19-.2-.09 0-.15-.06-.23-.12s-.1-.49.27-.55c.14 0 .07.2.2.07s-.13-.23-.13-.45h.05c0-.14-.16-.43-.36-.27 0 .1.22 0 .11.11a.63.63 0 01-.28-.58c.06.08.16.07.26.1a2.46 2.46 0 01-.5-.94c-.17 0 .32.12.23.17.24-.42-.35-.87 0-1.23 0 .06-.25 0-.2 0 0-.2.27-.19.18-.33.15 0 0-.16-.1-.3s.08 0 .09.08a1.88 1.88 0 01-.14-1.39c-.1 0-.36-.27-.35-.37h.23c.14-.1 0-.34.18-.36-.28-.22.24.83 0 .54.19-.08-.37-.41 0-.35 0-.2-.27-.4-.06-.59 0 .06.32.16.3 0s-.02.05-.12-.15l-.1-.14c-.22 0 0-.26-.22-.16.19 0-.11-.42.26-.39h.29c0-.12-.31-.2-.44-.3a.21.21 0 01.14 0c-.45 0 0-.3-.31-.45.15-.26 0-.67.29-.79-.14-.2-.3-.39-.2-.62 0 0 0 .11.15.12.13-.14 0-.18-.06-.31.06 0 .26-.29.41-.45-.13-.2-.37-.13-.52-.15.44-.18-.28-.56.12-.8.06.07.21.3.32.13.44-.19-.32-.37-.11-.67l-.37.08c.23-.13-.21-.44.16-.41-.13-.1.12-.35-.23-.31.3-.49-.19-1.18.45-1.48-.06-.07 0-.25-.18-.21s.14.16 0 .21-.11-.08-.16-.09.11-.27.41-.13c.22-.33-.61-.34-.47-.77.15 0 .2 0 .18-.14l-.25-.23c.05-.28.33-.16.58-.17 0-.15 0-.33-.22-.39l.31-.18c-.22.13-.15-.12-.21-.19l.06.07c.11 0 0-.2 0-.29s-.21.2-.26.29c-.11-.07-.08-.19-.21-.29.24 0 .17-.24.2-.36s-.22-.15-.22-.19 0-.22.2-.11-.12.1 0 .18c.09-.09.32-.08.15-.27s-.48 0-.32-.22c.06.07.15.08.24.13l.13-.25h-.22.1c-.23-.07-.07-.38-.34-.43 0-.13.16-.26.18-.38.13-.15.05-.34-.1-.46a.4.4 0 00-.15-.37c.17-.2.84-.07.56-.29 0-.2-.4-.32-.55-.23.15-.37-.21-.78.13-1.12-.09-.06-.14 0-.2-.13.09-.54-.26-1.13.17-1.56.1.15.22 0 .35 0-.2-.13.21-.16-.13-.2s-.3 0-.38.15a1.15 1.15 0 01.07-1c-.09.09-.15 0-.21 0 .32 0 .37-.21.25-.39h-.19l.2-.12c-.06-.07-.41-.07-.22-.25a.59.59 0 00.2 0c-.16-.19-.43-.45-.26-.65l.28-.16c0-.09-.2-.23-.29-.08.18-.34.2-.56.44-.67a2.65 2.65 0 01-.59-2.13h.15c.14-.18-.26-.09-.15-.22.14.06.3-.14.47 0 .15-.26-.25-.34-.32-.51-.19 0 .12.14-.12.11-.07 0 .15-.37-.14-.41.11-.07.32 0 .44 0l-.14-.16c.34-.2.61.45 1 .24v-.15c.3-.14.35.39.45 0-.15-.16-.57-.3-.7-.15-.08-.34-.69-.16-.67-.52.17-.1 0 .29.28.22s-.13-.34 0-.49c-.1.17-.4 0-.45-.08.13-.19.27.11.3-.15-.17 0-.29-.28-.41-.07-.38-.09.11-.27-.19-.41.27-.09.62.26.75 0-.26 0-.35-.35-.73-.2a.35.35 0 01.44 0c.15-.17-.48-.39 0-.45h-.26c.09-.05.15-.12.29-.2s-.36-.46 0-.45c0 0 0-.36-.3-.24s.21.23-.17.34c.31-.14 0-.29-.14-.4h.15c-.06-.07 0-.23-.19-.27a.19.19 0 00.23 0l-.23-.07c-.12-.28.41-.07.34-.34l.18.21c0-.05.18-.14.11-.27s-.47-.15-.64-.19.24-.07 0-.22l.26.2c.07 0 .35-.14.35-.34s-.39-.34-.5-.13a.19.19 0 01.28-.17c-.08-.23-.23 0-.36-.17.14-.08.34-.34.55-.49l.35.21v-.14c.29.18.22-.09.52 0 0-.1-.06-.21-.14-.3-.48.28-.66-.32-1.1-.23-.12-.38 1.07-.24.38-.64-.11.06-.45-.12-.32.12 0-.24-.45-.16-.26-.44.18.2.44-.23.71.07-.15 0-.11.17-.07.22s.44 0 .44-.23 0-.35-.28-.32 0 .23-.23.13c-.09-.29.3-.34-.15-.47 0 .19-.23.24-.4.24l-.02-.45h.17c.12-.35-.3-.1-.26-.44l.33-.16c.29.08-.12.49.34.43 0-.22-.22-.29-.1-.5 0 .05.06.11.1.16s.63-.16.27-.47c-.14-.16-.17-.05-.34-.05-.06-.35-.24-.46-.26-.68.34 0 0-.4.38-.15-.2.11-.18.62.14.75.41-.13-.05.27.36.35 0-.29.4-.27.66-.32 0-.08-.09-.15-.13-.2-.25 0-.24.07-.49.08a.82.82 0 00-.31-.8c.12-.1.36-.07.38.06a2.91 2.91 0 010-1.14c-.4.24-.1-.39-.43-.23-.09.19-.37.35-.55.25 0-.12.17 0 .26 0-.22-.15.35-.24 0-.39.13.35.49.07.8.13-.18-.24.22 0 .22-.23a2.76 2.76 0 01-.38-.82c.3-.35 0-.87 0-1.18.16-.16.51 0 .57-.23s-.38.15-.22-.15h.07c-.08-.09.24-.56-.26-.64l.38.09c0-.06 0-.11-.1-.16.13 0 .24-.07.32 0 .27-.19 0-.4 0-.6l-.23.13c-.17-.34 0-.58 0-.91h.22l-.13-.2c.21 0 .35-.14.17-.25l.55.52c-.14.15-.27-.15-.49-.06s-.13.39.08.44c0-.12 0-.13-.1-.22.31 0 .29.14.5.23 0-.06.08-.15 0-.17a.51.51 0 01.19.45c-.12-.13-.19.08-.28 0 .27 0 .35.21.28.46-.31.18.2.47.12.77a1.3 1.3 0 01-.61-.45c-.14.18 0 .2-.13.39.2.09.52.15.64.39h-.2c.1.22.4.22.35.49a8.6 8.6 0 00-.12 1.33h-.2c.43.2.16.67.35.94-.19.46.2 1-.15 1.24a8.13 8.13 0 01.24 2.36l-.3-.14c.22.15-.16.1-.12.25.23-.17.31.2.49.3-.23.38 0 .86.23 1.19h-.21c.39.34 0 .74 0 1.16-.08 0-.27.12-.25.25.33.22.31.34.51.68a2.38 2.38 0 01-.2.88c.46.91.17 1.85.45 2.8l-.24.07c.51.92.05 2 .32 2.84l-.49.08a.36.36 0 00.4.5c-.13.25.2.62-.14.77-.07.26.19.31.25.52a2 2 0 000 1.17v-.11c-.09-.06-.26-.06-.29.06.12.18-.1.65.38.47-.28.51.23 1.19-.14 1.69.13 0 .16.08.24.13 0 .45-.26.92 0 1.28-.07.07-.23-.12-.24.07s.17 0 .25.13c.25.72-.25 1.47-.19 2.12a19 19 0 01.18 3.51h-.09c.37.38-.38.88.18 1.18-.09.09 0 .34-.23.28.26.29-.25.83.09 1.26 0 0 0-.06-.06-.1-.21.43.09.82-.11 1.28 0 0-.07-.13-.17-.15-.18.18.42.42 0 .52 0 .11.23.08.22 0a11.59 11.59 0 00.23 3.14c-.28.75-.79 0-.44.64-.09.05.18 0 .09 0 .13.23-.53.36-.28.52.29-.07.16.1.34.11-.19.46-.45.55-.23.91h-.15c.43.42.2.91.7 1.27.09 2.35.38 4.6.44 6.88-.09 2.27.14 4.48-.12 6.78-.39.54-.38.58-.22 1.17-.06 0-.08-.06-.14 0 .33 0 0 .41.35.47-.06.85 0 1.63 0 2.5 0-.14-.3-.21-.28 0l.21.17h-.09c0 .11.21.23.32.12.29 2.19-.37 4.35-.28 6.5a5.42 5.42 0 00.06 1.79 10.64 10.64 0 00-.47 4.8 1.55 1.55 0 01-1.11-.96zM71.23 32.36c-.16.06-.25.25-.47.1a2 2 0 01.47-.1z"/>
    <path class="cls-1" d="M69.56 37.47s-.07.08-.1.09-.15-.12-.06-.17.09.05.16.08zM69.46 38.78c-.14 0-.26-.3-.28-.47zM68.87 40c-.13.11-.2.08-.19-.06s.11.06.19.06zM69.2 40.08c0 .1-.08.15-.17.2.13 0-.03-.23.17-.2zM68.78 42.72c0 .06.13.2 0 .26.09-.07-.21-.31 0-.26zM69 44v.1c0 .1-.17 0-.19-.07zM69.66 66.28l-.07-.14.14.02-.07.12zM69.7 76.06c.09.13-.14.09-.16.11s.18.05.16-.11zM70.44 81.33v-.04l.29.02-.29.02zM72 110.57c-.06.08.09.25 0 .12s0-.2 0-.12zM90.68 107.84c-.14.79-.53.06-.71.57 0 0 0-.42-.1-.31-.17.62-.58.31-.93-.11v-.12c-.06-.07-.08.32-.15.27a.86.86 0 000-.21c0 .23-.09.12-.09.3 0-.09-.06-.28-.1-.38v.27c0 .65-.23 0-.32.33a.49.49 0 000-.17c-.16.41-.42.37-.63.54a2.46 2.46 0 000-.37.54.54 0 01-.09.43c-.07-.29-.07.27-.17.12v-.06c0 .31-.1-.17-.09.2l-.07-.22c0 .41-.1-.2-.12 0v.08c0 .11-.07-.09-.1 0-.08.12-.16-.1-.11.22-.07-.25.07-.13 0-.49-.25.37-.56.34-.86.39a1 1 0 01-.1-.28c0 .07-.1.07-.11.24a.39.39 0 00-.06-.17c-.07-.11 0 .35-.09.22a.82.82 0 000-.31c0 .26-.09.23-.14.31a.61.61 0 000-.18c0 .29-.12 0-.16.14v-.19c-.12-.21 0 .39-.07.27a1.62 1.62 0 000-.21c0 .35-.17.25-.23.38a.2.2 0 000-.08c-.08 0-.18 0-.24.12 0-.08-.06-.45-.13-.37 0 .37-.13.17 0 .58-.08 0-.21-.17-.24 0 0-.14-.1-.44 0-.48l-.08-.22c0-.15.06 0 0-.14 0 0-.1.18-.13.12 0 .23 0 .66-.1.72 0-.15-.09-.4-.07-.47v.72s0-.29-.08-.18a.65.65 0 010 .24s-.11.11-.17-.25v-.21c0-.12 0 .14-.09.15s-.09.17 0 .37v-.12c0 .1-.05.28-.1.29a1.38 1.38 0 000-.26 1.14 1.14 0 01-.16.53v-.23c-.14-.22-.17.37-.31 0v.19c0-.05-.09-.26-.11-.16 0-.15 0 0-.06.1s0-.07 0-.09c0 .13-.19.38-.33.19a1 1 0 010 .36v-.23c0-.13-.08 0-.12-.16 0 .28.18-.27.14 0 0-.19 0 .37-.08.06 0 0-.06.28-.14.08v-.3c0 .02 0 .11-.05.19v.1c0 .22-.07 0 0 .22 0-.18-.09.13-.14-.23v-.29a1.92 1.92 0 000 .44.42.42 0 010-.13c.06.44-.08 0-.07.32-.09-.14-.17 0-.24-.26 0 .14 0 .31-.13.23a.36.36 0 000-.16c-.06-.12-.05 0-.07.07a2 2 0 00-.18-.39 1.87 1.87 0 000 .52c-.12-.43-.1.3-.22-.09a.6.6 0 000-.32c-.12-.43 0 .33-.15.14l.07.35c-.07-.22-.07.23-.12-.14 0 .13-.11-.1-.05.24-.17-.27-.27.23-.44-.39 0 .07-.06 0 0 .19s0-.14 0 0a.48.48 0 000 .16c0-.08-.09-.1-.1-.4s0 .61-.12.5 0-.2-.06-.18v.26c-.08 0-.09-.32-.14-.57 0 0-.07 0-.06.23l-.1-.3c.07.22 0 .15 0 .22v-.07c0-.1-.06 0-.08 0a.46.46 0 00.12.24v.23c0-.25-.09-.17-.12-.19s0 .23 0 .22-.06 0-.06-.19 0 .11 0 0-.07-.31-.09-.14.09.47 0 .33a1.91 1.91 0 000-.24l-.08-.12v.22a.22.22 0 010-.1c0 .23-.09.08-.06.35 0 0-.09-.15-.12-.17-.06-.12-.09 0-.1.13s-.06 0-.06.16c-.08-.16-.16-.82-.17-.54v.55c-.11-.13-.16.25-.3-.08a.66.66 0 010 .2c-.15-.06-.24.31-.42-.1a1.22 1.22 0 00-.06-.35c0 .2-.07-.2 0 .14a.85.85 0 00.11.37c-.07.12-.19.14-.26 0a.4.4 0 010 .21c0-.32-.12-.36-.14-.24v.2l-.06-.19v.22a1.94 1.94 0 010-.2c0 .17 0 .45-.12.29l-.09-.27a.41.41 0 000 .28.76.76 0 01-.24-.4c0 .62-.26.68-.44.66v-.14c-.07-.13 0 .26 0 .16a2.86 2.86 0 01-.08-.47c-.09-.14 0 .27-.07.34s0-.13 0 .12c0 .07-.11-.13-.07.15a2.13 2.13 0 01-.07-.44v.15c-.11-.33 0-.62-.12-1-.09-.29 0-.36-.07-.44a2 2 0 00.08.69c-.07.09.08.69 0 .68-.06-.16.06 0 0-.29s-.06.15-.11.07a1 1 0 01.06.46c-.07-.13 0-.28-.09-.3v.41c0 .38-.08-.09-.07.21-.07-.26 0-.63-.13-.74a4.61 4.61 0 00.07.73 1.13 1.13 0 01-.08-.43c-.07-.15 0 .48-.12 0v.26l-.1-.28s0 .37-.12 0c0 0-.09 0 0 .31s0-.21.12.15c-.09-.29-.07 0-.08.16v-.15c0 .06-.05 0 0 .2a.89.89 0 00-.05-.23v.24c0 .13-.09-.4-.14-.33v-.18s-.07-.17-.09-.1l.07.64c0 .1-.06-.24-.06 0v-.26c0-.08-.1-.35-.15-.33a1 1 0 00.06.5.42.42 0 01-.09-.27c0 .08.05.22 0 .36-.05-.14-.15-.32-.22-.52v-.36a5 5 0 00-.09-.51s0 .06-.05.14a9.2 9.2 0 01.14 1.1c-.08.14-.26-1-.23-.35 0 .11 0 .45.09.32s0 .44-.07.27-.13-.43-.11-.7c0 .14.07.1.07.06s-.08-.44-.14-.43-.08.07 0 .29.06 0 .08.22c-.06.1-.14-.28-.09.17 0 0 .1.21.13.38v.12-.17c-.1-.1 0 .3-.06.28l-.1-.32c0-.29.15.1 0-.36-.06 0 0 .23-.11.12s0 0 0-.1-.15-.61-.17-.24a.87.87 0 00.06.34c-.08.06-.08.24-.13.28 0-.34-.11 0-.11-.37.07.19.19.15.16-.17s.08 0 0-.37c-.07 0-.14-.38-.2-.63v.13c0 .25.06.24.11.49-.09 0-.14.09-.14.34a.78.78 0 01-.06-.39.21.21 0 01-.29 0c.13.38-.08.11 0 .43a1.19 1.19 0 01.16.53s0-.17-.06-.25c0 .22-.12-.33-.09 0 .06-.14-.08-.48-.12-.79 0 .18 0-.22-.1-.21a1 1 0 01-.14.41c-.14-.27-.22 0-.29.07-.07-.15-.11-.5-.17-.56s.11.37 0 .23v-.07c0 .08-.18-.21-.11.29l-.05-.38v.1a1.39 1.39 0 010-.32c-.1-.25-.1.07-.14.09l.07.21c-.05.19-.15 0-.22.08v-.22.14c0-.21-.1-.34-.09-.16v-.56c.06.12 0 .27.07.48s.12.11.1-.1v.11a1.94 1.94 0 010-.5s0-.07 0 0c0-.15 0-.18.07-.2s.06.19.06.28c0-.27 0-.36.07-.3.1.3.08-.22.17-.15a3.11 3.11 0 010 .62c.07.12 0 0 .12.11a3 3 0 010-.66v.2c0-.11 0-.4.06-.36a.85.85 0 00.36.06v.19c0-.43.14-.18.17-.39.15.17.22-.23.34.1.18-.19.33-.38.56-.34v.29c0-.22 0 .16.08.12-.08-.23 0-.32 0-.5.14.21.21-.06.26-.28v.2c0-.39.18-.08.3 0s.08.27.1.24a1.64 1.64 0 01.08-.53.36.36 0 01.27.16c.15-.49.44-.24.63-.56l.06.23c.14-.54.51-.14.67-.43v.41c.08.11.12-.13 0-.42.09.12.13-.22.22.11.08.06 0-.2.1-.27.15.13.19.09.3 0a.66.66 0 00.06.29c0-.12.19.08.06-.4.18.26.26-.27.45.08a.69.69 0 010-.25c.11 0 .27.22.33 0V108.51c.14-.28.41.19.57.1.26-.3.59-.23.87-.32v.1c0-.38.28.34.27-.22 0 .08.09 0 .11.21 0-.27.25.22.31-.13.14.2.2-.11.34.07a.67.67 0 000 .17c.08.18 0-.42.14 0v-.22c.29.14.52-.2.77-.35.23.25.13.78.23.41v-.08c0-.14.17.51.17.26v-.34c.14.17.2.42.26.19v.15c0-.44.2-.23.22-.73.59-.18 1.12-.54 1.7-.68.6 0 1.13-.28 1.76-.1.19.38.2.36.33.18a.32.32 0 000 .14c0-.32.1 0 .07-.35a2.34 2.34 0 00.64-.12v.28-.21.09a.44.44 0 000-.32c.53-.35 1.17.23 1.71.08.15.12.32 0 .45-.11.48.39.9.69 1.29.34a2.92 2.92 0 01-.54.84zM72.11 110.53a1.29 1.29 0 01.11.46c-.03-.16-.09-.32-.11-.46z"/>
    <path class="cls-1" d="M73.71 111.94V112.09a.43.43 0 000-.15zM74.06 112a.38.38 0 01-.07.3zM74.47 112.5v.19a1.37 1.37 0 010-.19zM74.43 112.17s0 .08.08.16c-.02-.13-.04.08-.08-.16zM75.17 112.47s0-.14.07 0c-.04-.09-.04.21-.07 0zM75.44 112.19a.31.31 0 010 .18zM80.95 110.66l-.02.08-.02-.15.04.07zM83.42 110.28v.15c0 .02.04-.18 0-.15zM84.65 109.36l-.01.01-.04-.3.05.29zM22.89 51.17c0-.16-.26 0-.09-.12.11.04.2.09.09.12zM40.75 68.19c-.76.47-1-.5-1.71-.24-.07 0 .17-.38 0-.34-.69.35-1.32-.21-1.79-.85l.07-.11c-.1-.12-.35.23-.46.14s.07-.1.07-.21c-.09.22-.25 0-.35.2a2.74 2.74 0 000-.4l-.14.25c-.35.57-.46-.18-.81.08a.35.35 0 00.06-.16c-.52.29-1 .1-1.55.17a.77.77 0 00.07-.37.45.45 0 01-.36.36c0-.3-.26.23-.39.05v-.06c-.15.29-.14-.2-.28.15v-.23c-.1.4-.14-.24-.26 0v.08c-.1.09-.12-.12-.21 0-.21.09-.3-.15-.32.17 0-.26.2-.1.12-.48a4.92 4.92 0 01-1.93.18c-.07-.13-.12-.17-.13-.3-.07.07-.24.06-.3.22 0 0 0-.16-.08-.18s-.12.36-.25.22a.46.46 0 00.05-.31c-.11.25-.25.22-.38.31a.34.34 0 000-.19c-.13.29-.26 0-.37.13v-.18c-.22-.22 0 .38-.22.26v-.21c-.14.34-.4.25-.55.38a.2.2 0 000-.08c-.17.06-.36 0-.53.14-.08-.08 0-.45-.2-.37 0 .37-.3.18-.14.59-.16 0-.42-.15-.51 0 .05-.15-.13-.43 0-.49l-.13-.2c0-.16.11 0 .05-.15-.06 0-.23.2-.3.15-.09.24-.13.68-.31.76.06-.16-.12-.4-.07-.47l-.15.74c-.06 0-.06-.29-.14-.18a.42.42 0 010 .25s-.24.15-.34-.2c-.05-.14.09-.1 0-.21s-.1.15-.22.18c-.09 0-.19.2-.07.38.06 0-.06-.21 0-.12a.31.31 0 01-.24.33.79.79 0 000-.26 1.22 1.22 0 01-.37.59v-.24c-.28-.18-.36.46-.63.17 0 0 .08.23.07.18s-.18-.23-.22-.12c-.05-.14-.07.07-.13.13s0-.06 0-.1c-.06.16-.38.47-.66.35 0 .09 0 .38-.1.4v-.23c-.11-.11-.25.11-.31-.08-.05.17.09.06.22-.06s.16-.21.13-.08c-.07-.18-.15.44-.2.12-.14.06-.25.37-.43.21.05 0 .07-.36 0-.31s0 .13-.2.28l-.11.14c0 .24-.2 0-.11.28 0-.19-.35.26-.29-.16l.05-.34c-.08 0-.17.41-.28.6a.57.57 0 010-.14c-.1.53-.21.06-.43.53-.16-.09-.55.25-.51-.08-.22.25-.47.55-.6.51a1.11 1.11 0 00.19-.27c0-.13-.12 0-.28.2.07-.1 0-.28 0-.47a6.48 6.48 0 00-.56.85c.28-.62-.72.68-.5.12.12-.12.44-.45.44-.58.36-.66-.61.67-.59.42l-.38.6c.17-.34-.62.54-.12-.12-.25.27-.1-.09-.56.54a2.44 2.44 0 00.15-.71 2.27 2.27 0 01.54-1c-.06 0 0-.18-.2.08s.16-.06 0 .15c0 0-.12.09-.18.15a1.4 1.4 0 01.52-.63c.31-.51-.7.49-.47-.05.18-.15.25-.23.24-.31l-.27.07c.11-.3.42-.46.72-.71 0-.07 0-.21-.2-.09l.38-.4c-.28.28-.15 0-.22 0h.07c.12-.1.07-.17 0-.21a1.23 1.23 0 00-.34.42c-.11 0-.07-.09-.2-.08.28-.15.23-.32.28-.43s-.23 0-.21 0 .06-.19.24-.21-.15.16 0 .16.36-.25.21-.3-.54.29-.33 0h.25l.17-.25-.24.1a.31.31 0 01.12-.07c-.25 0 0-.27-.3-.23 0-.1.2-.27.25-.37.16-.15.1-.27 0-.36h.05a.27.27 0 00-.1-.3c.2-.17.87-.07.61-.23 0-.14-.36-.28-.52-.22.22-.35-.12-.55.26-.7-.09 0-.14 0-.19-.1.14-.27-.15-.66.32-.81.08.1.22 0 .35.06-.19-.1.22 0-.12-.13s-.29-.05-.39 0c-.07-.2 0-.46.18-.52a.19.19 0 01-.21-.07c.31.07.38-.05.29-.16h-.19.21c-.06 0-.4-.11-.2-.17h.21c-.14-.12-.38-.31-.2-.39h.3s-.18-.16-.27-.09c.2-.16.24-.27.49-.29a1 1 0 01-.37-1.25h.15c.15-.07-.25-.09-.14-.14s.32 0 .47.08c.18-.11-.22-.23-.27-.33s.11.1-.12 0c-.07 0 .18-.18-.1-.25a1.32 1.32 0 01.43.09l-.12-.11c.35 0 .55.35 1 .31v-.09c.31 0 .3.27.43.09a1 1 0 00-.66-.21c0-.19-.67-.2-.61-.39.17 0 0 .16.25.17s-.1-.21 0-.28c-.12.07-.4-.06-.44-.12.15-.08.26.11.31 0-.16-.05-.26-.2-.4-.11-.36-.12.13-.13-.14-.26.27 0 .58.26.74.13-.26 0-.31-.26-.7-.24a.57.57 0 01.43.05c.17-.06-.43-.29.08-.23l-.25-.07.31-.06c0-.08-.31-.31.08-.24 0 0 0-.2-.27-.18s.17.16-.2.16c.31 0 0-.17-.1-.25h.15c-.05-.05 0-.13-.17-.18a.28.28 0 00.23 0l-.22-.08c-.09-.17.41 0 .37-.12l.16.14s.19 0 .13-.12l-.61-.22c-.07-.1.25 0 .05-.11l.23.15c.07 0 .36 0 .37-.12s-.34-.25-.48-.16c0 0 .15-.11.3 0-.05-.14-.23 0-.34-.15.15 0 .37-.13.59-.18l.33.18v-.07c.26.14.22 0 .51.09.06 0 0-.12-.1-.19-.51.07-.63-.28-1.07-.31-.08-.23 1.08 0 .44-.28-.12 0-.43-.15-.33 0 .07-.12-.42-.17-.21-.29.15.15.46 0 .69.17-.14 0-.13.07-.09.1s.44.09.46 0 0-.2-.25-.23 0 .13-.24 0c-.05-.18.33-.14-.1-.28 0 .1-.24.08-.42.05l-.08-.13h.16c.16-.17-.29-.11-.21-.28h.34c.27.09-.17.24.29.29 0-.12-.18-.2 0-.29s0 .07.07.1.64 0 .31-.21c-.12-.11-.16-.05-.33-.08 0-.2-.18-.29-.19-.41.34.08.08-.22.39 0-.2 0-.23.31.08.43s-.09.14.31.25c0-.15.42-.07.68 0 0 0-.07-.1-.11-.13a3.87 3.87 0 00-.49 0c.1-.16 0-.35-.23-.48.13 0 .37 0 .38.09a.86.86 0 01.14-.6c-.41.05-.05-.23-.39-.21a.63.63 0 01-.57 0c0-.06.17 0 .26 0-.2-.12.36-.06 0-.2.09.2.47.12.77.21-.15-.17.22 0 .25-.09a1.31 1.31 0 01-.3-.51c.33-.14.09-.47.11-.64s.51.06.58 0-.39 0-.2-.12h.07c-.07-.06.29-.25-.2-.39l.36.12s0-.07-.07-.1c.12 0 .24 0 .31.06.28-.05 0-.22 0-.33h-.23c-.14-.21.1-.3.05-.5l.22.05-.14-.45c.21.06.36 0 .19-.1l.49.37c-.14.06-.25-.13-.47-.12s-.17.19 0 .25c0-.06 0-.07-.09-.13.31 0 .28.12.48.21 0 0 .09-.07 0-.09a.25.25 0 01.13.27c-.1-.09-.19 0-.27 0 .26 0 .33.17.23.3-.33 0 .15.29 0 .43a1.46 1.46 0 01-.56-.35c-.15.08 0 .11-.16.19.19.08.49.17.59.32h-.2c.08.14.38.19.3.33a2.58 2.58 0 00-.25.7h-.2c.41.18.09.39.26.57-.24.21.09.57-.28.64a2.57 2.57 0 010 1.32l-.19-.22c.2.12-.17 0-.15.11.25-.05.29.17.45.25-.26.17-.06.47.12.69h-.21c.35.25 0 .41-.12.62-.09 0-.28 0-.27.09.3.18.26.24.44.46A.92.92 0 0122 59c.36.57 0 1 .17 1.59h-.25c.42.58-.14 1.12 0 1.59l-.4-.12c-.14.12.06.33.35.34-.15.12.13.37-.21.4-.1.12.15.2.19.32a.66.66 0 00-.16.63v-.06c-.08-.05-.25-.08-.29 0s-.17.34.32.32c-.32.23.12.69-.3.89.13 0 .14.07.23.12a.65.65 0 01-.16.3s-.06.06 0 .08h-.25a1.93 1.93 0 00.25 0c.12 0 .05.06 0 .14s-.23.18-.2.22c.26 0 .09.21.11.32l-.12.14c.2-.21.14-.13.05 0s-.17.26 0 .08l.22-.28a3.76 3.76 0 01-.24.35c.31-.42-.12.31.26-.21l-.06.08c-.11.27.16-.16.1.07l-.13.24c-.06.22.31-.57.08 0a.84.84 0 00.11-.28c0 .08.17 0 .26-.11a1.78 1.78 0 00.23-.32 1.45 1.45 0 01.2.42c0 .11 0 .16.14-.07.05.08 0-.17 0-.08.08-.17.35.43.36.17s0-.17 0-.34c.31.1.43.34.57.07v.15c.12-.48.45-.33.53-.87a22.71 22.71 0 013.95-1.1 14.33 14.33 0 014 .07c.29.43.31.42.67.28v.14c0-.32.25 0 .31-.32.5.11 1 .1 1.48.17-.09 0-.17.28-.07.27l.13-.19v.09a.28.28 0 00.12-.3c1.35 0 2.47.88 3.69 1.21.24.23.69.23 1 .3a4.38 4.38 0 002.39 1.57s-.44.69-.88.71zM22.89 51.35c-.16 0-.27.09-.47 0 .15-.01.33-.03.47 0z"/>
    <path class="cls-1" d="M20.75 53.82h-.1c-.02 0-.14-.09 0-.1s.03.07.1.1zM20.53 54.51a.34.34 0 01-.23-.3zM19.82 55.06c-.13 0-.2 0-.18-.06s.11 0 .18.06zM20.14 55.17s-.1.07-.19.08c.13.02-.05-.14.19-.08zM19.47 56.52s.11.13-.06.14c.12-.02-.15-.2.06-.14zM19.57 57.23v.05a.16.16 0 01-.18-.07zM18.58 70.47l-.19.17.19-.25v.08zM25.13 67.87c0-.1.08.12.09.14s-.02-.18-.09-.14zM27.77 66.68l-.02.01-.02-.3.04.29zM89.59 41.05c-.07-.12-.26.06-.12-.08.12.03.21.03.12.08zM89.23 73.89c-.76-.39 0-.91-.47-1.34 0 0 .41 0 .31-.1-.58-.42-.23-1.08.23-1.59h.12c.09-.09-.3-.21-.25-.32s.11 0 .22 0c-.24 0-.11-.19-.28-.24.09 0 .28 0 .38-.08l-.27-.06c-.64-.17 0-.4-.28-.63a.25.25 0 00.17 0c-.39-.36-.31-.81-.45-1.21a1.14 1.14 0 00.37 0 .44.44 0 01-.41-.25c.3-.05-.26-.19-.1-.31h.07c-.31-.1.17-.14-.19-.22l.23-.06c-.41 0 .21-.13 0-.21h-.08c-.1-.08.1-.11 0-.18-.1-.16.13-.25-.19-.24.25-.06.11.15.48.06a2.82 2.82 0 01-.26-1.57.75.75 0 01.29-.11c-.06 0-.06-.2-.22-.25 0 0 .17 0 .18-.06s-.35-.1-.21-.2a.62.62 0 00.31 0c-.25-.09-.21-.21-.29-.32a.34.34 0 00.19 0c-.28-.11.06-.21-.12-.31h.19c.22-.16-.39 0-.26-.19a.66.66 0 00.21 0c-.34-.13-.22-.34-.34-.47h.08c0-.14.06-.29-.08-.45.08 0 .45 0 .38-.13-.37 0-.15-.25-.57-.17.06-.12.2-.33.08-.41.14.06.45-.06.48 0l.23-.08c.15 0-.06.09.14.06 0-.05-.16-.21-.1-.26-.23-.1-.65-.19-.7-.35.14.08.41 0 .47 0l-.71-.23c0-.05.29 0 .2-.09a.6.6 0 01-.24 0s-.09-.22.27-.24c.15 0 .08.08.21 0s-.13-.11-.13-.21h.05c0-.06-.16-.19-.36-.12h.11c-.11 0-.27-.16-.27-.26a.89.89 0 00.26 0 1.14 1.14 0 01-.5-.42c-.17 0 .32.06.23.08.24-.19-.34-.4 0-.55h-.2c.05 0 .28-.09.18-.15.15 0 0-.07-.09-.13s.07 0 .09 0-.35-.43-.13-.62c-.1 0-.36-.13-.35-.17h.23c.14 0 0-.15.18-.16-.28-.1.23.37 0 .24.19 0-.37-.18-.06-.15 0-.09-.26-.18 0-.27 0 0 .32.08.31 0s-.11 0-.19-.14l-.01.35c-.23 0 0-.11-.22-.07.18 0-.11-.19.26-.17h.29c0-.06-.31-.09-.44-.14L88 58c-.45 0 0-.13-.31-.2.15-.12 0-.3.29-.35-.13-.09-.29-.18-.2-.28a.35.35 0 00.16.06c.13-.07 0-.08-.06-.14a2.37 2.37 0 00.42-.2 1.17 1.17 0 00-.52-.07c.44-.08-.28-.26.11-.36.07 0 .22.13.33.06.44-.08-.32-.17-.11-.3h-.37c.23-.06-.21-.2.17-.18-.14 0 .12-.15-.24-.14.3-.22-.18-.53.46-.66-.06 0 0-.11-.18-.1s.14.08 0 .1-.11 0-.16 0 .11-.12.4-.06c.22-.15-.6-.16-.46-.35.15 0 .2 0 .18-.06l-.25-.1c.06-.13.33-.07.58-.07 0-.07 0-.15-.21-.18l.31-.08c-.23.06-.15-.06-.21-.09h.06c.1 0 0-.08 0-.12a.32.32 0 00-.26.12c-.11 0-.09-.08-.22-.13.25 0 .18-.1.2-.16s-.21-.07-.21-.08 0-.1.2-.05-.12 0 0 .08.32 0 .16-.12-.49 0-.33-.1.16 0 .24.06l.13-.11H88c-.24 0-.08-.17-.34-.19 0-.06.16-.12.18-.17.13-.07 0-.15-.1-.21s0-.12-.14-.16c.17-.09.84 0 .56-.13 0-.09-.41-.14-.55-.11.15-.16-.21-.35.13-.5-.09 0-.14 0-.19-.05.09-.24-.27-.51.17-.7.1.07.23 0 .35 0-.2-.05.21-.06-.13-.09s-.3 0-.38.07a.28.28 0 01.08-.44.22.22 0 01-.21 0c.32 0 .37-.1.25-.18h-.19l.2-.05c-.06 0-.41 0-.22-.12a.71.71 0 00.21 0c-.16-.08-.43-.2-.27-.29l.29-.07a.28.28 0 00-.29 0c.18-.15.2-.25.44-.29a.8.8 0 01-.57-1h.14c.14-.08-.25-.05-.15-.1s.3-.06.47 0c.16-.11-.25-.15-.31-.23s.12.06-.13.05c-.06 0 .16-.16-.14-.18a1.36 1.36 0 01.45 0l-.14-.07c.34-.09.61.2 1 .11v-.07c.31-.06.34.18.45 0a1.31 1.31 0 00-.7-.07c-.07-.15-.69-.07-.66-.23s0 .12.28.1-.13-.16 0-.23a.55.55 0 01-.46 0c.14-.08.28.06.31-.06-.17 0-.3-.12-.41 0-.38-.05.1-.12-.19-.19.27 0 .62.12.75 0-.26 0-.35-.16-.73-.1a.68.68 0 01.43 0c.16-.07-.46-.18 0-.2h-.27l.3-.09c0-.06-.36-.2 0-.19 0 0 0-.17-.3-.11s.2.1-.17.15c.3-.06 0-.13-.14-.18h.15c-.06 0 0-.1-.19-.12a.33.33 0 00.23 0h-.23c-.12-.13.41 0 .34-.15l.18.09s.18-.06.11-.12l-.55-.24c-.09-.07.25 0 0-.1l.25.09c.07 0 .36-.06.35-.15s-.38-.15-.5-.06.13-.11.29-.07c-.08-.11-.23 0-.37-.08.15 0 .35-.15.56-.22L88 46c.28.09.22 0 .52 0 .05 0-.06-.09-.13-.13-.49.12-.67-.15-1.11-.12-.12-.17 1.08-.1.39-.28-.12 0-.45-.06-.33 0 0-.1-.44-.07-.26-.2.19.1.45-.09.72 0-.15 0-.12.08-.07.1s.44 0 .44-.1 0-.16-.28-.15 0 .11-.23.06c-.09-.13.3-.15-.15-.21 0 .09-.23.1-.4.1L87 45h.16c.13-.15-.3 0-.25-.19l.33-.07c.28 0-.13.22.33.19 0-.1-.21-.13-.09-.22s.05 0 .09.07.63-.07.27-.21c-.14-.07-.16 0-.34 0 0-.16-.22-.21-.25-.31.34 0 0-.18.38-.07-.2.05-.18.28.14.34s0 .12.35.16c0-.13.41-.12.67-.14 0 0-.09-.07-.13-.09a4.32 4.32 0 00-.5 0c.07-.14-.06-.28-.3-.35a.49.49 0 01.39 0 .65.65 0 010-.51c-.39.11-.09-.17-.42-.11a.7.7 0 01-.55.11h.26c-.22-.07.35-.1 0-.17.13.16.49 0 .8.06-.17-.11.22 0 .23-.1a1.12 1.12 0 01-.38-.37c.3-.15 0-.39 0-.53.15-.07.51 0 .57-.09s-.38.06-.22-.07h.07c-.08 0 .24-.25-.27-.29h.39s-.06 0-.1-.07h.32c.27-.09 0-.18 0-.27l-.22.06c-.18-.16 0-.26 0-.41h.22l-.13-.09c.21 0 .35-.06.17-.11l.54.24c-.13.06-.27-.07-.48 0s-.14.17.08.2c0-.06 0-.06-.11-.1.31 0 .3.06.51.1 0 0 .08-.06 0-.07.15.06.17.11.18.2s-.19 0-.28 0c.27 0 .36.1.28.21-.32.08.2.21.11.34a1.65 1.65 0 01-.6-.2c-.14.08 0 .09-.14.17a1.72 1.72 0 01.65.18h-.21c.11.09.41.1.35.22a2.11 2.11 0 00-.13.59h-.2c.43.09.16.3.35.42-.2.2.19.45-.16.55a1.79 1.79 0 01.23 1.06l-.3-.06c.22.07-.17 0-.12.11.23-.08.3.09.48.14-.23.16 0 .38.23.53H90c.38.15 0 .33 0 .51-.09 0-.28.06-.26.11a1.17 1.17 0 01.51.31.59.59 0 01-.21.39c.46.42.16.83.44 1.26h-.24c.5.41 0 .92.3 1.27h-.41c-.13.11.11.25.39.22-.12.11.2.28-.13.35-.08.11.18.14.24.23-.16.23-.12.31 0 .53v-.06h-.29c-.02 0-.11.29.37.21-.28.23.23.54-.15.76.13 0 .16 0 .25.06 0 .2-.27.41 0 .57-.06 0-.22-.05-.24 0s.18 0 .25.06c.25.33-.26.65-.2 1a3.88 3.88 0 01.16 1.57h-.09c.37.17-.39.39.17.53-.09 0 0 .15-.23.12.26.13-.25.37.08.57v-.05c-.22.19.08.37-.12.57a.34.34 0 00-.17-.07c-.18.08.41.2-.06.24h.22c-.18.45.12.94.22 1.41-.28.33-.79 0-.44.28h.08c.13.1-.53.16-.28.23s.16 0 .34 0c-.19.21-.45.25-.23.41h-.16c.43.19.2.41.7.57.08 1 .35 2.06.4 3.09a18.2 18.2 0 01-.15 3c-.4.24-.39.26-.23.52h-.14c.32 0 0 .19.34.21a7.13 7.13 0 000 1.13c0-.07-.3-.1-.28 0l.21.07h-.09a.34.34 0 00.32 0c.27 1-.39 2-.32 2.91-.13.23 0 .55.06.8a2.35 2.35 0 00-.5 2.15s-1.01.18-1.2-.13zM89.62 41.2c-.16 0-.25.11-.47 0a3.73 3.73 0 01.47 0z"/>
    <path class="cls-1" d="M87.92 43.47h-.09c-.02 0-.15 0-.07-.08s.09.07.16.08zM87.82 44.06a.34.34 0 01-.28-.21zM87.21 44.6h-.18a.38.38 0 01.18 0zM87.55 44.64s-.09.06-.17.09c.12-.01-.08-.11.17-.09zM87.11 45.82s.14.09 0 .11c.09-.03-.21-.14 0-.11zM87.33 46.37h-.19zM87.86 56.37l-.07-.06.14.01-.07.05zM87.84 60.75c.09.06-.14 0-.16 0s.18.07.16 0zM88.56 63.12l-.01-.02.3.01-.29.01zM102.9 38.12c-.23.06.11.26-.15.11.03-.12.08-.23.15-.11zM115.49 86.08c-.79-.72 0-1.72-.55-2.53 0-.09.41 0 .31-.2-.62-.77-.3-2 .13-3l.12.06c.09-.19-.31-.4-.26-.6.08 0 .11.06.22 0-.24 0-.12-.35-.3-.42.09-.08.28-.08.38-.18l-.27-.11c-.65-.29 0-.75-.31-1.17.06 0 .11.06.17 0a7 7 0 01-.51-2.28.7.7 0 00.38 0c-.29 0-.36-.27-.42-.47.29-.1-.28-.34-.12-.59h.07c-.31-.17.17-.26-.2-.4l.23-.11c-.41-.08.21-.26 0-.41h-.09c-.1-.14.1-.21 0-.34-.11-.3.11-.47-.21-.46.26-.11.13.29.5.12a8.91 8.91 0 01-.31-3c.13-.12.17-.19.29-.22-.07-.09-.06-.37-.23-.46 0 0 .17-.06.18-.11s-.35-.2-.21-.4a.32.32 0 00.31.08c-.25-.17-.21-.39-.29-.59 0 0 .08.08.18.07-.28-.22.06-.4-.12-.59l.19.07c.22-.3-.39-.09-.26-.35.06.06.14 0 .21.05-.34-.25-.22-.65-.34-.9a.13.13 0 00.08 0c0-.26.06-.55-.08-.84.08-.11.45 0 .38-.25-.37 0-.15-.49-.57-.32.06-.24.21-.63.08-.79.14.11.46-.12.49.09l.22-.16c.15 0-.05.16.14.11 0-.1-.16-.39-.09-.48-.23-.19-.65-.37-.7-.68.15.15.41-.07.48 0l-.71-.44c0-.1.29 0 .2-.16a.44.44 0 01-.24-.11s-.09-.42.28-.46c.14 0 .07.17.21.06 0-.19-.13-.2-.13-.39.06-.12-.15-.37-.35-.24 0 .09.22 0 .11.1a.51.51 0 01-.27-.5c.06.07.16.06.26.09a2 2 0 01-.48-.81c-.17 0 .32.11.22.15.25-.36-.32-.76 0-1h-.2c0-.17.28-.16.19-.27.14 0 0-.15-.09-.27s.07 0 .09.08a1.33 1.33 0 01-.1-1.19c-.1 0-.35-.25-.34-.33h.23c.14-.08 0-.29.19-.3-.27-.19.21.72 0 .46.2-.05-.35-.36 0-.29 0-.18-.25-.35 0-.51 0 0 .31.15.3 0s-.11-.07-.18-.28l-.08-.13c-.23 0 0-.21-.22-.13.19 0-.1-.37.27-.33l.29.05c0-.11-.3-.19-.43-.28a.49.49 0 01.14 0c-.45 0 0-.25-.29-.39.17-.22 0-.57.33-.66-.13-.18-.28-.35-.18-.54 0 0 0 .1.15.11s0-.15 0-.26.28-.24.44-.36c-.12-.18-.37-.14-.51-.16.44-.13-.26-.5.15-.67 0 .06.2.26.32.12.44-.13-.31-.33-.08-.57h-.37c.23-.1-.19-.38.18-.34-.12-.09.14-.28-.21-.28.32-.39-.12-1 .54-1.23-.06-.06 0-.2-.17-.19s.13.15 0 .18-.1-.07-.15-.08.12-.23.41-.08c.24-.27-.59-.34-.42-.7.14 0 .2 0 .19-.1l-.24-.22c.08-.23.35-.11.6-.1 0-.12 0-.28-.19-.35l.32-.13c-.23.1-.14-.11-.19-.17v.06c.11 0 .06-.17 0-.24s-.23.15-.28.22-.07-.17-.19-.26c.24.05.19-.19.22-.29s-.21-.15-.19-.18 0-.19.2-.08-.13.08 0 .15.32 0 .17-.21-.48 0-.31-.22a1.7 1.7 0 00.24.14l.14-.2h-.22.11c-.23-.09 0-.33-.31-.4 0-.11.17-.21.21-.31.14-.11.07-.28-.07-.4a.33.33 0 00-.12-.32c.18-.16.84 0 .58-.2 0-.17-.38-.31-.52-.25.18-.3-.15-.69.23-.94-.09 0-.15 0-.19-.13.14-.44-.17-1 .31-1.31.08.15.22 0 .35 0-.18-.13.22-.11-.11-.18s-.3 0-.4.08c-.07-.28 0-.7.19-.83-.1.07-.16 0-.21-.06.31.05.39-.14.29-.31h-.19l.21-.08c0-.06-.39-.11-.19-.24a.68.68 0 00.21 0c-.14-.17-.38-.43-.19-.58l.3-.1c0-.08-.18-.22-.28-.1l.24-.34c.07-.07.13-.07.26-.09-.56-.29-.58-.32-.51-.54l.16-.1c.17-.16-.28.17-.16.06s.35-.29.53-.38-.26.09-.33.11c-.23.18.13-.08-.15.14-.08.07.19-.25-.15.06.14-.14.39-.37.52-.48l-.16.1c.42-.49.69-.47 1.19-1 .37-.45.36-.07.52-.48a2.33 2.33 0 00-.8.67h-.06c-.3.22-.79.76-.86.75.14-.19.14-.06.38-.33s-.28.17-.25.08a2.84 2.84 0 01-.43.52c.07-.14.28-.31.22-.33a2.41 2.41 0 00-.35.46c-.3.42 0-.11-.19.22.14-.29.48-.69.47-.83a5.59 5.59 0 00-.48.81 2.75 2.75 0 01.23-.47c0-.16-.29.51-.11 0l-.1.28v-.3s-.17.39-.13 0c0 0-.11 0-.07.31s.07-.21 0 .17c0-.31-.06 0 0 .14v-.15a1.79 1.79 0 01-.06.2.2.2 0 000-.22v.24c-.23.14-.1-.41-.33-.31l.16-.2s-.14-.17-.25-.08-.07.48-.09.65-.09-.23-.19 0l.14-.27c0-.08-.15-.34-.33-.32s-.25.41-.06.51a.19.19 0 01-.17-.27c-.2.1.05.23-.11.38-.09-.13-.33-.31-.48-.51l.14-.37h-.12c.13-.3-.1-.22 0-.52-.08 0-.17.07-.24.15.28.46-.21.69-.1 1.12-.33.15-.3-1-.59-.34.07.11-.07.46.13.32-.21 0-.1.45-.36.29.16-.2-.23-.43 0-.72 0 .15.15.1.19.06s0-.44-.23-.43-.29.08-.25.3.19 0 .13.22c-.25.11-.32-.27-.4.18.16 0 .22.21.23.39l-.18.11v-.17c-.31-.1-.06.31-.36.29l-.16-.32c0-.29.43.1.35-.37-.19 0-.24.24-.43.13 0 0 .1-.06.13-.1s-.17-.62-.42-.25c-.13.15 0 .17 0 .34-.3.07-.39.25-.58.29 0-.34-.35 0-.15-.37.11.19.55.15.64-.18-.13-.4.24 0 .29-.37-.25 0-.26-.39-.31-.65-.07 0-.13.1-.17.14 0 .25.08.24.09.49a.64.64 0 00-.66.34c-.1-.11-.08-.36 0-.39a2 2 0 01-1 0c.21.4-.34.1-.19.43a.48.48 0 01.23.55c-.1 0 0-.17 0-.26-.12.22-.21-.34-.33 0 .29-.13 0-.48.09-.8-.21.18 0-.22-.2-.22a2 2 0 01-.7.39c-.3-.29-.75 0-1 0-.14-.16-.05-.51-.19-.57s.12.38-.13.22v-.07c-.08.08-.47-.25-.55.26L105 39s-.09.06-.13.1c0-.13-.06-.24 0-.32-.15-.27-.33 0-.5 0l.1.23c-.3.17-.49-.06-.78 0v-.22l-.18.12c0-.21-.1-.36-.2-.18l.47-.53c.11.14-.15.27-.08.49s.33.14.38-.07c-.1 0-.11 0-.19.1 0-.31.13-.3.21-.5 0 0-.13-.09-.14 0a.39.39 0 01.38-.17c-.11.12.06.19 0 .28 0-.27.18-.35.39-.27.15.32.41-.19.65-.1a1.25 1.25 0 01-.39.6c.16.14.18 0 .33.13.08-.2.14-.52.34-.64v.2c.18-.1.18-.4.41-.34a5.93 5.93 0 001.11.11v.2c.16-.43.56-.17.78-.37.39.18.83-.22 1 .12a6.35 6.35 0 012-.36l-.1.3c.11-.22.1.17.22.11-.16-.22.15-.31.22-.5.33.2.71-.08 1-.32v.2c.24-.41.6-.1 1-.08.05.07.13.26.23.22a.93.93 0 01.22-.33l.47-.27a2.88 2.88 0 011.07.06 11.12 11.12 0 012.91-.77 5.89 5.89 0 000 .84l-.28.3a3.42 3.42 0 010 1.78 7.16 7.16 0 00-.21 1.86c-.14 0-.26-.1-.39-.14-.16.23 0 .49.33.49-.15.19.13.54-.21.63-.1.2.15.28.18.46a1.45 1.45 0 00-.16 1v-.1c-.09 0-.26-.07-.3 0s-.17.54.33.44c-.33.4.12 1-.3 1.39.14 0 .15.09.24.14 0 .37-.35.74-.15 1.06-.08 0-.22-.12-.25 0s.17 0 .24.14c.18.63-.37 1.2-.35 1.76a16.18 16.18 0 01-.06 3h-.1c.35.34-.43.71.12 1-.1.07-.07.28-.25.21.25.27-.3.69 0 1.07v-.09c-.23.36 0 .7-.17 1.07 0 0-.06-.11-.16-.13-.19.14.39.38-.08.44 0 .08.23.07.22 0a7.61 7.61 0 00.11 2.64c-.3.63-.79 0-.46.53h.08c.13.2-.53.29-.29.43.29 0 .16.1.33.11-.2.38-.47.45-.25.76h-.15c.42.37.18.78.67 1.1 0 2 .29 3.88.34 5.8s.13 3.78-.11 5.72c-.39.46-.38.49-.21 1h-.14c.33 0 0 .35.35.4 0 .71 0 1.37.06 2.11 0-.11-.3-.17-.28 0l.21.14h-.09c0 .09.22.19.32.09.32 1.85-.29 3.69-.17 5.51a4 4 0 00.1 1.52 7.69 7.69 0 00-.37 4.07s-.79-.12-1-.7zM103.18 38.1c0 .17.2.26.06.48a2.74 2.74 0 01-.06-.48z"/>
    <path class="cls-1" d="M107.51 39.84c0-.05.06.06.08.09s-.11.15-.15.07.04-.09.07-.16zM108.64 39.9c0 .15-.25.27-.39.3zM109.72 40.45c.1.12.08.19 0 .19s-.02-.11 0-.19zM109.78 40.12c.08 0 .13.07.18.15.04-.12-.2.1-.18-.15zM112.1 40.37c.05 0 .16-.14.23 0-.07-.1-.25.22-.23 0zM113.14 40.05h.09c.09 0 0 .17 0 .19zM114.05 52.85l-.06-.12.14.03-.08.09zM113.74 61.19c.09.11-.14.07-.16.09s.18.04.16-.09zM114.4 65.68v-.03l.3.01-.3.02zM135.28 32.3c0-.24-.28 0-.06-.18.1.07.17.14.06.18zM132.61 95c-.8-.71-.1-1.75-.63-2.56 0-.09.42 0 .31-.21-.64-.77-.35-2.06.06-3.06l.12.06c.08-.19-.32-.4-.28-.6.08 0 .12.06.22 0-.24 0-.13-.36-.31-.43.09-.08.28-.09.38-.19l-.27-.1c-.66-.29 0-.77-.34-1.18.06 0 .11.06.17 0a7.11 7.11 0 01-.55-2.3.66.66 0 00.37 0c-.28 0-.36-.27-.43-.47.29-.1-.27-.35-.12-.59h.06c-.31-.16.17-.27-.2-.4l.22-.12c-.41-.07.21-.27 0-.41h-.08c-.1-.14.1-.22 0-.34-.11-.3.11-.48-.21-.46.25-.12.12.29.49.11a9.73 9.73 0 01-.36-3c.13-.12.16-.2.28-.22-.06-.1-.06-.38-.23-.47 0 0 .16-.07.18-.12s-.36-.19-.22-.39a.34.34 0 00.31.07c-.25-.17-.22-.4-.3-.6.05 0 .08.08.18.07-.28-.21 0-.4-.13-.59l.19.07c.22-.32-.39-.09-.26-.36.06.06.13 0 .2 0-.34-.25-.24-.66-.35-.91h.07c0-.27.06-.56-.1-.86.09-.11.46 0 .38-.26-.37 0-.16-.48-.57-.31.05-.25.18-.64.06-.8.14.11.45-.13.48.08l.23-.16c.15 0-.05.16.14.11 0-.11-.17-.41-.11-.5-.23-.19-.66-.36-.71-.66.15.14.41-.09.48 0l-.72-.43c0-.1.29 0 .19-.17-.09 0-.16-.06-.24-.1s-.09-.43.27-.48c.15 0 .08.17.21.06s-.13-.2-.14-.39h.05a.24.24 0 00-.36-.23c0 .09.22 0 .12.1a.5.5 0 01-.28-.5c.06.07.15.06.26.08a1.85 1.85 0 01-.5-.81c-.18 0 .31.11.22.15.24-.37-.35-.75 0-1.06h-.19c0-.17.27-.17.18-.28.15 0-.05-.14-.09-.26s.07 0 .08.07a1.39 1.39 0 01-.13-1.2c-.1 0-.36-.24-.35-.33h.23c.13-.08 0-.3.17-.31-.28-.19.24.72 0 .47.19-.07-.36-.36-.05-.3 0-.18-.27-.35-.05-.52 0 .05.32.15.3 0s-.11-.07-.18-.28l-.1-.13c-.22 0 0-.22-.22-.13.19 0-.11-.36.26-.33h.29c0-.11-.3-.18-.43-.26a.28.28 0 01.13 0c-.44 0 0-.26-.3-.39.15-.22 0-.57.29-.68-.13-.17-.29-.33-.19-.53 0 0 0 .09.15.11s0-.16-.06-.27.26-.25.42-.39c-.13-.17-.37-.12-.52-.13.44-.16-.27-.5.13-.69.06.06.21.25.32.11.44-.15-.32-.32-.11-.57l-.36.05c.23-.11-.21-.37.16-.34-.13-.09.13-.3-.23-.28.31-.41-.16-1 .48-1.27-.06-.06 0-.21-.18-.18s.14.14 0 .17-.11-.06-.15-.07.11-.23.4-.1c.22-.29-.6-.31-.45-.68.14 0 .2 0 .18-.11l-.25-.21c.06-.24.34-.13.59-.13 0-.13 0-.29-.21-.35l.31-.15c-.23.11-.15-.11-.21-.17l.06.06c.11 0 0-.17 0-.24s-.22.16-.27.24-.08-.17-.21-.25c.25 0 .18-.21.21-.31s-.22-.13-.21-.17 0-.19.2-.09-.12.08 0 .15.31-.06.16-.22-.49 0-.33-.2c.06.06.16.07.25.12l.13-.21h-.22.1c-.23-.06-.06-.32-.33-.38 0-.11.16-.22.19-.32.14-.12.05-.29-.09-.4a.35.35 0 00-.14-.33c.18-.16.85 0 .57-.23 0-.18-.4-.29-.54-.22.16-.31-.2-.68.16-1-.09 0-.15 0-.2-.12.1-.46-.23-1 .23-1.35.08.14.22 0 .35 0-.2-.12.21-.12-.13-.17s-.3 0-.39.11a.83.83 0 01.12-.85c-.1.07-.16 0-.22 0 .32 0 .38-.17.28-.33h-.2l.21-.09c-.06-.07-.41-.09-.21-.23a.71.71 0 00.21 0c-.15-.17-.41-.41-.24-.57l.29-.13c0-.08-.19-.21-.28-.08.19-.29.23-.48.48-.56a2.06 2.06 0 01-.46-1.89h.15c.15-.15-.25-.1-.14-.2.13.06.31-.1.47 0 .17-.22-.23-.32-.28-.47s.11.13-.13.08c-.07 0 .18-.31-.11-.37a.83.83 0 01.44.06l-.12-.15c.35-.14.57.44 1 .3v-.14c.31-.09.31.37.44.06-.13-.15-.54-.31-.68-.19 0-.3-.68-.2-.63-.51.18-.07 0 .25.27.21s-.11-.31 0-.43c-.13.14-.41 0-.45-.12.15-.14.26.13.31-.09-.16-.05-.26-.27-.4-.11-.37-.12.13-.22-.15-.38.28 0 .59.3.75.07-.26 0-.31-.35-.71-.26a.39.39 0 01.44 0c.17-.12-.43-.39.08-.38l-.26-.07.31-.15c0-.12-.31-.44.09-.38 0 0 0-.32-.27-.25s.17.23-.21.28c.32-.09 0-.26-.09-.37h.15c0-.07 0-.2-.16-.26a.18.18 0 00.23 0l-.22-.09c-.09-.26.41 0 .38-.25l.15.2s.2-.09.14-.22c-.21-.07-.45-.19-.61-.25s.25 0 .05-.19l.23.21a.36.36 0 00.38-.25c-.05-.12-.33-.34-.48-.18a.2.2 0 01.31-.1c0-.22-.24 0-.34-.21.15 0 .39-.24.61-.34l.33.23v-.12c.26.2.23 0 .51.09.06-.08 0-.19-.09-.28-.52.16-.61-.38-1.06-.38-.07-.35 1.09 0 .47-.49-.13 0-.43-.18-.34.05.08-.2-.41-.21-.19-.43.15.21.48-.12.69.19-.14 0-.14.12-.1.17s.43.09.47-.12 0-.31-.23-.32 0 .2-.24.07c0-.27.34-.25-.08-.43 0 .17-.26.16-.43.13l-.07-.21.16.07c.17-.29-.28-.15-.19-.44l.35-.07c.27.12-.2.4.27.43 0-.18-.17-.29 0-.45 0 .05 0 .1.07.15s.65 0 .35-.35c-.11-.17-.16-.07-.33-.11 0-.31-.15-.44-.13-.65.32.11.1-.34.4 0-.22.06-.29.51 0 .68.42 0-.11.23.28.37.06-.24.45-.15.71-.14 0-.06-.06-.15-.1-.2-.23-.07-.24 0-.49 0a.63.63 0 00-.17-.74c.14-.07.37 0 .37.12a2.11 2.11 0 01.25-1c-.43.11 0-.36-.36-.3a.49.49 0 01-.59.09c0-.1.17 0 .26 0-.18-.18.39-.12.08-.33.06.32.46.17.76.29-.13-.25.21.06.26-.14a2.09 2.09 0 01-.2-.79c.37-.22.2-.74.26-1 .19-.09.51.09.61 0s-.41 0-.18-.18h.06c-.05-.1.37-.39-.09-.61l.34.19c.05 0 0-.11-.05-.16.12 0 .25 0 .3.11.3-.08.06-.33.1-.51h-.25c-.09-.34.2-.46.21-.76l.21.07-.07-.2c.19.11.37 0 .23-.14l.38.59c-.17.08-.22-.21-.45-.2s-.23.27 0 .38c.06-.09 0-.11 0-.21.3.06.24.21.41.34 0 0 .12-.09 0-.14a.43.43 0 01.06.42c-.08-.14-.2 0-.27-.06.25.09.29.28.15.46-.34.06.08.44-.08.66a1.34 1.34 0 01-.47-.54c-.18.11 0 .17-.22.28.18.13.46.27.52.5h-.19c.05.21.34.28.22.5a7.09 7.09 0 00-.4 1.05h-.2c.38.27 0 .6.16.87-.28.33 0 .86-.37 1a6.84 6.84 0 01-.14 2l-.27-.17c.19.16-.18.06-.16.19.25-.11.27.22.43.34-.28.27-.09.72.08 1h-.21c.34.33 0 .62-.15 1-.09 0-.28.07-.27.18.3.23.26.33.43.63a1.85 1.85 0 01-.29.72c.37.83 0 1.59.21 2.41h-.25c.45.82-.08 1.75.14 2.44l-.4-.09c-.14.2.08.48.37.45-.14.2.17.53-.17.65-.09.21.17.27.22.45a1.52 1.52 0 00-.09 1v-.1c-.09-.05-.26-.06-.29 0s-.13.55.36.42c-.3.43.19 1-.2 1.43.13 0 .16.08.24.13 0 .38-.29.77-.07 1.08-.07.06-.22-.1-.24.06s.17 0 .25.12c.23.63-.29 1.25-.24 1.82a14.59 14.59 0 01.12 3H133c.37.33-.4.75.16 1-.09.07-.05.29-.23.23.26.26-.26.72.07 1.09l-.05-.09c-.22.37.07.7-.13 1.1 0 0-.07-.12-.17-.13-.18.15.41.37-.06.45 0 .08.24.06.22 0a8.55 8.55 0 00.22 2.69c-.28.65-.8 0-.44.55h.08c.13.19-.53.3-.28.44.29-.06.16.09.34.1-.19.39-.45.47-.23.78h-.15c.43.36.2.79.7 1.09.1 2 .39 4 .48 5.91-.06 1.94.21 3.83 0 5.81-.39.47-.38.51-.2 1h-.14c.33 0 0 .36.36.4a19.3 19.3 0 00.11 2.14c0-.11-.31-.16-.29 0l.22.14h-.09c.05.1.22.2.32.09.35 1.87-.22 3.75-.05 5.59a3.66 3.66 0 00.14 1.53 7.72 7.72 0 00-.25 4.14s-.82.02-1.05-.53zM135.22 32.58c-.17 0-.31.12-.48-.08a2.29 2.29 0 01.48.08z"/>
    <path class="cls-1" d="M132.36 36.35s-.07 0-.1.06-.13-.14 0-.17.04.07.1.11zM132 37.45c-.14-.05-.2-.31-.18-.46zM131.21 38.38c-.14.07-.2 0-.18-.09s.11.06.18.09zM131.52 38.52c0 .09-.11.12-.2.15.12.02-.04-.22.2-.15zM130.7 40.75c0 .06.1.2-.07.23.12-.04-.14-.3.07-.23zM130.75 41.86v.09a.13.13 0 01-.18-.08zM130.31 61.28l-.07-.11.14.02-.07.09zM130.3 69.73c.09.12-.14.09-.16.1s.18.04.16-.1zM131.08 74.28l-.01-.03h.3l-.29.03zM91.59 110.5c-.15 0 0 .27-.13.07.06-.1.12-.17.13-.07zM107.42 140.5c-.85.22-.63-.7-1.28-.76 0 0 .34-.24.19-.27-.74 0-.87-.8-.75-1.48h.12c0-.12-.38 0-.38-.15s.11 0 .19-.1c-.22.1-.19-.11-.37-.06.06-.08.22-.17.28-.27l-.26.08c-.64.16-.15-.38-.55-.43.06 0 .11 0 .15-.07-.52-.15-.66-.62-1-.94a1.19 1.19 0 00.35-.15.43.43 0 01-.49-.07c.25-.17-.32-.08-.22-.27h.06c-.32 0 .11-.21-.26-.14l.19-.15c-.4.12.14-.21-.09-.21h-.07c-.13 0 0-.15 0-.19-.16-.12 0-.29-.28-.18.22-.14.17.11.48-.11a2.73 2.73 0 01-.81-1.47c.1-.1.12-.15.24-.21-.08 0-.13-.17-.3-.17 0 0 .15-.08.15-.12s-.36 0-.26-.14a.59.59 0 00.31-.05c-.27 0-.27-.15-.38-.23a.45.45 0 00.19 0c-.3 0 0-.23-.21-.28h.19c.17-.23-.38.06-.3-.12h.21c-.37 0-.32-.29-.47-.39h.07c-.08-.14 0-.32-.2-.44.06-.08.44-.1.33-.23-.36.1-.22-.22-.6 0 0-.15.1-.39-.05-.45.16 0 .43-.18.48-.08l.2-.14c.15 0 0 .1.15 0 0-.05-.21-.17-.17-.23-.24 0-.68 0-.77-.18.16 0 .39-.15.46-.11l-.75-.05s.28-.09.17-.14a.65.65 0 01-.24 0s-.15-.2.2-.32c.13-.06.09.07.2 0s-.15-.08-.18-.17h.05c0-.08-.2-.16-.38 0 0 0 .21-.07.12 0s-.3-.1-.33-.2a.84.84 0 00.26 0 1.25 1.25 0 01-.59-.31h.24c.18-.25-.44-.32-.13-.56 0 0-.24.07-.19.06s.24-.16.13-.2c.15 0-.06-.06-.12-.11s.07 0 .1 0c-.15-.05-.45-.35-.3-.6-.09 0-.38 0-.38-.09h.23c.12-.07-.06-.15.13-.2-.29 0 .33.32.08.24.18-.08-.4-.1-.09-.14 0-.1-.3-.12-.11-.26 0 0 .32 0 .29-.08s-.12 0-.22-.1h-.11c-.21 0 0-.13-.23 0 .18-.06-.16-.16.21-.24h.28-.45a.48.48 0 01.12 0c-.43.1 0-.15-.35-.13.12-.16-.06-.3.19-.43-.16-.06-.33-.1-.27-.22a.26.26 0 00.16 0c.11-.1 0-.08-.09-.12.07 0 .21-.2.35-.31-.16-.06-.38 0-.52.07.4-.2-.34-.18 0-.39.07 0 .25.07.33 0 .4-.2-.36-.08-.19-.27l-.35.14c.2-.12-.25-.14.11-.23-.14 0 .07-.19-.27-.07.22-.3-.33-.47.24-.79-.07 0 0-.1-.21 0s.16 0 0 .09-.12 0-.16 0 .06-.15.36-.18c.16-.22-.62 0-.55-.2.14 0 .19-.06.15-.11h-.27c0-.13.29-.17.53-.25-.06 0-.08-.14-.26-.11l.27-.18c-.2.13-.17 0-.23 0H99c.1 0 0-.1 0-.13a.35.35 0 00-.2.21h-.25c.24-.07.13-.16.13-.22s-.23 0-.23 0 0-.11.17-.12-.1.09 0 .08.29-.14.11-.16-.45.18-.35 0a1.21 1.21 0 00.25 0l.08-.15-.21.08h.1c-.23 0-.13-.14-.38-.07 0 0 .1-.17.11-.23.1-.11 0-.16-.18-.16s-.06-.1-.2-.1c.12-.14.77-.33.47-.32 0-.09-.43 0-.55.1.08-.21-.32-.25-.07-.52h-.2c0-.25-.45-.35-.13-.71.11 0 .2-.09.32-.14-.21 0 .16-.15-.16 0s-.27.13-.32.22a.28.28 0 01-.11-.43.24.24 0 01-.21.08c.3-.13.29-.25.16-.27l-.19.07.16-.13c-.07 0-.38.15-.25 0a.93.93 0 00.18-.12c-.18 0-.47 0-.37-.13l.23-.2s-.23 0-.27.1c.08-.21.05-.31.24-.47a.82.82 0 01-1-.52l.13-.07c.07-.14-.24.1-.18 0s.22-.22.4-.25-.3 0-.39 0 .14 0-.08.1c-.06 0 0-.21-.21-.07a1.33 1.33 0 01.38-.23h-.16c.24-.26.62-.16.92-.46h-.07c.22-.22.39 0 .38-.24a1.19 1.19 0 00-.62.32c-.15-.09-.62.32-.68.17.12-.13.1.09.28-.07s-.19-.06-.16-.16c0 .12-.32.24-.39.23s.25-.11.21-.22c-.15.08-.31.07-.36.2-.33.19 0-.15-.25 0 .19-.18.57-.26.61-.44-.2.17-.38.08-.65.36a.65.65 0 01.34-.27c.09-.15-.48.14-.08-.18l-.22.14.18-.25s-.4.06-.08-.18c0 0-.11-.11-.3.1s.22 0-.05.22c.21-.24-.1-.08-.21 0l.12-.1c-.07 0-.09-.06-.23 0a.29.29 0 00.17-.15l-.2.13c-.16 0 .31-.28.18-.33h.2s.1-.16 0-.15l-.54.34c-.12 0 .16-.17 0-.08l.25-.1c.07 0 .24-.27.18-.34s-.38.14-.42.28c0 0 0-.16.17-.23-.11 0-.16.16-.31.18.08-.12.17-.34.27-.52l.33-.18c.27-.14.14-.18.39-.35 0-.06-.11 0-.19 0-.27.42-.58.35-.88.68-.2 0 .71-.81.09-.45-.06.1-.36.27-.2.26 0-.11-.36.26-.31.05s.25-.38.53-.48c-.11.1 0 .13 0 .12s.33-.31.25-.39-.14-.07-.29.1.08 0-.13.2c-.14 0 .11-.31-.24 0 .08 0-.09.23-.21.36h-.13l.12-.11c0-.19-.24.19-.31.07l.18-.29c.22-.18.07.23.37-.13-.06-.07-.24.08-.22-.06h.11s.38-.51 0-.33c-.14.06-.12.11-.24.24-.14-.06-.29 0-.38 0 .24-.25-.1-.13.2-.33-.09.18.08.31.33.1s0 .12.35-.16c-.09-.09.18-.38.34-.59h-.16c-.17.17-.13.2-.3.39-.06-.14-.25-.13-.45 0 0-.13.21-.31.26-.29a.7.7 0 01-.37-.33c-.16.37-.19 0-.34.27a.82.82 0 01-.25.51s.11-.14.14-.22c-.18.14.13-.34-.12-.1.19 0 .31-.37.52-.61-.19.08.14-.18 0-.24a1.19 1.19 0 01-.52.09c0-.34-.32-.21-.44-.27 0-.17.25-.45.21-.54s-.13.36-.17.15c-.08 0-.1-.34-.38.08l.22-.31c0-.05-.07 0-.1 0s.08-.22.16-.27c0-.28-.18 0-.27-.08v.22c-.23.09-.22-.15-.39-.15l.1-.2-.14.08c.11-.18.09-.35 0-.2l.45-.39c0 .15-.18.21-.24.43s.11.19.23 0h-.14c.12-.28.19-.24.32-.4 0 0 0-.11-.08 0a.25.25 0 01.29-.07c-.12.08-.06.19-.12.26.13-.24.26-.28.33-.15-.08.32.3 0 .38.1a1.58 1.58 0 01-.49.41c0 .17.09.05.1.21.14-.15.32-.41.49-.45l-.1.17c.14 0 .3-.28.39-.16a5.16 5.16 0 00.48.47l-.12.17c.34-.29.37.07.59 0 .07.29.52.17.38.51a1.8 1.8 0 011 .64l-.26.16c.21-.1-.09.15 0 .17.11-.22.29-.14.46-.23 0 .3.32.29.58.29l-.15.14c.4-.12.28.25.36.45s-.17.22-.12.26a1.15 1.15 0 01.62-.06.75.75 0 01.09.49c.65.1.68.66 1.16.92l-.18.15c.69.13.56.87 1 1.08l-.38.16c-.05.17.23.19.47 0 0 .17.32.19 0 .41 0 .15.24.06.34.13a.54.54 0 00.22.54V118c-.1 0-.25.09-.25.15s0 .34.43.06c-.15.35.46.45.21.83.11-.07.16 0 .25 0 .09.21-.07.53.2.61-.05.06-.23 0-.21.12s.16-.06.26 0c.37.25 0 .77.19 1.05a4.43 4.43 0 01.71 1.59h-.1c.41.07-.24.52.34.5-.08.07 0 .17-.18.2.29.06-.12.46.25.57h-.06c-.16.26.18.37.05.63a.34.34 0 00-.19 0c-.15.13.46.09 0 .26h.22c0 .51.36.93.59 1.39-.19.42-.76.22-.36.4-.08.05.18 0 .09 0 .15.08-.47.3-.21.31s.17 0 .34 0c-.13.26-.37.36-.12.47h-.15c.47.09.3.37.82.41.35 1 .88 2 1.22 3 .19 1 .69 1.9.8 2.94-.3.36-.28.38 0 .57h-.13c.31-.1.09.16.4.07a5.28 5.28 0 00.45 1c-.06 0-.32 0-.26.09h.22-.08a.36.36 0 00.31-.09c.63.74.5 1.83 1.06 2.57 0 .25.29.43.48.58a3.54 3.54 0 00.21 1.12 1.35 1.35 0 00.72.73s-.57.47-.93.37zM91.75 110.54c0 .16 0 .29-.15.45a3.39 3.39 0 01.15-.45z"/>
    <path class="cls-1" d="M92.93 113.18v.09c0 .02-.13.1-.1 0s.05-.04.1-.09zM93.32 113.59a.39.39 0 01-.33.1 2.07 2.07 0 01.33-.1zM93.3 114.38c0 .12-.1.16-.14.12a.75.75 0 01.14-.12zM93.55 114.16v.17c.04-.09-.17 0 0-.17zM94 115.22s.15 0 0 .1c.15-.1-.14.03 0-.1zM94.53 115.46a.21.21 0 01-.16.1zM99.33 124.08l-.08-.03.14-.04-.06.07zM100.48 128.52c.11 0-.12.08-.14.09s.18-.02.14-.09zM101.82 130.76l-.01-.01.29-.08-.28.09zM102.11 128.88v.11c0-.14-.01-.21 0-.11zM111.81 127.81c.12.76-.27.07-.25.58 0 0-.11-.4-.12-.3 0 .61-.25.32-.52-.07v-.12c-.05-.07 0 .31 0 .27a1.15 1.15 0 00-.06-.21c.06.23 0 .12 0 .29 0-.09-.08-.27-.12-.36l.05.26c.12.63-.13 0-.11.32a.94.94 0 000-.16c0 .4-.15.37-.24.54a1.66 1.66 0 00-.09-.37c.07.28 0 .36 0 .42-.08-.28 0 .27-.07.12V129c0 .3-.08-.16 0 .2l-.07-.22c.08.4-.09-.2-.06 0v.08c0 .1-.06-.09-.07 0 0 .12-.1-.1 0 .21-.07-.24 0-.12-.09-.48-.08.36-.25.33-.41.37 0-.12-.06-.16-.09-.27 0 .06-.05.06 0 .23a.55.55 0 00-.05-.17v.21a2.32 2.32 0 000-.3.43.43 0 010 .3.73.73 0 000-.18c0 .28-.08 0-.07.14v-.19c-.09-.21.07.38 0 .26a1.62 1.62 0 000-.2c0 .33-.06.24-.08.36v-.08c0 .05-.1 0-.12.11 0-.08-.08-.44-.11-.37.07.36 0 .16.05.57-.05 0-.14-.18-.14 0a3 3 0 01-.07-.48l-.06-.21v-.14s0 .17-.06.11a2.83 2.83 0 010 .71c0-.15-.08-.4-.07-.47v.71s0-.29-.06-.19a1.06 1.06 0 010 .24s-.05.1-.12-.26v-.2.67a1.58 1.58 0 000-.26 1.58 1.58 0 010 .52v-.23c-.09-.23-.07.36-.17 0a1.81 1.81 0 010 .19s-.06-.26-.07-.17V130.13c0 .13-.08.37-.17.16a1.17 1.17 0 010 .35v-.22c0-.14 0 0-.08-.17 0 .28.09-.25.07 0v.06s0 .27-.07.06a1.08 1.08 0 000-.3v.51c0-.19 0 .12-.09-.25v-.29a3.56 3.56 0 000 .44v-.13c.05.44 0 0 0 .31-.06-.15-.1 0-.15-.28 0 .14 0 .3-.06.21a.68.68 0 000-.15v.06a3.78 3.78 0 00-.11-.4 3 3 0 000 .51c-.08-.43-.05.29-.13-.1a.72.72 0 000-.32c-.07-.44 0 .33-.08.12v.36c0-.22 0 .22-.07-.15 0 .13-.06-.12 0 .24-.1-.29-.15.19-.25-.44v.19c0 .19 0-.15 0 0a1.1 1.1 0 000 .16.93.93 0 01-.06-.4c-.07-.22 0 .6-.06.47s0-.2 0-.18v.26a3 3 0 01-.08-.58v.22-.31.21-.06c0-.1 0 0 0 0a.69.69 0 00.07.25v.22c0-.24 0-.17-.06-.19s0 .22 0 .21v-.2c0-.2 0 .12 0 0v-.15V130.52v-.12.22-.1.34s0-.16-.07-.18v.11-.05.15c0-.16-.07-.83-.08-.55a2.06 2.06 0 000 .55c-.06-.15-.1.22-.17-.12a1.31 1.31 0 010 .2c-.08-.08-.15.27-.23-.16v-.35.14a1.43 1.43 0 000 .38c0 .11-.11.11-.14-.08a.8.8 0 010 .22c0-.32-.05-.37-.07-.25v.19-.2.22-.2c0 .16 0 .43-.08.27v-.29a.73.73 0 000 .29 1.38 1.38 0 01-.12-.44c0 .61-.18.64-.28.6v-.15V130.84c0-.17 0 .26-.06.33s0-.13 0 .12v-.31-.86-.44a5.3 5.3 0 000 .69v.39c0-.28 0 .13-.06 0a2.34 2.34 0 010 .46v-.31a1.39 1.39 0 000 .41c0 .38 0-.1-.06.2a5.68 5.68 0 000-.76v.74a2.69 2.69 0 010-.44c0-.16 0 .47-.06 0v.27-.3s-.05.36-.06 0v.62-.16a.53.53 0 000 .19.87.87 0 000-.23V131.16v-.1.63c0 .1 0-.24 0 0v-.26-.34a1.61 1.61 0 000 .5.77.77 0 010-.29v.37l-.07-.55v-.36-.52V131.48c-.06.12 0-1.07-.09-.38v.32c0-.13 0 .45-.06.26s0-.44 0-.71v.07a1.9 1.9 0 000-.44v.51c0 .09 0-.3-.07.15v.5-.16c0-.13 0 .3-.06.25v-.33c0-.28.07.13.06-.34 0 0 0 .22-.07.1v-.09s0-.63-.06-.27a1.23 1.23 0 000 .34c-.06 0-.07.23-.11.25v-.38c0 .2.09.18.11-.14s0 .05 0-.35a2.54 2.54 0 010-.67v.63c0-.07-.09.06-.12.3a2.21 2.21 0 010-.39c0 .08-.1 0-.15 0 0 .4-.06.09 0 .42a2.4 2.4 0 010 .56 1.11 1.11 0 010-.26c0 .21 0-.35-.06 0a4.26 4.26 0 000-.8v-.22a1.43 1.43 0 01-.12.37c0-.29-.12 0-.17 0v-.57.22-.07c0 .08-.07-.24-.1.26v-.38.09a2.88 2.88 0 010-.32c0-.26-.06 0-.09.05v.23c0 .18-.08-.05-.13 0v-.22V129.82l.09-.54v.49c0 .22 0 .13.06-.08v.1a4.14 4.14 0 010-.5s0-.08 0 0c0-.15 0-.18.07-.18a1.38 1.38 0 000 .28c0-.28 0-.36.07-.28 0 .31.07-.2.11-.11 0 .27-.06.49-.08.6s0 0 0 .14a4.79 4.79 0 01.08-.65V129c0-.11 0-.41.08-.35a.27.27 0 00.17.13v.2c0-.43.09-.16.13-.35.06.2.14-.19.16.16.11-.15.21-.3.32-.23v.42a2.31 2.31 0 010-.49c.05.23.11 0 .16-.23v.21c0-.38.1 0 .15 0s0 .28 0 .25a2.36 2.36 0 01.08-.51s.08.08.12.21c.11-.46.24-.17.35-.45v.23c.1-.51.26-.05.36-.32v.41c0 .12.07-.11.05-.4 0 .12.07-.2.11.13v-.24c.08.15.1.11.15 0a1.7 1.7 0 000 .28c0-.11.09.11 0-.37.09.27.14-.24.23.13a1 1 0 010-.25c.05 0 .13.26.16 0V127.56c.07-.26.21.24.29.17.12-.27.29-.16.43-.21v.09c0-.37.15.37.13-.19 0 .09 0 0 .06.23 0-.27.13.23.15-.11v.06c.08.2.1-.1.18.09a.92.92 0 000 .17c0 .19 0-.41.08 0a.78.78 0 000-.22c.15.17.25-.15.37-.27.14.26.12.78.14.42v-.08c0-.13.12.51.1.27a1.81 1.81 0 010-.34c.09.18.14.44.15.21v.15c0-.43.09-.21.06-.71.28-.14.52-.45.79-.56s.52-.24.85 0c.16.37.16.36.2.18a.58.58 0 000 .14c-.07-.32 0 0 0-.35.12 0 .19-.07.3-.1s0 .3.06.28v-.21.09a.77.77 0 00-.06-.31c.19-.35.62.22.86.07.1.11.15 0 .2-.12.32.36.61.64.72.28a5.53 5.53 0 01-1.44 1.13zM102.16 128.84a2.64 2.64 0 010 .48zM102.8 130.55v.16a.58.58 0 000-.16zM103 130.65a.43.43 0 01-.07.28zM103.15 131.26v0zM103.17 130.92a.45.45 0 010 .17c.02-.09-.01.08 0-.17zM103.54 131.35s0-.13 0 0c.03-.08 0 .21 0 0zM103.72 131.13a.38.38 0 010 .19z"/>
    <path class="cls-1" d="M106.85 130.35l-.01.08-.01-.15.02.07zM108.22 130.16v.15c0 .02.02-.17 0-.15zM108.82 129.32l-.06-.29.06.29zM112.59 101.83c-.09-.15-.24.12-.13-.09.12.01.22.03.13.09zM128.71 140.42c-.91.08-.72-.93-1.45-1.07-.06 0 .35-.24.17-.3-.8-.07-1-1-1-1.78h.12c0-.15-.41-.05-.44-.19s.11 0 .18-.12c-.21.11-.23-.13-.4-.07 0-.1.2-.2.24-.31l-.26.09c-.64.18-.25-.46-.68-.51a.28.28 0 00.15-.08c-.58-.16-.84-.69-1.25-1a1.22 1.22 0 00.32-.2.44.44 0 01-.53-.05c.22-.21-.35-.06-.3-.28h.06c-.32.06.06-.24-.3-.13l.15-.19c-.38.17.09-.26-.14-.24l-.07.05c-.14 0 0-.18-.09-.21-.2-.11-.06-.33-.33-.16.18-.2.2.1.46-.19a3.91 3.91 0 01-1.28-1.61.78.78 0 01.17-.27c-.08 0-.17-.19-.35-.16 0 0 .12-.12.12-.16s-.37.06-.31-.13a.42.42 0 00.29-.11c-.27 0-.32-.13-.46-.21a.29.29 0 00.19 0c-.32 0-.08-.27-.3-.3h.18c.1-.29-.37.13-.34-.09.07 0 .13 0 .2-.07-.38 0-.41-.28-.59-.38a.15.15 0 00.07 0c-.12-.14-.12-.36-.34-.47 0-.11.41-.19.26-.33-.33.18-.29-.23-.61.07 0-.18 0-.47-.19-.51.16 0 .36-.28.46-.18l.15-.19c.14-.06 0 .12.16 0 0 0-.27-.17-.25-.25-.26 0-.7.08-.83-.09.17 0 .34-.23.43-.2l-.77.06c0-.06.26-.15.13-.19a.53.53 0 01-.24 0s-.21-.22.1-.41c.12-.09.12.07.2-.06s-.17-.06-.23-.17c0-.1-.25-.15-.39 0 0 .06.19-.12.13 0a.34.34 0 01-.4-.19c.08 0 .16 0 .26-.06a1.37 1.37 0 01-.69-.28c-.16.07.32-.07.25 0 .11-.32-.54-.31-.31-.65 0 0-.21.12-.17.1s.2-.22.09-.25c.13-.07-.09-.07-.16-.13s.06 0 .1 0c-.16-.05-.55-.37-.46-.69-.09 0-.39 0-.41-.06l.22-.07c.11-.11-.1-.17.08-.26-.31 0 .41.35.15.28.15-.12-.43-.07-.13-.17-.06-.1-.34-.1-.19-.29 0 0 .33 0 .27-.12s-.12 0-.24-.1h-.12c-.21.08 0-.15-.24 0 .16-.09-.2-.18.14-.31l.28-.09c0-.06-.33 0-.47 0a.35.35 0 01.11-.08c-.41.17 0-.17-.39-.12.08-.2-.13-.37.09-.54-.16-.06-.35-.1-.32-.26a.23.23 0 00.17 0c.09-.13 0-.1-.12-.15.07 0 .17-.26.29-.4-.17-.06-.38.07-.52.11.37-.26-.39-.2-.07-.48.07 0 .27.08.33 0 .37-.26-.38-.08-.25-.32l-.32.18c.18-.16-.3-.16.06-.28-.15 0 0-.24-.29-.09.17-.37-.42-.59.12-1-.07 0 0-.13-.22-.05s.17 0 0 .11-.11 0-.16 0 0-.18.35-.21c.14-.26-.64 0-.59-.26.14 0 .18-.08.14-.14h-.29c0-.18.28-.21.52-.29-.07-.07-.1-.17-.29-.15l.26-.2c-.19.15-.16 0-.24 0h.08c.09 0 0-.12 0-.16a.34.34 0 00-.19.25c-.12 0-.12-.08-.26-.09.24-.06.11-.19.11-.26s-.23 0-.23 0 0-.13.16-.13-.09.1 0 .1.28-.14.09-.19-.45.18-.36 0a1.17 1.17 0 00.26 0l.07-.17-.21.06a.34.34 0 01.1 0c-.24 0-.14-.19-.4-.14 0-.06.1-.19.1-.27.1-.12 0-.2-.18-.22s-.06-.14-.21-.15c.13-.17.79-.31.48-.34 0-.11-.44 0-.56 0 .07-.25-.35-.37-.08-.67h-.22c0-.32-.46-.55-.11-.92.11.06.21-.06.33-.1-.21 0 .17-.15-.16-.07s-.29.08-.34.19a.43.43 0 01-.09-.58.17.17 0 01-.21 0c.31-.08.32-.23.18-.3h-.19l.17-.12c-.07 0-.41.08-.25-.08a.56.56 0 00.19-.09c-.19-.06-.49-.13-.37-.29l.25-.17s-.23-.07-.29 0c.11-.25.1-.38.31-.51a1.11 1.11 0 01-.89-1h.14c.11-.14-.26 0-.18-.08s.27-.16.46-.12c.11-.19-.29-.13-.38-.21s.14 0-.11.09c-.07 0 .1-.25-.19-.2a1 1 0 01.43-.1l-.16-.06c.3-.19.66.11 1-.12l-.07-.07c.28-.16.39.13.44-.1a.9.9 0 00-.69.09c-.13-.17-.7.08-.73-.13.15-.1.08.15.31.05s-.18-.16-.12-.26c-.08.12-.39.11-.46.06.11-.14.29 0 .28-.15-.17 0-.33-.09-.41 0-.39 0 .06-.18-.25-.19.25-.11.64 0 .73-.19-.24.09-.39-.12-.74.06a.54.54 0 01.42-.13c.13-.13-.52-.11 0-.26h-.27l.26-.18c0-.09-.41-.18 0-.27 0 0-.07-.2-.32-.07s.23.09-.12.24c.28-.15-.08-.16-.19-.2h.15c-.07 0-.06-.13-.23-.11a.26.26 0 00.22-.07h-.23c-.15-.14.39-.13.29-.27l.2.07s.16-.12.07-.17h-.64c-.12-.07.22-.09 0-.13h.27c.08 0 .33-.15.3-.27s-.42-.11-.5 0c0-.06.09-.17.25-.16-.1-.12-.22.07-.38 0 .13-.08.3-.27.48-.4h.38v-.08c.31 0 .2-.1.51-.11 0-.06-.08-.1-.17-.14-.43.26-.69 0-1.11.1-.16-.2 1-.36.3-.45-.11.06-.46 0-.31.14 0-.15-.45 0-.31-.2.21.08.41-.22.71-.1-.15 0-.09.11 0 .13s.43-.08.4-.22-.09-.19-.31-.12 0 .12-.21.12c-.12-.16.25-.26-.2-.24 0 .1-.2.18-.37.21l-.12-.1h.16c.08-.23-.31 0-.3-.21l.31-.16c.29 0-.07.32.38.19 0-.13-.25-.13-.15-.27a1.05 1.05 0 00.11.07s.6-.22.21-.33c-.16-.06-.17 0-.34 0-.09-.19-.27-.22-.33-.35.34 0 0-.24.36-.16-.18.11-.11.4.23.41.38-.15 0 .17.38.14 0-.17.37-.24.62-.31 0 0-.11-.07-.15-.09-.25 0-.23.08-.48.13 0-.19-.14-.34-.39-.39.11-.09.35-.11.39 0a1 1 0 01-.09-.65c-.37.2-.14-.22-.45-.07a.58.58 0 01-.51.25c0-.08.17 0 .25-.08-.23 0 .32-.2 0-.22.17.18.49 0 .8-.07-.2-.11.22 0 .19-.17a1.42 1.42 0 01-.46-.41c.26-.25-.07-.5-.11-.68.14-.12.5-.11.54-.22s-.36.15-.23 0h.08c-.09 0 .18-.35-.33-.33h.41s-.06-.06-.11-.08c.13 0 .23-.07.32 0 .25-.15-.08-.22-.1-.34l-.22.11c-.2-.17 0-.34-.11-.52h.22l-.15-.09c.22 0 .34-.13.15-.17l.59.22c-.12.1-.28 0-.49 0s-.1.24.12.23c0-.07 0-.06-.12-.1.3-.07.3 0 .51.05 0 0 .07-.1 0-.09.16 0 .2.12.22.23-.13-.06-.18.07-.27.06.27 0 .37.06.32.22-.3.15.24.24.18.42a1.69 1.69 0 01-.64-.16c-.12.12 0 .11-.1.24.21 0 .53 0 .68.12h-.2c.12.11.41.06.38.22a2.43 2.43 0 000 .77h-.2c.45 0 .23.35.45.47-.14.29.3.53 0 .72a3 3 0 01.49 1.29h-.31c.23 0-.15.09-.09.17.21-.15.33 0 .52.07-.18.26.12.48.37.62h-.2c.41.1.14.4.13.65-.07 0-.25.13-.21.19.35.06.34.13.58.27a.91.91 0 01-.09.54c.58.4.43 1 .83 1.44l-.22.1c.62.38.34 1.12.73 1.48l-.41.07c-.08.17.2.28.46.17-.07.17.29.28 0 .46 0 .16.23.11.31.21a.7.7 0 00.15.65v-.07c-.1 0-.26 0-.27.12s0 .39.44.15c-.19.36.43.57.15 1 .12-.07.17 0 .26 0 .09.24-.09.58.19.7 0 .06-.23 0-.21.12s.16-.06.26 0c.36.31 0 .88.2 1.21a6.34 6.34 0 01.85 1.81h-.09c.42.07-.18.61.41.56-.07.08 0 .2-.16.23.31.06 0 .53.35.64h-.07c-.11.31.25.4.17.72a.29.29 0 00-.19 0c-.14.16.47.06.05.3 0 0 .24-.06.21-.09 0 .61.58 1 .91 1.55-.08.51-.71.35-.25.52-.07.06.17-.06.09 0 .17.06-.4.4-.14.38s.17 0 .33-.08c-.06.32-.28.47 0 .57h-.15c.49 0 .41.39 1 .37.65 1.16 1.46 2.18 2.13 3.28.51 1.18 1.34 2.14 1.77 3.4-.18.46-.16.48.16.68-.07 0-.09 0-.13.06.29-.16.15.18.43 0a10.93 10.93 0 00.78 1.18c-.07-.05-.32.07-.25.13h.23l-.07.06a.26.26 0 00.3-.12c.93.87 1.05 2.26 1.85 3.19.06.32.4.57.64.79a3.54 3.54 0 001.28 2.44s-.82.27-1.22.07zM112.65 102c-.15.06-.23.18-.46.13a2.92 2.92 0 01.46-.13z"/>
    <path class="cls-1" d="M111.46 105.21c.05 0 0 .06-.08.07s-.16 0-.08-.09.09.02.16.02zM111.51 106a.39.39 0 01-.33-.22zM111.05 106.81c-.11.08-.17.08-.19 0a.4.4 0 01.19 0zM111.39 106.79c0 .06-.07.1-.14.15.12-.03-.1-.12.14-.15zM111.29 108.41s.16.08 0 .15c.11-.06-.21-.14 0-.15zM111.67 109.07v.06a.16.16 0 01-.19 0zM116.11 121.47l-.09-.05.14-.04-.05.09zM118.43 126.73c.12 0-.1.11-.11.13s.17-.05.11-.13zM120.47 129.16l-.01-.02.27-.13-.26.15z"/>
</svg>
