<svg xmlns="http://www.w3.org/2000/svg" viewBox="0 0 333.41 329.46"><defs><style>.cls-1{opacity:0.85;}.cls-2{fill:#1d1d1b;}.cls-3{fill:#fff;}</style></defs><g id="Layer_2" data-name="Layer 2"><g id="Layer_1-2" data-name="Layer 1"><g class="cls-1"><path class="cls-2" d="M217.6,8c-1.63-.54-3.24-1.13-4.89-1.64l-5-1.44c1.65.54,3.27,1.11,4.91,1.75A29.21,29.21,0,0,0,217.6,8Z" transform="translate(0 -0.15)"/><path class="cls-2" d="M198.48,2.63c-.61-.16-1.22-.25-1.8-.36l-1.55-.2C196.24,2.25,197.38,2.39,198.48,2.63Z" transform="translate(0 -0.15)"/><path class="cls-2" d="M180.7.15c1.58.13,3.11.38,4.62.56l4.45.53c-1.28-.2-2.66-.41-4.17-.6S182.47.21,180.7.15Z" transform="translate(0 -0.15)"/><path class="cls-2" d="M194.8,2.42c-1.05-.34-1.56-.58.25-.36h.08l-5.36-.83C191.67,1.61,193.36,2,194.8,2.42Z" transform="translate(0 -0.15)"/><path class="cls-2" d="M194.8,2.42c1,.33,2.66.74,3.21,1C197.09,3.05,196,2.75,194.8,2.42Z" transform="translate(0 -0.15)"/><path class="cls-2" d="M189.82,5c-1.77-.15-1.21-1-4.73-1.29a196.44,196.44,0,0,0-23-.6,24.27,24.27,0,0,1-2.95,0L155.85,3a32.82,32.82,0,0,0-6.28.12L146,3.61c-1.33.21-2.77.41-4.21.74-2.88.64-5.84,1.19-8.11,1.9-4.57,1.3-6.59,2-.57.76,1.14-.23,2.24-.51,3.34-.69l3.22-.54c2.11-.35,4.13-.71,6.13-.91s3.91-.49,5.81-.67l5.62-.41c1.85-.18,3.7-.15,5.55-.22s3.7-.13,5.59,0l5.76.14,6.05.44c1.7.06,3.37.28,5,.44s3.35.31,5,.55c3.31.53,6.64.91,9.92,1.64,1.64.34,3.3.64,5,1L210,9c.83.21,1.66.41,2.49.64l2.46.76c1.65.51,3.31,1,5,1.54,3.66,1.4,7.08,2.71,10.38,4.35l-3.27-1.59-3.42-1.46-3.54-1.5c-1.21-.48-2.47-.92-3.76-1.39A71.2,71.2,0,0,0,204.7,7.25l-7-1.15C195.2,5.74,192.58,5.42,189.82,5Z" transform="translate(0 -0.15)"/><path class="cls-2" d="M281,48.47,276.93,45a91.05,91.05,0,0,0-19-15.73l2.75,2.54c2,1.34,3,2.15,3.26,2.19s-.4-.66-2.06-2c7.46,6.3,14.23,12.49,20.8,19.23C282.43,50.62,282.75,50.48,281,48.47Z" transform="translate(0 -0.15)"/><path class="cls-2" d="M286.47,55.21l-3.82-4c0,.05.05.13.07.2l3.87,3.95Z" transform="translate(0 -0.15)"/><path class="cls-2" d="M142.82,1.63a165.58,165.58,0,0,0-63.61,22.5c-.66.52-1.22,1-1.86,1.44s-1.35.93-2.3,1.53c-1.5.82-3,1.7-4.43,2.6s-2.6,1.85-3.88,2.8l-3.81,2.86c-.86.69-1.68,1.46-2.54,2.21l-.07.06c-1.3,1.23-.79,1,.14.4s1.94-1.36,2.77-1.86c-.53.31-1.85,1.28-2.77,1.86-1.22.88-2.57,1.88-4.1,3.1-2.09,2-4.31,4.1-6.61,6.23,2.44-2.49,4.67-4.53,6.61-6.23l4-3.56,1.13-1.07c-2.79,2.34-5.64,4.6-8.26,7.12-1.32,1.24-2.7,2.42-4,3.71l-3.81,3.88c-.57.62-1.15,1.19-1.65,1.78l-1.38,1.64c-.85,1-1.69,2-2.51,3L38.7,59.07c-.38.48-.76,1-1.12,1.43a46.51,46.51,0,0,1-4.06,4.59c-.75,1-1.52,2.1-2.3,3.16l.51-.56-.92,1.14c-.8,1.11-1.63,2.21-2.4,3.34l-2.25,3.46c-.74,1.16-1.52,2.29-2.23,3.48l-2.08,3.58c-1.69,3.15-3.05,6.59-4.62,9.91l-.23.34-.52.85-1.21,2c-.2.73-.48,1.6-.83,2.58s-.78,2.05-1.18,3.24c.65-1.34,1.4-2.56,2.08-3.74s1.33-2.32,1.93-3.42a28.45,28.45,0,0,0,1.32-2.59c.41-.92.79-1.9,1.19-2.9s.82-2,1.32-3a16.23,16.23,0,0,1,1.9-2.7A16.23,16.23,0,0,0,21.1,86c-.5,1-.92,2-1.32,3s-.78,2-1.19,2.9a28.45,28.45,0,0,1-1.32,2.59c-.6,1.1-1.25,2.23-1.93,3.42s-1.43,2.4-2.08,3.74c-1.83,4.87-4.21,11.16-6.13,16.25a65,65,0,0,1,6.13-16.25c.4-1.19.82-2.27,1.18-3.24s.63-1.85.83-2.58l1.21-2,.52-.85.23-.34c1.57-3.32,2.93-6.76,4.62-9.91A162.33,162.33,0,0,0,8.4,112.6,168.8,168.8,0,0,0,2,138.5a165.16,165.16,0,0,0,6.36,77.7A167.21,167.21,0,0,0,184.6,328.64a163.28,163.28,0,0,0,28-5.53,156.22,156.22,0,0,0,26.18-10.18,165.83,165.83,0,0,0,44.82-32.39l2.43-2.48c.81-.83,1.62-1.65,2.37-2.53l4.59-5.2,4.34-5.43c.75-.89,1.43-1.83,2.1-2.77l2-2.82a176.84,176.84,0,0,0,14.33-24.05,179.53,179.53,0,0,0,16.48-54.89,150.78,150.78,0,0,0,1-26.65,162.76,162.76,0,0,0-4.61-31.11A165.55,165.55,0,0,0,305.42,70.4c-1.46-2-2.78-3.73-4-5.3s-2.48-2.86-3.54-4a46.64,46.64,0,0,0-5.26-5.16c-2.75-2.3-3.92-2.66-4.27-2.09-.67,1.16,1.94,5.95,2.42,6.69.78,1.23,1.48,2.49,2.19,3.73s1.43,2.45,2.15,3.64,1.41,2.41,2.11,3.63,1.39,2.42,2.12,3.63,1.38,2.47,2.09,3.73l2.15,3.84c.73,1.3,1.38,2.68,2.11,4.06s1.48,2.78,2.18,4.27l2.13,4.6c.36.79.76,1.58,1.1,2.42s.68,1.67,1,2.54c.67,1.73,1.47,3.48,2.11,5.36l2,5.86a142.89,142.89,0,0,1,6,29.26c-.84-7.83-1.28-10.3-.77-9.2s1.59,5.82,2.48,12.54c.18,1.68.38,3.48.59,5.38s.23,3.9.35,6,.09,4.2.09,6.36l0,3.28c-.06,1.1-.12,2.2-.19,3.31a116.08,116.08,0,0,1-4,25,215.72,215.72,0,0,1-11.93,32.88A172.2,172.2,0,0,1,288.75,260l-3.12,4-3.33,3.86-1.67,1.94c-.56.64-1.17,1.24-1.75,1.87l-3.54,3.71c-1.19,1.24-2.48,2.38-3.71,3.57s-2.46,2.41-3.79,3.49c-2.62,2.23-5.19,4.52-8,6.55a150.08,150.08,0,0,1-17,11.39l-4.45,2.4L236.24,304,234,305l-4.51,2.11c-1.52.65-3.06,1.24-4.57,1.86-3,1.29-6.19,2.29-9.37,3.45-1.59.57-3.25,1-4.9,1.54s-3.31,1.06-5,1.46l-5.19,1.34c-1.77.4-3.57.74-5.38,1.13-.91.18-1.82.39-2.74.54l-2.81.44-2.84.43-1.43.22-1.46.16c-40.32,4.28-80.56-6.37-112.46-29.79a159,159,0,0,1-40.64-43.69A153.37,153.37,0,0,1,9,188.2a183.07,183.07,0,0,1-2.28-32A157.14,157.14,0,0,1,10,126.81c.68-3.44,1.78-6.84,2.73-10.27l1.73-5,.88-2.49,1-2.42,1.94-4.73,2.09-4.48,1-2.17c.34-.71.71-1.39,1.06-2.06l2-3.94A189.12,189.12,0,0,1,37.76,67.86l3.57-4.69L42.2,62l.93-1.11c.62-.73,1.23-1.47,1.84-2.2,2.38-3,5-5.66,7.48-8.41C41,62.23,33.63,72,24.77,88.12c-2.74,5.49-2.09,3.44-.21-.89,1-2.11,2.3-4.84,3.7-7.41s2.83-5,4-6.75a44.56,44.56,0,0,1,3.89-4.91,53.52,53.52,0,0,0,4.1-4.73c.6-.74,1.16-1.5,1.76-2.22l1.8-2.13c1.2-1.41,2.33-2.88,3.55-4.28,2.5-2.75,5-5.68,7.92-8.51,2.45-2.54,2.75-1.59,4-2.81C67.45,36,74,30.13,80.2,26.56l3.45-2c1.12-.66,2.29-1.19,3.4-1.77,2.24-1.11,4.36-2.27,6.57-3.19l4.12-1.91c1.37-.67,2.82-1.2,4.27-1.86,1.8-.82,3.64-1.76,5.56-2.5a7.28,7.28,0,0,1-2.95,0c1.37-.56,3.1-1.05,4.8-1.62s3.4-1.15,4.84-1.53c-1.44.38-3.13,1-4.84,1.53s-3.43,1.06-4.8,1.62a7.28,7.28,0,0,0,2.95,0l5.22-2.12c1.79-.66,3.63-1.28,5.48-1.93S122,8.07,124,7.52s3.85-1.18,5.83-1.6a152.47,152.47,0,0,1,24-4.08l-.22-.07a279.87,279.87,0,0,0-27.9,3.73c2.06-.44,3-.49,2.81-.35a34.64,34.64,0,0,1-3.75,1.14L121,6.74a92.39,92.39,0,0,1,24.12-4.57l5.28-.89c2.65-.07,2.55.28,3.12.49l5.5-.39c-1-.09-2.48-.11-4.18-.14s-3.62-.09-5.4,0l-4.67.23-1.45.08A4.65,4.65,0,0,0,142.82,1.63Z" transform="translate(0 -0.15)"/><path class="cls-2" d="M56.18,41.25l3.41-3-3.51,2.92-3.36,3.09c-1.11,1-2.28,2-3.34,3.12l-3.22,3.27a59.05,59.05,0,0,0,4.52-4.13C52.42,44.93,54.29,43.09,56.18,41.25Z" transform="translate(0 -0.15)"/></g><g class="cls-1"><path class="cls-2" d="M213.91,47.5l-.37-.94a2.71,2.71,0,0,1,.1.51A1,1,0,0,0,213.91,47.5Z" transform="translate(0 -0.15)"/><path class="cls-2" d="M213.2,45.69l-.07-.16-.08-.14Z" transform="translate(0 -0.15)"/><path class="cls-2" d="M212.36,44.15a8.46,8.46,0,0,0,.43.79A4.87,4.87,0,0,0,212.36,44.15Z" transform="translate(0 -0.15)"/><path class="cls-2" d="M212.93,45.42c0-.11,0-.18.12,0h0c-.07-.15-.17-.3-.26-.45A2,2,0,0,1,212.93,45.42Z" transform="translate(0 -0.15)"/><path class="cls-2" d="M212.93,45.42l0,.35A2.26,2.26,0,0,0,212.93,45.42Z" transform="translate(0 -0.15)"/><path class="cls-2" d="M211.82,45.47c-.1-.14.17-.23,0-.5-.44-.67-.88-1.21-1.22-1.86-.2-.28-.26-.87-.49-1.12-.52-.63-1.95-2.08-1.28-1.1l1.37,1.9c.4.59.73,1.21,1.14,1.9a28.55,28.55,0,0,1,1.93,3.44,4.48,4.48,0,0,1,.35,1,9.58,9.58,0,0,0-.4-1.42A16.19,16.19,0,0,0,211.82,45.47Z" transform="translate(0 -0.15)"/><path class="cls-2" d="M215.74,54.65l-.2-.49a6.77,6.77,0,0,0-.45-2.37l-.06.39c.11.45.2.49.17.07a12.75,12.75,0,0,0,.4,2.73C215.67,54.91,215.76,54.91,215.74,54.65Z" transform="translate(0 -0.15)"/><path class="cls-2" d="M215.73,55.5,215.6,55l0,0,.15.51Z" transform="translate(0 -0.15)"/><path class="cls-2" d="M210.25,41.1c-.33-.47-.63-1-1-1.41l-1.06-1.29A23.67,23.67,0,0,0,206,36a.84.84,0,0,1-.41-.29,3.13,3.13,0,0,0-.29-.42l-.71-.6-.27-.19h0c-.15-.09-.14,0-.08.08l.18.28-.18-.28c-.1-.12-.2-.24-.34-.38a8.23,8.23,0,0,1-.7-.54,4.38,4.38,0,0,1,.7.54l.43.3.13.08c-.55-.45-1.06-.94-1.64-1.35l-.38-.23a3.27,3.27,0,0,1-1.09-.79l-.31-.22.05.07L201,32a14.84,14.84,0,0,0-1.38-.83c-.34-.11-.68-.22-1-.35l-.25-.3a3.06,3.06,0,0,1-.61-.13c.24.18.42.4.61.57s.84.12,1.09.55c-.25-.43-.84-.26-1.09-.55s-.37-.39-.61-.57a5,5,0,0,1-1.5-.78,3.49,3.49,0,0,1,1.5.78,3.06,3.06,0,0,0,.61.13l.25.3c.34.13.68.24,1,.35l-1.39-.78c-.48-.24-1-.44-1.47-.67a34.49,34.49,0,0,0-20.39-2.15,40.79,40.79,0,0,0-11,3.58,32,32,0,0,0-8.83,6.49,52.23,52.23,0,0,0-6.78,8.83c-.37.65-.8,1.45-1.22,2.33s-.72,1.91-1.08,2.91a38.08,38.08,0,0,0-1.26,5.48c-.16,3.83,1.39,2,1.49,1.88A9.47,9.47,0,0,0,149,55.83a21.79,21.79,0,0,1,1.82-4.73c-.69,1.37-.66.79-.25-.46.11-.31.23-.67.39-1s.38-.74.59-1.11a9.19,9.19,0,0,1,1.4-2c1.5-1.52,2.83-3.57,4.53-5.53a31.5,31.5,0,0,1,2.66-2.9,14.92,14.92,0,0,1,1.49-1.27,11.14,11.14,0,0,1,1.55-1.13c.54-.32,1.08-.68,1.64-1.07s1.2-.7,1.85-1.07a43.42,43.42,0,0,1,10.78-3.7,32,32,0,0,1,11.68-.2c1.07.19,2.07.37,3,.49s1.89.39,2.78.62a23.7,23.7,0,0,1,3.49,1.68c1.54.75,2.78,1.54,4,2.23-.65-.45-1.26-.77-1.86-1.15a17.5,17.5,0,0,0-2-1.08c-1.05-.53.9,0,1.63.37.32.13.59.69.91.82.6.41,1.26.64,1.91,1.1.3.16.09.36.24.44a9.48,9.48,0,0,0,1.27.73,3.1,3.1,0,0,1,.92.7l.94,1.12c.19.21.4.42.59.66l.43.4a.56.56,0,0,1,.06-.4l.55.82-.55-.82a.56.56,0,0,0-.06.4c.51.5,1.08,1,1.61,1.61l1.48,1.85v0a14.36,14.36,0,0,1-1.39-2.36c.19.37.11.36-.2,0l-.11-.36a5,5,0,0,1,1.34,2l.37.38c.11.23,0,.27,0,.35l.32.44A13.37,13.37,0,0,0,210.25,41.1Z" transform="translate(0 -0.15)"/><path class="cls-2" d="M203.91,34.2l.35.26c-.45-.37-.89-.78-1.37-1.14A3.68,3.68,0,0,0,203.91,34.2Z" transform="translate(0 -0.15)"/></g><g class="cls-1"><path class="cls-2" d="M155.37,33.66l-.7.35a2.23,2.23,0,0,1,.39-.09C155.23,33.87,155.28,33.77,155.37,33.66Z" transform="translate(0 -0.15)"/><path class="cls-2" d="M154,34.3l-.13.05-.1.07Z" transform="translate(0 -0.15)"/><path class="cls-2" d="M152.79,34.92a6,6,0,0,0,.63-.29A2.86,2.86,0,0,0,152.79,34.92Z" transform="translate(0 -0.15)"/><path class="cls-2" d="M153.81,34.54c-.1,0-.15,0,0-.11h0l-.35.21A1.55,1.55,0,0,1,153.81,34.54Z" transform="translate(0 -0.15)"/><path class="cls-2" d="M153.81,34.54h0Z" transform="translate(0 -0.15)"/><path class="cls-2" d="M153.91,35.61c-.12.09-.2-.19-.43,0a9.52,9.52,0,0,1-1.6.9c-.24.16-.76,0-1,.18-.58.33-2,1.21-1.11.88,1.39-.52,2.26-1,3.47-1.53.94-.55,1.84-1.08,2.76-1.7.27-.15.54-.26.8-.38l-1.12.43C155.16,34.57,154.7,35.19,153.91,35.61Z" transform="translate(0 -0.15)"/><path class="cls-2" d="M160.4,30.84l-.28.31a5.21,5.21,0,0,0-1.6,1l.32,0c.31-.21.3-.3,0-.18a7.34,7.34,0,0,0,1.89-1.09A.28.28,0,0,0,160.4,30.84Z" transform="translate(0 -0.15)"/><path class="cls-2" d="M161.06,30.61l-.34.26h0l.32-.27Z" transform="translate(0 -0.15)"/><path class="cls-2" d="M150.18,36.24c-1.72.63-3.36,1.14-5,1.57a.55.55,0,0,1-.36.19,1.86,1.86,0,0,0-.41,0l-.71.17-.24.09h0c-.13.06-.08.1,0,.11l.27,0-.27,0-.4,0a4.84,4.84,0,0,1-.68.18,3,3,0,0,1,.68-.18l.39-.15.1-.05c-.54.14-1.08.25-1.63.37l-.33.1a1.93,1.93,0,0,1-1,.19l-.3.06h-.05l-1.25.24c-.25.12-.51.24-.78.35l-.31-.08a1.15,1.15,0,0,1-.43.23c.24,0,.47.09.67.11s.56-.42.94-.23c-.38-.19-.63.31-.94.23s-.43-.07-.67-.11a3.11,3.11,0,0,1-1.33.14,2.17,2.17,0,0,1,1.33-.14,1.15,1.15,0,0,0,.43-.23l.31.08c.27-.11.53-.23.78-.35l-2.47.46c-5.42.94-10.41,1.82-16,3-3,.64-6,1.34-8.8,2.22a34.75,34.75,0,0,0-7.91,3.59,44.92,44.92,0,0,0-7.12,5.37,18.49,18.49,0,0,0-2.86,3.62,18.72,18.72,0,0,0-1.2,2.16c-.18.35-.35.68-.5,1l-.37.88c-.76,3,1,2,1.14,1.88a6.39,6.39,0,0,0,1.74-2.16l.89-1.47A16.25,16.25,0,0,1,97,58c-.79.9-.7.44-.16-.45a8.79,8.79,0,0,1,2.73-2.62,42.37,42.37,0,0,0,4.63-3.23,23.75,23.75,0,0,1,5.38-3.07c1-.32,1.9-.83,3.06-1.2a168,168,0,0,1,18.48-4.61,45.5,45.5,0,0,0,4.75-1.36c1.08-.28,2.28-.37,3.17-.58a28.25,28.25,0,0,0,3.7-1.1c-1.27.37-2.19.67-3.62,1-.95.23.59-.51,1.2-.74.26-.12.75.1,1,0a14.29,14.29,0,0,0,1.71-.63c.25-.13.29.16.42.09.84-.29,1.4-.83,2-.9l1.19-.21c.23-.06.46-.12.7-.2l.44-.21a.55.55,0,0,1-.3-.23c.23,0,.56-.08.79-.14-.23.06-.56.09-.79.14a.55.55,0,0,0,.3.23c1.06-.52,2.29-1.08,3.4-1.66l0,0a6.8,6.8,0,0,1-2.12.59c.33,0,.31,0,0,.18l-.32,0a4.32,4.32,0,0,1,1.82-.58l.35-.24c.2,0,.23,0,.3.1l.39-.18A9.16,9.16,0,0,0,150.18,36.24Z" transform="translate(0 -0.15)"/><path class="cls-2" d="M143.07,38.42l.33-.12c-.46.12-.92.21-1.38.31A2.15,2.15,0,0,0,143.07,38.42Z" transform="translate(0 -0.15)"/></g><g class="cls-1"><path class="cls-2" d="M140.37,55.26l-.48.16a.89.89,0,0,1,.28,0C140.28,55.42,140.32,55.34,140.37,55.26Z" transform="translate(0 -0.15)"/><polygon class="cls-2" points="139.44 55.41 139.35 55.44 139.28 55.49 139.44 55.41"/><path class="cls-2" d="M138.62,55.94a1.94,1.94,0,0,0,.42-.17A1.54,1.54,0,0,0,138.62,55.94Z" transform="translate(0 -0.15)"/><path class="cls-2" d="M139.31,55.76c-.06,0-.1,0,0-.11h0l-.24.12A1.26,1.26,0,0,1,139.31,55.76Z" transform="translate(0 -0.15)"/><path class="cls-2" d="M139.31,55.76l.19,0Z" transform="translate(0 -0.15)"/><path class="cls-2" d="M139.43,56.8c-.08.07-.15-.21-.3-.09a4.4,4.4,0,0,1-1.07.56c-.16.11-.53-.11-.68,0-.39.2-1.34.88-.72.68.92-.32,1.51-.56,2.33-.87.63-.36,1.22-.72,1.87-1.06a2.94,2.94,0,0,1,.55-.18l-.78.15C140.25,56,140,56.54,139.43,56.8Z" transform="translate(0 -0.15)"/><path class="cls-2" d="M143.93,53.93l-.21.2a1.84,1.84,0,0,0-1.15.47l.23.06c.21-.12.21-.2,0-.17a3.5,3.5,0,0,0,1.37-.43C144.1,54,144.07,53.92,143.93,53.93Z" transform="translate(0 -0.15)"/><path class="cls-2" d="M144.41,53.92l-.25.14,0,0,.24-.16Z" transform="translate(0 -0.15)"/><path class="cls-2" d="M136.87,56.74a27.67,27.67,0,0,1-3.32.82c-.07.08-.11.15-.23.15a1,1,0,0,0-.28,0l-.47.09-.16.06h0c-.08,0,0,.09,0,.12a1,1,0,0,1,.18.07l-.18-.07a1.2,1.2,0,0,0-.28,0,2,2,0,0,1-.44.09,1.28,1.28,0,0,1,.44-.09l.26-.09.07,0-1.08.16-.22.06c-.26.09-.51.17-.69.06l-.2,0,0,0h-.07l-.82.11a5,5,0,0,1-.52.25l-.21-.12a.66.66,0,0,1-.28.19l.44.18c.21.11.37-.35.63-.12-.26-.23-.42.23-.63.12l-.44-.18a1.51,1.51,0,0,1-.89,0,1,1,0,0,1,.89,0,.66.66,0,0,0,.28-.19l.21.12a5,5,0,0,0,.52-.25c-.54.07-1.09.11-1.64.17-3.58.33-6.88.65-10.61.76-2,0-4,0-5.89,0-3.83-.1-7.27.48-11.22.19a27.7,27.7,0,0,0-5.7.71c-1.84.8-.61,1.84-.51,1.9,1.34.86,2.12.06,4.56.4-1.64-.13,1.1-.86,2.7-.28,2.29.86,5.34-.25,8.09-.14.69,0,1.41-.06,2.23-.09,4.26.11,8.2-.56,12.71-1a16.71,16.71,0,0,0,3.19-.8c.72-.16,1.52-.13,2.12-.21a17,17,0,0,0,2.46-.68c-.85.2-1.46.39-2.41.61-.64.12.38-.44.79-.6.17-.1.51.17.68.07a7.13,7.13,0,0,0,1.13-.42c.16-.1.2.19.28.14.56-.18.92-.65,1.3-.65l.79,0a2.73,2.73,0,0,0,.48-.1l.29-.14a.62.62,0,0,1-.22-.26c.16,0,.38,0,.54,0-.16,0-.38,0-.54,0a.62.62,0,0,0,.22.26c.7-.33,1.5-.76,2.25-1.09l0,0a3.35,3.35,0,0,1-1.42.24c.22,0,.22.09,0,.17l-.22-.08a1.83,1.83,0,0,1,1.21-.31l.23-.17c.14,0,.16.09.21.15l.27-.1A4.39,4.39,0,0,0,136.87,56.74Z" transform="translate(0 -0.15)"/><path class="cls-2" d="M132.14,57.9l.22-.06-.91.13A.9.9,0,0,0,132.14,57.9Z" transform="translate(0 -0.15)"/></g><g class="cls-1"><path class="cls-2" d="M98.19,100.85l0-.39a.56.56,0,0,1-.08.2C98.06,100.75,98.13,100.79,98.19,100.85Z" transform="translate(0 -0.15)"/><path class="cls-2" d="M98.16,100.09V100l0-.06Z" transform="translate(0 -0.15)"/><path class="cls-2" d="M98,99.41a1.34,1.34,0,0,0,0,.35A.63.63,0,0,0,98,99.41Z" transform="translate(0 -0.15)"/><path class="cls-2" d="M98,100s.08-.07.12,0h0l-.06-.2A.66.66,0,0,1,98,100Z" transform="translate(0 -0.15)"/><path class="cls-2" d="M98,100l-.1.14A.71.71,0,0,0,98,100Z" transform="translate(0 -0.15)"/><path class="cls-2" d="M97,99.87c0-.07.25-.08.17-.21a3.48,3.48,0,0,1-.27-.89c-.08-.13.23-.37.16-.51-.11-.32-.54-1.12-.5-.63.1.73.2,1.21.3,1.86s.34,1,.49,1.57a2.26,2.26,0,0,1,0,.45l.09-.61C97.47,100.61,97.08,100.3,97,99.87Z" transform="translate(0 -0.15)"/><path class="cls-2" d="M98.29,103.77l-.12-.19a1.11,1.11,0,0,0,0-1l-.13.16c0,.18.11.2.16,0a2,2,0,0,0-.06,1.11C98.17,103.89,98.26,103.88,98.29,103.77Z" transform="translate(0 -0.15)"/><path class="cls-2" d="M98.14,104.13l0-.21h0l.06.21Z" transform="translate(0 -0.15)"/><path class="cls-2" d="M97.67,98c-.07-.92-.1-1.78-.11-2.63-.06-.06-.13-.1-.1-.19a.75.75,0,0,0,.1-.2v-.37l0-.13h0c0-.06-.07,0-.11,0l-.1.14.1-.14a.93.93,0,0,0,.07-.2,1,1,0,0,1,0-.35.85.85,0,0,1,0,.35l0,.21,0,.06v-.85l0-.17c-.05-.2-.09-.4,0-.53v-.15l0,0,0-.06,0-.64a2.63,2.63,0,0,1-.17-.42l.14-.14a.49.49,0,0,1-.15-.24c-.08.12-.18.23-.24.33s.3.31,0,.48c.27-.17-.17-.34,0-.48s.16-.21.24-.33a.92.92,0,0,1,.13-.67.61.61,0,0,1-.13.67.49.49,0,0,0,.15.24l-.14.14a2.63,2.63,0,0,0,.17.42l0-1.26c.15-2.76.15-5.3.41-8.15a44.11,44.11,0,0,1,.64-4.45c.55-2.85.43-5.53,1.55-8.33a24.72,24.72,0,0,0,.72-4.21,1.11,1.11,0,0,0-1.66-.92c-1.17.72-.74,1.5-1.6,3.24.53-1.19.52,1-.34,2.08-1.32,1.57-.72,4.12-1.18,6.21A16.27,16.27,0,0,0,96,78.07c-.62,3.27-.28,6.36-.39,9.81a11.15,11.15,0,0,0,.42,2.5c0,.56-.09,1.16-.07,1.62a9.23,9.23,0,0,0,.28,1.93c-.07-.66-.16-1.15-.22-1.88,0-.5.37.33.46.65.07.14-.24.37-.17.51a4.16,4.16,0,0,0,.24.9c.06.13-.23.13-.19.2.09.44.47.76.4,1l-.1.6a1.53,1.53,0,0,0,0,.37l.08.23a1,1,0,0,1,.3-.12c0,.12-.07.29-.07.4,0-.11.06-.28.07-.4a1,1,0,0,0-.3.12c.2.58.4,1.24.56,1.85h0a2.1,2.1,0,0,1,.1-1.1c0,.16-.13.15-.16,0l.13-.15a1.11,1.11,0,0,1,0,1l.11.2c0,.11-.13.11-.2.13l0,.22A2.58,2.58,0,0,0,97.67,98Z" transform="translate(0 -0.15)"/><path class="cls-2" d="M97.49,94.23l0,.18V93.7C97.4,93.83,97.44,94,97.49,94.23Z" transform="translate(0 -0.15)"/></g><path class="cls-2" d="M130.85,113.66c.14,0,.1-.09.14,0S130.82,113.69,130.85,113.66Z" transform="translate(0 -0.15)"/><path class="cls-2" d="M130.7,113.62c.08-.05.06-.1.26-.13C130.87,113.53,130.8,113.58,130.7,113.62Z" transform="translate(0 -0.15)"/><path class="cls-2" d="M129.68,112.42s0,0,0,0C129.86,112.37,129.8,112.38,129.68,112.42Z" transform="translate(0 -0.15)"/><path class="cls-2" d="M129.19,112.19a.83.83,0,0,1,.35,0Z" transform="translate(0 -0.15)"/><path class="cls-2" d="M129,111.85a.11.11,0,0,1,.14,0Z" transform="translate(0 -0.15)"/><path class="cls-2" d="M128.8,111.93c-.05,0,0-.05,0-.08S128.94,111.87,128.8,111.93Z" transform="translate(0 -0.15)"/><path class="cls-2" d="M127.89,111.42s-.16,0-.1,0S128,111.37,127.89,111.42Z" transform="translate(0 -0.15)"/><path class="cls-2" d="M127.24,111.31s0,0,0,0,.09,0,.12,0Z" transform="translate(0 -0.15)"/><path class="cls-2" d="M116.68,108.74h.09S116.71,108.79,116.68,108.74Z" transform="translate(0 -0.15)"/><path class="cls-2" d="M111.9,107.83c-.08,0,0-.06,0-.07S111.82,107.82,111.9,107.83Z" transform="translate(0 -0.15)"/><polygon class="cls-2" points="109.18 107.53 109.2 107.53 109.16 107.64 109.18 107.53"/><g class="cls-1"><path class="cls-2" d="M133.13,112.58l-.37-.15a.53.53,0,0,1,.16.17C133,112.66,133.05,112.61,133.13,112.58Z" transform="translate(0 -0.15)"/><path class="cls-2" d="M132.41,112.29l-.06,0h-.07Z" transform="translate(0 -0.15)"/><path class="cls-2" d="M131.73,112.12a1,1,0,0,0,.34.11A1,1,0,0,0,131.73,112.12Z" transform="translate(0 -0.15)"/><path class="cls-2" d="M132.23,112.38c0-.06,0-.11.05-.11h0l-.21,0A.57.57,0,0,1,132.23,112.38Z" transform="translate(0 -0.15)"/><path class="cls-2" d="M132.23,112.38a1.51,1.51,0,0,1,.09.14A.42.42,0,0,0,132.23,112.38Z" transform="translate(0 -0.15)"/><path class="cls-2" d="M131.73,113.28c-.08,0,0-.26-.12-.25a4.59,4.59,0,0,1-.93-.09c-.15,0-.26-.36-.41-.34-.34,0-1.25.07-.78.21.72.2,1.2.27,1.84.44s1.08.12,1.64.2a1.81,1.81,0,0,1,.4.18l-.52-.33C132.61,113.13,132.17,113.37,131.73,113.28Z" transform="translate(0 -0.15)"/><path class="cls-2" d="M135.85,113.78l-.23,0a1.12,1.12,0,0,0-.89-.39l.09.19c.18.05.23,0,.09-.14a2.22,2.22,0,0,0,1,.56C135.9,113.94,135.93,113.85,135.85,113.78Z" transform="translate(0 -0.15)"/><path class="cls-2" d="M136.1,114.07l-.21,0v0l.22,0Z" transform="translate(0 -0.15)"/><path class="cls-2" d="M130.24,111.9l-2.53-.86c-.08,0-.14.08-.21,0a1.21,1.21,0,0,0-.16-.16l-.36-.12-.13,0h0c-.08,0-.07.06,0,.11a.67.67,0,0,1,.09.14.85.85,0,0,1-.09-.14.79.79,0,0,0-.17-.14,1,1,0,0,1-.34-.09.81.81,0,0,1,.34.09l.21,0h.07l-.81-.29-.17,0c-.21,0-.42,0-.5-.21l-.14-.06,0,0,0,0-.61-.23a3.42,3.42,0,0,1-.45,0l-.1-.18a.5.5,0,0,1-.27.07,2.22,2.22,0,0,0,.24.32c.1.18.39-.19.48.12-.09-.31-.38.06-.48-.12a2.22,2.22,0,0,1-.24-.32.94.94,0,0,1-.62-.32.64.64,0,0,1,.62.32.5.5,0,0,0,.27-.07l.1.18a3.42,3.42,0,0,0,.45,0l-1.21-.43c-2.64-1-5.14-1.6-7.92-2.45-1.5-.48-2.94-1-4.34-1.49-2.78-1-5.5-1.31-8.21-2.73a22.33,22.33,0,0,0-4.21-1.15,1.08,1.08,0,0,0-1.06,1.56c.61,1.25,1.45.87,3.1,1.91-1.14-.65,1.06-.42,2,.56,1.41,1.49,4,1.22,6,2a17.18,17.18,0,0,0,1.67.46c3.1,1.16,6.17,1.46,9.47,2.46a13.33,13.33,0,0,0,2.5.27,15.8,15.8,0,0,1,1.53.54,8.86,8.86,0,0,0,1.91.34c-.65-.14-1.13-.21-1.85-.38-.48-.12.43-.25.77-.24.15,0,.27.35.42.33a4,4,0,0,0,.93.06c.15,0,.05.25.13.24.44.07.88-.18,1.12,0l.53.31a1.81,1.81,0,0,0,.35.13h.25a.69.69,0,0,1,0-.32c.11,0,.24.16.35.21-.11,0-.24-.16-.35-.21a.69.69,0,0,0,0,.32c.61,0,1.29.1,1.93.18v0a2.22,2.22,0,0,1-1-.51c.14.11.1.18-.09.13l-.09-.18a1.15,1.15,0,0,1,.9.35l.23,0c.09.07.05.15.05.23l.21,0A3,3,0,0,0,130.24,111.9Z" transform="translate(0 -0.15)"/><path class="cls-2" d="M126.63,110.72l.18,0-.67-.24C126.22,110.68,126.42,110.7,126.63,110.72Z" transform="translate(0 -0.15)"/></g><g class="cls-1"><path class="cls-2" d="M107.52,118.61l-.22.07a.33.33,0,0,1,.14.06C107.5,118.75,107.51,118.68,107.52,118.61Z" transform="translate(0 -0.15)"/><path class="cls-2" d="M107.08,118.74h0l0,0Z" transform="translate(0 -0.15)"/><path class="cls-2" d="M106.7,118.92a.31.31,0,0,0,.2-.07A.35.35,0,0,0,106.7,118.92Z" transform="translate(0 -0.15)"/><path class="cls-2" d="M107,118.9s-.06-.07,0-.12h0l-.11.07A.34.34,0,0,1,107,118.9Z" transform="translate(0 -0.15)"/><path class="cls-2" d="M107,118.9l.11.07Z" transform="translate(0 -0.15)"/><path class="cls-2" d="M107.21,119.91s-.1-.24-.17-.15a1.83,1.83,0,0,1-.58.34c-.09.09-.29-.21-.37-.14s-.77.54-.42.5a6.27,6.27,0,0,0,1.31-.38,9.33,9.33,0,0,0,1-.69,1,1,0,0,1,.29-.1l-.43,0C107.6,119.34,107.5,119.76,107.21,119.91Z" transform="translate(0 -0.15)"/><path class="cls-2" d="M109.14,117.85l0,.16c-.27,0-.38.13-.51.31l.15.07c.09-.08.06-.15-.07-.15a.75.75,0,0,0,.66-.28C109.27,117.91,109.22,117.84,109.14,117.85Z" transform="translate(0 -0.15)"/><path class="cls-2" d="M109.43,117.86l-.1.1,0,0,.08-.12Z" transform="translate(0 -0.15)"/><path class="cls-2" d="M105.84,119.34a5.74,5.74,0,0,1-1.66,0c-.05,0-.09.11-.14.07a.38.38,0,0,0-.11-.11l-.23-.06h-.09s0,.07,0,.12a.34.34,0,0,1,.06.12l-.06-.12a.35.35,0,0,0-.11-.1.34.34,0,0,1-.22,0,.38.38,0,0,1,.22,0l.14,0,0,0-.52-.14H103c-.13,0-.27,0-.31-.14l-.08,0v0l0,0-.37-.16a2.65,2.65,0,0,1-.3.06l0-.17a.27.27,0,0,1-.2.08c0,.11.07.22.1.3s.3-.2.31.09c0-.29-.27.08-.31-.09s-.06-.19-.1-.3a.4.4,0,0,1-.32-.3c.2,0,.27.12.32.3a.27.27,0,0,0,.2-.08l0,.17a2.65,2.65,0,0,0,.3-.06c-.23-.12-.47-.23-.69-.37a6.26,6.26,0,0,1-3.14-3.53,3.12,3.12,0,0,1,.35-2.34,9.6,9.6,0,0,1,.56-.92,1.13,1.13,0,0,1,.52-.31,1,1,0,0,1,1.23.62,5.34,5.34,0,0,1,.36.77,3.45,3.45,0,0,0,1,.52,1.7,1.7,0,0,0,.73.08.93.93,0,0,0,.79-.94,6.32,6.32,0,0,0-.3-1.8c.16.57-.09.45-.38.14a8.14,8.14,0,0,1-1-1.36,2.31,2.31,0,0,0-2.68-1,3.9,3.9,0,0,0-1.56.75,6.72,6.72,0,0,0-.7.61,1.1,1.1,0,0,0-.3.38l-.12.19-.1.13a4.41,4.41,0,0,0-.59,1.29,5.09,5.09,0,0,0,0,4.15A8.79,8.79,0,0,0,98.73,119a4.3,4.3,0,0,0,1.81.66c.38.14.73.45,1,.56a3.37,3.37,0,0,0,1.41.17,7.63,7.63,0,0,1-1.36-.21c-.34-.12.36-.25.6-.28s.17.32.28.29a2,2,0,0,0,.67-.06c.11,0,0,.23.1.21.33,0,.61-.33.79-.24l.41.17a.69.69,0,0,0,.25,0l.17-.07a1.32,1.32,0,0,1-.07-.3c.08,0,.19.08.27.1-.08,0-.19-.09-.27-.1a1.32,1.32,0,0,0,.07.3c.41-.16.86-.34,1.25-.52v0a.85.85,0,0,1-.73-.1c.11.06.1.14,0,.16l-.1-.14a.56.56,0,0,1,.63,0l.12-.11c.07,0,.08.12.1.19l.14,0A1.75,1.75,0,0,0,105.84,119.34Z" transform="translate(0 -0.15)"/><path class="cls-2" d="M103.47,119.23h.12a3,3,0,0,1-.43-.12C103.2,119.25,103.34,119.25,103.47,119.23Z" transform="translate(0 -0.15)"/></g><g class="cls-1"><path class="cls-2" d="M151.77,114.19l-.65-.2a1.66,1.66,0,0,1,.3.19C151.55,114.25,151.64,114.21,151.77,114.19Z" transform="translate(0 -0.15)"/><path class="cls-2" d="M150.51,113.81l-.12,0h-.11Z" transform="translate(0 -0.15)"/><path class="cls-2" d="M149.33,113.64a4.34,4.34,0,0,0,.59.11A1.63,1.63,0,0,0,149.33,113.64Z" transform="translate(0 -0.15)"/><path class="cls-2" d="M150.24,113.9c-.06-.06-.09-.11,0-.12h0l-.36,0A1.19,1.19,0,0,1,150.24,113.9Z" transform="translate(0 -0.15)"/><path class="cls-2" d="M150.24,113.9a1.81,1.81,0,0,1,.19.15A1,1,0,0,0,150.24,113.9Z" transform="translate(0 -0.15)"/><path class="cls-2" d="M149.73,114.83c-.11,0,0-.27-.26-.25-.54,0-1,0-1.49,0-.23,0-.55-.32-.78-.27-.55,0-1.89.39-1.11.39a22.51,22.51,0,0,1,3,.14,18.12,18.12,0,0,1,2.61.29,3.43,3.43,0,0,1,.68.26,9.27,9.27,0,0,0-.89-.43C151.09,114.71,150.45,114.91,149.73,114.83Z" transform="translate(0 -0.15)"/><path class="cls-2" d="M156.26,116.39l-.35-.1a2.75,2.75,0,0,0-1.42-.79l.16.23c.29.12.36.07.13-.11a9.41,9.41,0,0,0,1.54,1.06C156.33,116.59,156.39,116.52,156.26,116.39Z" transform="translate(0 -0.15)"/><path class="cls-2" d="M156.64,116.85l-.32-.17v0l.33.15Z" transform="translate(0 -0.15)"/><path class="cls-2" d="M146.82,113.6a22.43,22.43,0,0,0-4.45.18.44.44,0,0,1-.32.15,2,2,0,0,0-.35-.05l-.61.13-.21.07h0c-.1.06-.06.09,0,.12l.24,0-.24,0a1,1,0,0,0-.34,0,4.75,4.75,0,0,1-.57.18,1.85,1.85,0,0,1,.57-.18l.33-.13.09,0c-.47.11-.93.22-1.39.37l-.27.12a1.66,1.66,0,0,1-.87.28l-.24.1h.06l-.1,0c-.34.14-.67.29-1,.46s-.36.34-.54.51h-.29a1,1,0,0,1-.25.35c.2,0,.41-.06.58-.1s.3-.54.69-.43c-.39-.11-.42.43-.69.43s-.38,0-.58.1a3.16,3.16,0,0,1-1,.6,1.42,1.42,0,0,1,1-.6,1,1,0,0,0,.25-.35h.29c.18-.17.35-.35.54-.51a12.21,12.21,0,0,0-1.86,1.16,8.52,8.52,0,0,0-3.57,6,10,10,0,0,0,2.22,6.88,13,13,0,0,0,6.58,4.59,9.27,9.27,0,0,0,4,.3,9,9,0,0,0,3.76-1.5,9.87,9.87,0,0,0,2.84-3,8.53,8.53,0,0,0,1.27-4.32,6,6,0,0,0-.42-2.16,7.67,7.67,0,0,0-1.31-2.18,7.45,7.45,0,0,0-4-2.44,2.51,2.51,0,0,0-1.66.31.56.56,0,0,0-.31.58,1.5,1.5,0,0,0,.5.73,20.09,20.09,0,0,0,1.9,1.17,4,4,0,0,1,1.87,2.29c-.14-.42-.19-.57-.08-.56s.31.21.52.55a3,3,0,0,1,.2,2.75,15.45,15.45,0,0,1-2.22,3.26,5.35,5.35,0,0,1-3.88,1.81,10.11,10.11,0,0,1-2.36-.23,11.63,11.63,0,0,1-5.56-3.79,6.65,6.65,0,0,1-1.41-6.24,9.53,9.53,0,0,1,1.54-3.07,8.83,8.83,0,0,1,2-1.37c.94-.54,1.77-1,2.61-1.4a13.92,13.92,0,0,0-2.57,1.32c-.64.4.25-.6.7-.88.18-.16.62,0,.79-.14.44-.18.81-.45,1.28-.67.2-.13.25.16.35.1.64-.25,1.11-.71,1.59-.71s.67,0,1,0l.59,0,.38-.1a.72.72,0,0,1-.2-.3c.2,0,.47,0,.66.07-.19,0-.46-.07-.66-.07a.72.72,0,0,0,.2.3,14.51,14.51,0,0,1,3.09-.39l0,0a7.33,7.33,0,0,1-1.82-.26c.28.07.24.15-.07.16l-.24-.14a2.64,2.64,0,0,1,1.6.09l.35-.07c.17,0,.16.14.18.22l.36,0A4.45,4.45,0,0,0,146.82,113.6Z" transform="translate(0 -0.15)"/><path class="cls-2" d="M140.53,114.2l.28-.1c-.39.1-.78.18-1.16.31A1.66,1.66,0,0,0,140.53,114.2Z" transform="translate(0 -0.15)"/></g><path class="cls-3" d="M155,54.37l.2,66.1" transform="translate(0 -0.15)"/><g class="cls-1"><path class="cls-2" d="M155.54,115c0-.22,0-.44,0-.66a1.42,1.42,0,0,1-.11.33C155.42,114.85,155.49,114.92,155.54,115Z" transform="translate(0 -0.15)"/><path class="cls-2" d="M155.57,113.76v-.12a.44.44,0,0,1,0-.1C155.56,113.61,155.56,113.68,155.57,113.76Z" transform="translate(0 -0.15)"/><path class="cls-2" d="M155.49,112.61a3.71,3.71,0,0,0,0,.58A1.94,1.94,0,0,0,155.49,112.61Z" transform="translate(0 -0.15)"/><path class="cls-2" d="M155.42,113.52c.05-.07.09-.1.12,0h0c0-.12,0-.23,0-.35A1.31,1.31,0,0,1,155.42,113.52Z" transform="translate(0 -0.15)"/><path class="cls-2" d="M155.42,113.52c0,.07-.07.18-.1.22A1.12,1.12,0,0,0,155.42,113.52Z" transform="translate(0 -0.15)"/><path class="cls-2" d="M154.41,113.24c0-.12.25-.09.19-.32a9.21,9.21,0,0,1-.22-1.5c-.06-.23.25-.6.19-.83-.08-.54-.47-1.91-.45-1.1,0,1.22.12,2,.18,3.11.12.89.26,1.75.36,2.66a4.42,4.42,0,0,1,0,.73c0-.31.09-.63.13-1S154.47,114,154.41,113.24Z" transform="translate(0 -0.15)"/><path class="cls-2" d="M155.38,119.9l-.09-.35a3.06,3.06,0,0,0,0-1.59l-.15.24c0,.31.1.34.16.07a5.73,5.73,0,0,0-.16,1.83C155.25,120.06,155.34,120.07,155.38,119.9Z" transform="translate(0 -0.15)"/><path class="cls-2" d="M155.2,120.45c0-.12,0-.23,0-.35h0c0,.12,0,.24,0,.36Z" transform="translate(0 -0.15)"/><path class="cls-2" d="M155.22,110.17c0-1.53,0-3,0-4.38a.42.42,0,0,1-.09-.33,1.39,1.39,0,0,0,.1-.33c0-.2,0-.41,0-.61l0-.22h0c0-.11-.08-.08-.12,0a1.36,1.36,0,0,1-.1.21,1.89,1.89,0,0,1,.1-.21,1.13,1.13,0,0,0,.08-.34,2.79,2.79,0,0,1,0-.58,2.29,2.29,0,0,1,0,.58c0,.12,0,.24,0,.35l0,.1c0-.47,0-.93,0-1.4,0-.11,0-.21,0-.29a1.43,1.43,0,0,1,.06-.89c0-.08,0-.17,0-.25l0,.05,0-.1,0-1.06c0-.22-.12-.46-.16-.7l.14-.24a.82.82,0,0,1-.14-.39c-.09.19-.18.37-.24.53s.29.53,0,.81c.27-.28-.17-.57,0-.81s.15-.34.24-.53a2.19,2.19,0,0,1,.13-1.12,1.55,1.55,0,0,1-.13,1.12.82.82,0,0,0,.14.39l-.14.24c0,.24.11.48.16.7,0-.69.05-1.39.07-2.1.17-4.6.13-8.84.25-13.61.07-2.59.19-5.07.35-7.51.32-4.86-.08-9.29.63-14.19a59.79,59.79,0,0,0,.07-7.2c-.49-2.43-1.72-1.17-1.79-1.05-1.05,1.5-.46,2.67-1.07,5.71.35-2.07.69,1.53,0,3.5-1.09,2.83-.2,6.88-.47,10.37-.07.88,0,1.81,0,2.85-.35,5.43.13,10.46.06,16.16a34.64,34.64,0,0,0,.43,4.11c0,.93-.09,1.92-.09,2.68a25,25,0,0,0,.24,3.18c-.05-1.09-.13-1.89-.18-3.11,0-.81.37.57.46,1.1.06.23-.26.6-.19.83a10.39,10.39,0,0,0,.21,1.5c.07.23-.22.2-.19.32.07.73.44,1.3.36,1.76s-.08.68-.13,1a5.9,5.9,0,0,0,0,.6c0,.13.05.26.07.4a.55.55,0,0,1,.31-.18c0,.19-.08.46-.1.66,0-.2.08-.47.1-.66a.55.55,0,0,0-.31.18c.17,1,.33,2.08.46,3.11h0A5.74,5.74,0,0,1,155,109c-.06.27-.14.24-.16-.07l.14-.24a3,3,0,0,1,0,1.59s.07.23.1.35-.13.16-.21.2l0,.36A6.65,6.65,0,0,0,155.22,110.17Z" transform="translate(0 -0.15)"/><path class="cls-2" d="M155.21,103.94a2.33,2.33,0,0,1,0,.29c0-.39,0-.78,0-1.18A1.43,1.43,0,0,0,155.21,103.94Z" transform="translate(0 -0.15)"/></g><path class="cls-3" d="M156.24,120.74q8.31-1.63,16.74-2.6" transform="translate(0 -0.15)"/><g class="cls-1"><path class="cls-2" d="M171.55,117.91h-.17a.26.26,0,0,1,.1.09S171.53,118,171.55,117.91Z" transform="translate(0 -0.15)"/><path class="cls-2" d="M171.22,117.92h0l0,0Z" transform="translate(0 -0.15)"/><path class="cls-2" d="M170.94,118a.27.27,0,0,0,.15,0A.14.14,0,0,0,170.94,118Z" transform="translate(0 -0.15)"/><path class="cls-2" d="M171.18,118.07s0-.08,0-.12h0l-.08,0A.28.28,0,0,1,171.18,118.07Z" transform="translate(0 -0.15)"/><path class="cls-2" d="M171.18,118.07l.07.1A.86.86,0,0,0,171.18,118.07Z" transform="translate(0 -0.15)"/><path class="cls-2" d="M171.23,119.09s0-.25-.1-.18-.23.24-.36.26-.18-.24-.23-.17-.43.53-.22.49.49-.19.76-.28.42-.3.63-.43a.41.41,0,0,1,.19,0l-.26-.1C171.51,118.62,171.41,119,171.23,119.09Z" transform="translate(0 -0.15)"/><path class="cls-2" d="M172.81,117.94l-.07.1c-.16-.19-.29-.09-.41,0l.07.13c.08,0,.08-.11,0-.16a.48.48,0,0,0,.49.12C172.87,118.06,172.86,118,172.81,117.94Z" transform="translate(0 -0.15)"/><path class="cls-2" d="M173,118.1l-.09,0v0l.09,0Z" transform="translate(0 -0.15)"/><path class="cls-2" d="M170.35,118.37c-.39.06-.76.09-1.12.11,0,.06,0,.13-.07.1a.41.41,0,0,0-.1-.09h-.16l-.05,0h0a.13.13,0,0,0,0,.12l.07.09-.07-.09a.18.18,0,0,0-.09-.07.25.25,0,0,1-.15,0,.14.14,0,0,1,.15,0l.08,0,0,0h-.36l-.07,0c-.08,0-.16.1-.23,0h-.07l0,0,0,0h-.27l-.16.19-.08-.14a.22.22,0,0,1-.08.16l.17.22c.08.13.09-.31.2,0-.11-.26-.12.18-.2,0l-.17-.22c-.08.06-.2,0-.3-.1.09-.14.2,0,.3.1a.22.22,0,0,0,.08-.16l.08.14.16-.19h-.55c-1.2,0-2.27.18-3.5.24a16.08,16.08,0,0,1-2-.06c-1.29-.13-2.35.45-3.72,0a4.11,4.11,0,0,0-1.85.26c-.52.59,0,1.74.08,1.8.57,1,.76.33,1.64.79-.59-.24.26-.74.88-.12.91,1,1.76-.09,2.69,0a3.08,3.08,0,0,0,.72-.07c1.42.14,2.61-.52,4.06-.65a2.81,2.81,0,0,0,1-.56c.23-.09.5,0,.69,0a1.74,1.74,0,0,0,.77-.34c-.27.09-.46.2-.76.28s.09-.38.21-.48.19.23.24.16.22-.16.35-.26.08.21.11.18.27-.48.4-.42l.27.1a.26.26,0,0,0,.15,0l.09-.09a1.23,1.23,0,0,1-.08-.29l.18.07-.18-.07a1.23,1.23,0,0,0,.08.29,5.6,5.6,0,0,1,.74-.54v0a.49.49,0,0,1-.49-.12c.08.06.08.14,0,.17l-.08-.14c.12-.1.25-.2.41,0l.07-.1s.06.12.08.2l.09,0A1.4,1.4,0,0,0,170.35,118.37Z" transform="translate(0 -0.15)"/><path class="cls-2" d="M168.76,118.57l.08,0h-.31C168.6,118.67,168.68,118.62,168.76,118.57Z" transform="translate(0 -0.15)"/></g><g class="cls-1"><path class="cls-2" d="M127.72,85.86l-.36,0a.48.48,0,0,1,.17.12C127.61,86,127.66,85.91,127.72,85.86Z" transform="translate(0 -0.15)"/><path class="cls-2" d="M127,85.76H127l-.06,0Z" transform="translate(0 -0.15)"/><path class="cls-2" d="M126.39,85.76a.88.88,0,0,0,.32,0A.66.66,0,0,0,126.39,85.76Z" transform="translate(0 -0.15)"/><path class="cls-2" d="M126.88,85.89s0-.1,0-.12h-.19A.5.5,0,0,1,126.88,85.89Z" transform="translate(0 -0.15)"/><path class="cls-2" d="M126.88,85.89,127,86A.57.57,0,0,0,126.88,85.89Z" transform="translate(0 -0.15)"/><path class="cls-2" d="M126.62,86.88c-.07,0,0-.26-.15-.21a3.21,3.21,0,0,1-.84.14c-.13,0-.29-.28-.42-.23-.31.06-1.08.39-.64.41l1.7,0c.49-.07,1-.15,1.47-.2a1.35,1.35,0,0,1,.4.08l-.52-.2C127.37,86.53,127,86.86,126.62,86.88Z" transform="translate(0 -0.15)"/><path class="cls-2" d="M130.36,86.4l-.21.07a.93.93,0,0,0-.85-.18l.11.16c.17,0,.2-.06.06-.15a1.7,1.7,0,0,0,1,.32C130.43,86.54,130.44,86.46,130.36,86.4Z" transform="translate(0 -0.15)"/><path class="cls-2" d="M130.63,86.63h-.2v0h.19Z" transform="translate(0 -0.15)"/><path class="cls-2" d="M125,85.91l-2.41-.17c-.06.05-.1.12-.18.08a.44.44,0,0,0-.18-.11l-.34,0h-.12c-.06,0,0,.07,0,.12a.58.58,0,0,1,.12.1l-.12-.1a.51.51,0,0,0-.18-.09,1.14,1.14,0,0,1-.32,0,.58.58,0,0,1,.32,0l.2,0,0,0-.77-.06-.16,0c-.19,0-.37.07-.49-.07h-.14l0,0,0,0-.58,0-.39.17-.13-.14a.4.4,0,0,1-.22.14c.11.09.2.18.29.24s.29-.3.45,0c-.16-.28-.32.16-.45,0s-.18-.15-.29-.24a.73.73,0,0,1-.62-.13.54.54,0,0,1,.62.13.4.4,0,0,0,.22-.14l.13.14.39-.17-1.17-.06a56.17,56.17,0,0,0-7.52.28l-.27,0h-.5a5,5,0,0,1-.55,0h-.17v-.08l.06-.32a3.57,3.57,0,0,1,.13-.54l.07-.22a.75.75,0,0,0,0-.17l0-.24.14-.93c.1-.61.19-1.21.32-1.81A10,10,0,0,1,111.69,78a34.66,34.66,0,0,0,1.45-3.42,1.16,1.16,0,0,0-1.35-1.29c-1.31.28-1.08,1.12-2.27,2.49.74-1,.31,1-.68,1.87a4,4,0,0,0-1.24,2.62c-.17,1-.18,2.13-.42,3.12a4,4,0,0,0-.11.79l0,.58,0,.79c0,.72-.1,1.44-.13,2.17l0,1.1c.32,0,.68-.07,1-.11.7-.1,1.38-.17,2.11-.3L111,88.2l.52-.09a33,33,0,0,1,4.35-.52,11.53,11.53,0,0,0,2.19-.51,12.74,12.74,0,0,1,1.44.07,7.55,7.55,0,0,0,1.72-.22c-.59,0-1,.12-1.68.16-.44,0,.3-.37.6-.45.12-.06.32.26.44.2a3.9,3.9,0,0,0,.82-.2c.13-.06.1.23.17.2.39,0,.71-.42,1-.33l.53.16a1.12,1.12,0,0,0,.32,0l.23-.06a.8.8,0,0,1-.09-.31c.11,0,.25.1.36.12-.11,0-.25-.1-.36-.12a.8.8,0,0,0,.09.31,15.4,15.4,0,0,1,1.72-.32v0a1.78,1.78,0,0,1-1-.24c.14.07.12.15,0,.15l-.12-.15a.93.93,0,0,1,.87.11l.19-.09c.09.05.08.14.09.22h.2A2.25,2.25,0,0,0,125,85.91Z" transform="translate(0 -0.15)"/><path class="cls-2" d="M121.61,85.73l.16,0-.65-.06C121.23,85.8,121.42,85.76,121.61,85.73Z" transform="translate(0 -0.15)"/></g><path class="cls-3" d="M171.29,62.46l-.17,29.59" transform="translate(0 -0.15)"/><g class="cls-1"><path class="cls-2" d="M171.53,89.62c0-.1,0-.2,0-.29a.41.41,0,0,1-.1.14C171.41,89.54,171.48,89.57,171.53,89.62Z" transform="translate(0 -0.15)"/><path class="cls-2" d="M171.57,89.05v0l0,0Z" transform="translate(0 -0.15)"/><path class="cls-2" d="M171.5,88.54a.57.57,0,0,0,0,.26A.47.47,0,0,0,171.5,88.54Z" transform="translate(0 -0.15)"/><path class="cls-2" d="M171.42,89c.05,0,.09,0,.12,0h0l0-.15A.6.6,0,0,1,171.42,89Z" transform="translate(0 -0.15)"/><path class="cls-2" d="M171.42,89l-.1.09Z" transform="translate(0 -0.15)"/><path class="cls-2" d="M170.41,88.81s.25,0,.19-.14a2.31,2.31,0,0,1-.21-.68c-.06-.1.26-.26.19-.36s-.46-.86-.44-.5c0,.55.11.9.16,1.4s.25.78.35,1.19a.93.93,0,0,1,0,.33c0-.14.09-.29.14-.45S170.47,89.14,170.41,88.81Z" transform="translate(0 -0.15)"/><path class="cls-2" d="M171.35,91.8a1.5,1.5,0,0,1-.1-.16c.21-.22.13-.47.05-.71l-.14.11c0,.14.09.15.16,0a1.19,1.19,0,0,0-.18.82C171.22,91.87,171.31,91.88,171.35,91.8Z" transform="translate(0 -0.15)"/><path class="cls-2" d="M171.16,92.05a1,1,0,0,1,0-.16h0a1.24,1.24,0,0,1,0,.16Z" transform="translate(0 -0.15)"/><path class="cls-2" d="M171.24,87.44c0-.68,0-1.33,0-2-.06,0-.12-.08-.09-.15a.36.36,0,0,0,.11-.14c0-.09,0-.19,0-.28a.29.29,0,0,0,0-.09h0s-.08,0-.12,0l-.1.09.1-.09a.31.31,0,0,0,.08-.15,1.11,1.11,0,0,1,0-.26.34.34,0,0,1,0,.26s0,.1,0,.16l0,0c0-.21,0-.42,0-.63a.51.51,0,0,0,0-.13c0-.15-.08-.3.07-.39v-.12l0,0,0-.05c0-.15,0-.31,0-.47a2,2,0,0,1-.17-.32l.15-.1a.34.34,0,0,1-.14-.18,2.94,2.94,0,0,0-.25.24c-.14.1.29.23,0,.36.27-.13-.16-.26,0-.36a2.94,2.94,0,0,1,.25-.24.53.53,0,0,1,.14-.5c.12.2,0,.36-.14.5a.34.34,0,0,0,.14.18l-.15.1a2,2,0,0,0,.17.32c0-.31,0-.62.08-.94.19-2.06.17-4,.32-6.1.09-1.15.22-2.26.39-3.35.35-2.18,0-4.16.72-6.36a12,12,0,0,0,.1-3.22c-.47-1.09-1.71-.53-1.78-.48-1.06.66-.47,1.19-1.1,2.55.36-.93.67.69-.05,1.56-1.11,1.27-.24,3.08-.53,4.65a8.59,8.59,0,0,0-.05,1.27c-.39,2.43.06,4.69,0,7.24a7.07,7.07,0,0,0,.41,1.84,10.38,10.38,0,0,1-.1,1.2,5.29,5.29,0,0,0,.22,1.43c-.05-.49-.13-.85-.17-1.4,0-.36.37.26.45.5s-.25.26-.19.37a2.34,2.34,0,0,0,.21.67c.06.1-.23.09-.2.14.07.33.44.59.36.8s-.09.3-.14.44a.8.8,0,0,0,0,.27,1.34,1.34,0,0,1,.07.18.79.79,0,0,1,.31-.08c0,.08-.08.21-.1.29,0-.08.08-.21.1-.29a.79.79,0,0,0-.31.08,12,12,0,0,1,.44,1.4h0a1.24,1.24,0,0,1,.17-.82c-.06.12-.14.11-.16,0l.15-.11c.08.25.16.49-.05.72l.09.15c0,.08-.13.07-.2.09a.88.88,0,0,0,0,.16A2,2,0,0,0,171.24,87.44Z" transform="translate(0 -0.15)"/><path class="cls-2" d="M171.26,84.65a.59.59,0,0,1,0,.13c0-.17,0-.35.05-.52C171.19,84.35,171.22,84.5,171.26,84.65Z" transform="translate(0 -0.15)"/></g><g class="cls-1"><path class="cls-2" d="M194.73,98.59V98a.76.76,0,0,1-.09.28C194.6,98.44,194.67,98.5,194.73,98.59Z" transform="translate(0 -0.15)"/><path class="cls-2" d="M194.73,97.51v-.1l0-.08Z" transform="translate(0 -0.15)"/><path class="cls-2" d="M194.63,96.54a2.64,2.64,0,0,0,0,.49A1.39,1.39,0,0,0,194.63,96.54Z" transform="translate(0 -0.15)"/><path class="cls-2" d="M194.58,97.31c0-.06.08-.09.12,0h0l0-.3A1,1,0,0,1,194.58,97.31Z" transform="translate(0 -0.15)"/><path class="cls-2" d="M194.58,97.31c0,.06-.08.16-.1.19A.85.85,0,0,0,194.58,97.31Z" transform="translate(0 -0.15)"/><path class="cls-2" d="M193.55,97.09c0-.09.26-.08.19-.27a7.63,7.63,0,0,1-.24-1.27c-.07-.19.24-.51.17-.7-.09-.46-.5-1.62-.47-.93.07,1,.16,1.71.24,2.64.13.75.27,1.5.41,2.25a4.28,4.28,0,0,1,0,.62l.11-.84C194,98.19,193.63,97.72,193.55,97.09Z" transform="translate(0 -0.15)"/><path class="cls-2" d="M194.67,102.72l-.11-.29a2.15,2.15,0,0,0,0-1.35l-.14.21c0,.26.11.29.16,0a4.17,4.17,0,0,0-.13,1.56C194.54,102.86,194.63,102.87,194.67,102.72Z" transform="translate(0 -0.15)"/><path class="cls-2" d="M194.5,103.2l0-.3h0l.05.3Z" transform="translate(0 -0.15)"/><path class="cls-2" d="M194.32,94.47c0-1.29,0-2.52,0-3.71-.05-.09-.12-.15-.09-.28a1,1,0,0,0,.1-.28v-.52l0-.18h0c0-.1-.08-.07-.12,0a1,1,0,0,1-.1.18,1.12,1.12,0,0,1,.1-.18.89.89,0,0,0,.08-.29,2,2,0,0,1,0-.49,1.63,1.63,0,0,1,0,.49l0,.3,0,.08,0-1.19,0-.25a1,1,0,0,1,.06-.75v-.21l0,0,0-.08,0-.9c0-.19-.12-.39-.16-.59l.14-.2a.66.66,0,0,1-.14-.34,5.07,5.07,0,0,0-.24.45c-.15.2.28.45,0,.69.27-.24-.16-.49,0-.69a5.07,5.07,0,0,1,.24-.45,1.65,1.65,0,0,1,.14-.94,1.16,1.16,0,0,1-.14.94.66.66,0,0,0,.14.34l-.14.2c0,.2.11.4.16.59,0-.58.05-1.18.08-1.78.2-3.89.25-7.49.63-11.5.23-2.18.5-4.26.89-6.28.21-1.17.38-2.31.55-3.44.11-.77.23-1.52.34-2.28.14-.91.29-1.82.43-2.74l-2.07.28c-.35,0-.7.09-1.06.12l-.54.05-.46,0a19.61,19.61,0,0,1-2.53-.08c-1.57-.12-4.42.08-5.92,0-2,.4-1.05,1.67-.95,1.75,1.24,1.09,2.25.57,4.89,1.1-1.79-.29,1.27-.7,3-.15a5.8,5.8,0,0,0,1,.23l.54,0h.41s0,0,0,0,.09.06.19,0a2.43,2.43,0,0,1,0,.37v.07l0,.15-.07.57c-.05.37-.11.74-.19,1.1-.17.74-.2,1.54-.31,2.43-.85,4.6-.62,9-.81,13.81a21.78,21.78,0,0,0,.36,3.51c0,.8-.1,1.64-.1,2.29a17,17,0,0,0,.24,2.71c-.05-.93-.14-1.61-.18-2.65,0-.69.36.48.45.94.06.2-.25.5-.19.7a8.81,8.81,0,0,0,.22,1.28c.07.19-.22.17-.19.27.07.62.45,1.1.38,1.5l-.12.84a2.18,2.18,0,0,0,0,.51l.08.34a.67.67,0,0,1,.3-.16c0,.17-.07.4-.09.57,0-.17.07-.4.09-.57a.67.67,0,0,0-.3.16c.18.82.35,1.76.49,2.64h0a4.18,4.18,0,0,1,.14-1.56c-.06.24-.14.21-.16-.05l.14-.21a2.15,2.15,0,0,1,0,1.35l.1.29c0,.15-.12.14-.2.18l0,.3A4.79,4.79,0,0,0,194.32,94.47Z" transform="translate(0 -0.15)"/><path class="cls-2" d="M194.24,89.19l0,.25,0-1A1,1,0,0,0,194.24,89.19Z" transform="translate(0 -0.15)"/></g><path class="cls-3" d="M209.93,54.48c-5.18,18.15-2.69,38-2.25,56.64" transform="translate(0 -0.15)"/><g class="cls-1"><path class="cls-2" d="M207.93,106.42v-.57a.81.81,0,0,1-.09.29C207.8,106.27,207.87,106.33,207.93,106.42Z" transform="translate(0 -0.15)"/><path class="cls-2" d="M207.92,105.32v-.1l0-.08Z" transform="translate(0 -0.15)"/><path class="cls-2" d="M207.81,104.34a2.07,2.07,0,0,0,0,.5A1.78,1.78,0,0,0,207.81,104.34Z" transform="translate(0 -0.15)"/><path class="cls-2" d="M207.77,105.13c0-.06.08-.1.12,0h0l0-.3A1.12,1.12,0,0,1,207.77,105.13Z" transform="translate(0 -0.15)"/><path class="cls-2" d="M207.77,105.13a1.82,1.82,0,0,0-.1.19A1.14,1.14,0,0,0,207.77,105.13Z" transform="translate(0 -0.15)"/><path class="cls-2" d="M206.74,104.92c0-.1.25-.09.18-.28a7.86,7.86,0,0,1-.26-1.28c-.08-.2.23-.52.16-.72-.11-.46-.55-1.63-.5-.93.09,1.05.2,1.73.29,2.67.15.76.32,1.49.45,2.27a4.41,4.41,0,0,1,0,.63l.1-.85C207.22,106,206.83,105.55,206.74,104.92Z" transform="translate(0 -0.15)"/><path class="cls-2" d="M207.89,110.62l-.1-.29a2.21,2.21,0,0,0,0-1.37l-.14.21c0,.26.11.29.17,0a4.29,4.29,0,0,0-.13,1.58C207.77,110.77,207.86,110.77,207.89,110.62Z" transform="translate(0 -0.15)"/><path class="cls-2" d="M207.72,111.11l0-.31h0l.05.31Z" transform="translate(0 -0.15)"/><path class="cls-2" d="M207.45,102.25c-.07-1.32-.11-2.56-.14-3.77-.06-.09-.13-.15-.1-.28a1.08,1.08,0,0,0,.09-.29v-.53l0-.18h0c0-.1-.08-.06-.12,0a1.14,1.14,0,0,1-.1.19s.06-.13.1-.19a1.23,1.23,0,0,0,.07-.29,2.74,2.74,0,0,1,0-.5,1.5,1.5,0,0,1,0,.5l0,.3,0,.08V96.07l0-.25a1.07,1.07,0,0,1,0-.76v-.22l0,0,0-.09v-.91c-.06-.19-.14-.4-.19-.6l.14-.21a.64.64,0,0,1-.16-.33c-.08.17-.17.32-.22.46s.31.45,0,.7c.26-.25-.19-.49,0-.7s.14-.29.22-.46a1.74,1.74,0,0,1,.11-1,1.19,1.19,0,0,1-.11,1,.64.64,0,0,0,.16.33l-.14.21c0,.2.13.41.19.6,0-.6,0-1.2,0-1.82,0-4-.1-7.6.08-11.7,0-1.11.12-2.19.22-3.26s.2-2.12.35-3.15c.57-4.1.54-7.93,2-11.9.53-1.52,1-4.41,1.4-5.89,0-2.1-1.4-1.42-1.49-1.34a3.16,3.16,0,0,0-1.18,1.73,30,30,0,0,1-1,2.83c.74-1.68.35,1.43-.61,3-1.53,2.28-1.06,5.93-1.58,8.94-.14.76-.11,1.57-.19,2.48-.63,4.72-.16,9.12-.13,14a23.6,23.6,0,0,0,.53,3.54c.08.8,0,1.66,0,2.31a19.08,19.08,0,0,0,.35,2.74c-.09-.94-.2-1.62-.29-2.67,0-.7.39.47.49.93.08.2-.23.52-.16.72a7.92,7.92,0,0,0,.27,1.28c.07.2-.22.19-.18.28.1.63.49,1.1.43,1.51l-.1.86a4.56,4.56,0,0,0,0,.52l.09.34a.62.62,0,0,1,.29-.17c0,.17-.06.41-.06.57,0-.16.06-.4.06-.57a.62.62,0,0,0-.29.17c.2.82.4,1.77.56,2.66h0a4.26,4.26,0,0,1,.1-1.58c0,.24-.13.21-.16-.06l.13-.21a2.29,2.29,0,0,1,0,1.37l.11.3c0,.15-.13.14-.2.18l0,.3A4.4,4.4,0,0,0,207.45,102.25Z" transform="translate(0 -0.15)"/><path class="cls-2" d="M207.22,96.89l0,.25v-1A1,1,0,0,0,207.22,96.89Z" transform="translate(0 -0.15)"/></g><path class="cls-3" d="M173.29,119.61c10.22,4.63,7.18,19.56,14.33,26.73" transform="translate(0 -0.15)"/><g class="cls-1"><path class="cls-2" d="M186.35,144.11l-.15-.26a.6.6,0,0,1,0,.19C186.21,144.11,186.28,144.1,186.35,144.11Z" transform="translate(0 -0.15)"/><polygon class="cls-2" points="186.06 143.46 186.04 143.41 185.99 143.38 186.06 143.46"/><path class="cls-2" d="M185.71,143.2a.73.73,0,0,0,.16.22A.44.44,0,0,0,185.71,143.2Z" transform="translate(0 -0.15)"/><path class="cls-2" d="M185.88,143.59c0-.05.05-.08.11-.06h0l-.12-.11A.33.33,0,0,1,185.88,143.59Z" transform="translate(0 -0.15)"/><path class="cls-2" d="M185.88,143.59a1.21,1.21,0,0,0,0,.14A.7.7,0,0,0,185.88,143.59Z" transform="translate(0 -0.15)"/><path class="cls-2" d="M184.93,144c-.05,0,.2-.17.08-.23a2.08,2.08,0,0,1-.53-.54c-.11-.08.1-.38,0-.45s-.84-.64-.64-.29c.31.52.54.85.84,1.3l1,.91a2.38,2.38,0,0,1,.17.31l-.16-.47C185.65,144.3,185.19,144.27,184.93,144Z" transform="translate(0 -0.15)"/><path class="cls-2" d="M187.61,146l-.18,0c0-.33-.22-.46-.45-.6l0,.18c.1.1.18.06.14-.08a1.34,1.34,0,0,0,.43.77C187.56,146.13,187.63,146.07,187.61,146Z" transform="translate(0 -0.15)"/><path class="cls-2" d="M187.65,146.31l-.13-.11v0l.13.1Z" transform="translate(0 -0.15)"/><path class="cls-2" d="M185,142.31a10.21,10.21,0,0,1-.79-1.9c-.08,0-.15,0-.14-.11a.74.74,0,0,0,0-.18l-.1-.28,0-.08h0s-.08,0-.11,0l-.06.13a.49.49,0,0,1,.06-.13.52.52,0,0,0,0-.18.55.55,0,0,1-.1-.25.47.47,0,0,1,.1.25l.09.15,0,0-.17-.64-.07-.12c-.08-.14-.17-.28-.06-.42l0-.11,0,0a.43.43,0,0,1,0-.05l-.12-.49a3.07,3.07,0,0,1-.25-.26l.11-.15a.34.34,0,0,1-.19-.14,2.31,2.31,0,0,0-.16.31c-.11.15.34.15.13.36.21-.21-.24-.21-.13-.36a2.31,2.31,0,0,1,.16-.31.59.59,0,0,1,0-.55c.17.17.11.36,0,.55a.34.34,0,0,0,.19.14l-.11.15a3.07,3.07,0,0,0,.25.26c-.07-.31-.13-.64-.2-1-.42-2.12-.9-4.06-1.4-6.28-.12-.61-.26-1.2-.39-1.79s-.25-1.18-.41-1.76a13,13,0,0,0-1.36-3.26c-.31-.51-.62-1-.9-1.57a13,13,0,0,1-1-1.66,6.25,6.25,0,0,0-1.42-1.38,4,4,0,0,0-.9-.55l-.79-.4c-1.36-.2-1.25,1.26-1.26,1.34a1.43,1.43,0,0,0,.58,1.13l.51.39a3.13,3.13,0,0,1,.5.76c-.23-.41,0-.45.32-.23a1.61,1.61,0,0,1,.76,1.27,2.07,2.07,0,0,0,.27,1,5.59,5.59,0,0,0,.57.92,5.88,5.88,0,0,1,1.18,2c.1.37.29.74.44,1.17.52,2.35,1.52,4.47,2.13,7.11a7.94,7.94,0,0,0,.92,1.79,9.77,9.77,0,0,1,.26,1.26,5.8,5.8,0,0,0,.7,1.41c-.21-.49-.41-.84-.63-1.39-.14-.37.43.16.59.38s-.15.35,0,.43a2.24,2.24,0,0,0,.42.63c.09.08-.18.16-.13.21.17.31.63.44.64.68l.05.49a.92.92,0,0,0,.09.28l.14.15a.85.85,0,0,1,.25-.2c0,.1,0,.24,0,.34,0-.1,0-.24,0-.34a.85.85,0,0,0-.25.2c.31.38.73.78,1.05,1.17h0a1.31,1.31,0,0,1-.23-.86c0,.15-.08.17-.16,0l.08-.16c.18.2.37.39.29.69l.16.11c0,.09-.08.13-.14.18l.1.14A2.31,2.31,0,0,0,185,142.31Z" transform="translate(0 -0.15)"/><path class="cls-2" d="M183.84,139.6l.07.13-.14-.54C183.67,139.33,183.76,139.47,183.84,139.6Z" transform="translate(0 -0.15)"/></g><path class="cls-3" d="M182.85,136a24.9,24.9,0,0,0,8.86-1.15" transform="translate(0 -0.15)"/><g class="cls-1"><path class="cls-2" d="M190.89,134.68h-.09a.23.23,0,0,1,.07.09S190.89,134.74,190.89,134.68Z" transform="translate(0 -0.15)"/><path class="cls-2" d="M190.72,134.7h0v0Z" transform="translate(0 -0.15)"/><path class="cls-2" d="M190.59,134.81a.06.06,0,0,0,.07,0A0,0,0,0,0,190.59,134.81Z" transform="translate(0 -0.15)"/><path class="cls-2" d="M190.73,134.85a.18.18,0,0,1,0-.12h0l0,.05A.15.15,0,0,1,190.73,134.85Z" transform="translate(0 -0.15)"/><path class="cls-2" d="M190.73,134.85l.06.09Z" transform="translate(0 -0.15)"/><path class="cls-2" d="M191,135.84s-.08-.25-.1-.17-.08.23-.15.25-.14-.22-.16-.15-.14.52,0,.47.24-.19.38-.28.17-.31.26-.44.07,0,.1,0l-.16-.08C191,135.37,191.05,135.75,191,135.84Z" transform="translate(0 -0.15)"/><path class="cls-2" d="M191.56,134.65v.11c-.13-.18-.17-.08-.22,0l.08.13s0-.11,0-.16c.13.15.22.15.29.09A.67.67,0,0,0,191.56,134.65Z" transform="translate(0 -0.15)"/><path class="cls-2" d="M191.69,134.81l0,0v0l0-.06Z" transform="translate(0 -0.15)"/><path class="cls-2" d="M190.34,135.15a2,2,0,0,1-.58.11c0,.06,0,.13,0,.1a.4.4,0,0,0-.07-.09h-.08l0,0h0a.18.18,0,0,0,0,.12l0,.09,0-.09a.22.22,0,0,0-.06-.07.08.08,0,0,1-.08,0s.05,0,.08,0l0,0v0h-.19l0,0s-.07.1-.13,0h0v0l0,0H189a.87.87,0,0,1-.07.17l-.05-.13a.28.28,0,0,1,0,.15l.12.22c.06.14,0-.29.1,0-.09-.25,0,.18-.1,0l-.12-.22c0,.06-.1,0-.17-.11s.1,0,.17.11a.28.28,0,0,0,0-.15l.05.13a.87.87,0,0,0,.07-.17l-.3,0c-.63-.08-1.18,0-1.83,0a3.71,3.71,0,0,1-1-.29c-.64-.29-1.22.12-1.85-.61-.24-.25-.68-.12-.91-.1a3.46,3.46,0,0,0-.21,1.77c.16,1.06.34.49.76,1.11-.28-.35.22-.67.49.05.42,1.1,1,.21,1.5.46.13.06.26,0,.41,0,.82.32,1.5-.23,2.32-.27.22,0,.37-.33.52-.51s.28,0,.39,0a.65.65,0,0,0,.4-.32,2.75,2.75,0,0,1-.4.26c-.11,0,0-.37.07-.47s.13.23.15.16.11-.15.16-.25.08.22.09.18.08-.46.16-.4l.17.1s.06,0,.08,0l0-.08c0-.08-.06-.19-.1-.29l.12.07-.12-.07c0,.1.07.21.1.29a5.47,5.47,0,0,1,.31-.54v0c-.07.05-.16,0-.28-.11,0,.06.07.13,0,.16l-.07-.13c.05-.1.1-.19.22,0l0-.11a.46.46,0,0,1,.08.2l0,0A1.52,1.52,0,0,0,190.34,135.15Z" transform="translate(0 -0.15)"/><path class="cls-2" d="M189.52,135.34l0,0h-.17C189.45,135.44,189.49,135.39,189.52,135.34Z" transform="translate(0 -0.15)"/></g><path class="cls-3" d="M193.11,128.61a24.9,24.9,0,0,0-8.86,1.1" transform="translate(0 -0.15)"/><g class="cls-1"><path class="cls-2" d="M185.06,129.88h.09l-.07-.09S185.06,129.82,185.06,129.88Z" transform="translate(0 -0.15)"/><path class="cls-2" d="M185.23,129.86h0v0Z" transform="translate(0 -0.15)"/><path class="cls-2" d="M185.36,129.75s-.05,0-.07,0S185.34,129.79,185.36,129.75Z" transform="translate(0 -0.15)"/><path class="cls-2" d="M185.23,129.71a.27.27,0,0,1,0,.12h0l0-.05A.22.22,0,0,1,185.23,129.71Z" transform="translate(0 -0.15)"/><path class="cls-2" d="M185.23,129.71l-.06-.09Z" transform="translate(0 -0.15)"/><path class="cls-2" d="M185,128.72s.08.24.1.17.08-.24.15-.25.14.22.16.15.14-.52,0-.47a3.83,3.83,0,0,0-.39.27c-.09.15-.17.32-.26.45a.14.14,0,0,1-.11,0l.17.09C184.94,129.19,184.91,128.81,185,128.72Z" transform="translate(0 -0.15)"/><path class="cls-2" d="M184.39,129.9v-.11c.13.18.18.08.22,0l-.07-.12s0,.1,0,.15c-.14-.14-.22-.14-.29-.09A.85.85,0,0,0,184.39,129.9Z" transform="translate(0 -0.15)"/><path class="cls-2" d="M184.26,129.75l0,0v0l0,.05Z" transform="translate(0 -0.15)"/><path class="cls-2" d="M185.61,129.41a3.06,3.06,0,0,1,.59-.11c0-.06,0-.12,0-.09l.07.09h.08l0,0h0a.15.15,0,0,0,0-.11l-.05-.1.05.1.06.07a.07.07,0,0,1,.08,0s0,0-.08,0l0,0v0h.19l0,0s.08-.09.13,0h0v0h.15c0-.06,0-.13.06-.18l.06.14a.28.28,0,0,1,0-.15l-.12-.22c-.06-.14,0,.29-.1,0,.09.26,0-.17.1,0l.12.22c0-.06.1,0,.17.11s-.1,0-.17-.11a.28.28,0,0,0,0,.15l-.06-.14c0,.05,0,.12-.06.18l.29,0c.64.08,1.19,0,1.84,0a3.64,3.64,0,0,1,1,.29c.65.3,1.22-.11,1.85.62.24.26.68.13.91.11a3.52,3.52,0,0,0,.22-1.78c-.15-1-.34-.48-.75-1.11.28.36-.22.67-.5,0-.41-1.1-1-.21-1.49-.46-.13-.07-.26,0-.41,0-.82-.32-1.51.22-2.33.26-.21,0-.36.33-.51.51s-.29,0-.4,0a.7.7,0,0,0-.4.31c.14-.08.24-.18.4-.26s0,.38-.06.48-.14-.24-.16-.17-.1.16-.16.25-.07-.21-.08-.18-.09.47-.17.4l-.17-.09s-.06,0-.08,0l0,.08c0,.08.06.19.09.29l-.11-.07.11.07c0-.1-.06-.21-.09-.29a4.52,4.52,0,0,1-.31.54v0c.07-.05.15,0,.28.11-.05,0-.07-.13,0-.16l.07.13c-.06.1-.11.2-.23,0l0,.11a.57.57,0,0,1-.07-.2l-.05,0A1.52,1.52,0,0,0,185.61,129.41Z" transform="translate(0 -0.15)"/><path class="cls-2" d="M186.44,129.22s0,0,0,0h.17C186.51,129.13,186.47,129.18,186.44,129.22Z" transform="translate(0 -0.15)"/></g><g class="cls-1"><path class="cls-2" d="M205,144l-.2-.27a.6.6,0,0,1,0,.2C204.83,144,204.9,144,205,144Z" transform="translate(0 -0.15)"/><polygon class="cls-2" points="204.59 143.34 204.55 143.3 204.5 143.27 204.59 143.34"/><path class="cls-2" d="M204.15,143.1a1.1,1.1,0,0,0,.21.22A.49.49,0,0,0,204.15,143.1Z" transform="translate(0 -0.15)"/><path class="cls-2" d="M204.4,143.5c0-.06,0-.1.1-.08h0l-.14-.11A.53.53,0,0,1,204.4,143.5Z" transform="translate(0 -0.15)"/><path class="cls-2" d="M204.4,143.5c0,.05,0,.12,0,.15A.76.76,0,0,0,204.4,143.5Z" transform="translate(0 -0.15)"/><path class="cls-2" d="M203.52,144c-.06,0,.17-.19,0-.24a2.72,2.72,0,0,1-.65-.47c-.12-.06,0-.4-.11-.46s-1-.49-.71-.17c.43.47.73.76,1.14,1.16s.78.53,1.16.82a1.39,1.39,0,0,1,.23.31l-.23-.48C204.29,144.27,203.82,144.28,203.52,144Z" transform="translate(0 -0.15)"/><path class="cls-2" d="M206.51,146l-.19-.06c0-.34-.27-.48-.52-.63l0,.18c.12.11.19.07.14-.08a1.56,1.56,0,0,0,.5.81C206.47,146.12,206.54,146.06,206.51,146Z" transform="translate(0 -0.15)"/><path class="cls-2" d="M206.56,146.31l-.14-.12v0l.15.11Z" transform="translate(0 -0.15)"/><path class="cls-2" d="M203.18,142.29c-.5-.61-.93-1.21-1.33-1.81-.07,0-.15,0-.17-.08a.44.44,0,0,0,0-.2l-.17-.26-.09-.08h0c-.06,0-.09,0-.1.06a.68.68,0,0,1,0,.15s0-.09,0-.15a.57.57,0,0,0,0-.18,1.08,1.08,0,0,1-.18-.24.56.56,0,0,1,.18.24l.13.12.06,0c-.14-.2-.26-.41-.38-.62l-.1-.11c-.13-.12-.25-.24-.2-.41l-.06-.11v0l-.27-.47a2.39,2.39,0,0,1-.34-.21l.06-.18a.32.32,0,0,1-.23-.09c0,.13-.05.25-.06.36s.39.07.24.34c.15-.27-.3-.16-.24-.34s0-.23.06-.36a.66.66,0,0,1-.18-.56c.22.12.22.34.18.56a.32.32,0,0,0,.23.09l-.06.18a2.39,2.39,0,0,0,.34.21c-.18-.3-.34-.62-.51-.94a64.86,64.86,0,0,1-3.05-6.2,24.48,24.48,0,0,1-1.14-3.63c-.56-2.38-1.62-4.4-1.5-7a21.13,21.13,0,0,0-.65-3.51,1.19,1.19,0,0,0-1.85-.22c-.89.93-.26,1.43-.5,3.1.12-1.12.8.63.38,1.79-.71,1.73.76,3.54,1.11,5.35a12.07,12.07,0,0,0,.49,1.42c.7,2.81,2.26,5,3.65,7.68a7.83,7.83,0,0,0,1.45,1.65c.3.38.45.91.67,1.23a6.65,6.65,0,0,0,1.12,1.26c-.37-.44-.66-.75-1.05-1.25-.25-.35.47,0,.69.23s0,.4.08.46a3.18,3.18,0,0,0,.61.53c.12.06-.12.22-.06.25.28.27.75.29.83.53l.19.5a1.45,1.45,0,0,0,.17.26l.18.13a.79.79,0,0,1,.19-.26c.05.09.08.24.13.33-.05-.09-.08-.24-.13-.33a.79.79,0,0,0-.19.26c.44.3.92.65,1.34,1l0,0a1.49,1.49,0,0,1-.44-.84c0,.15,0,.18-.15.07l0-.19c.24.17.47.34.47.67l.19.08c0,.1-.05.15-.1.21l.13.13A2.42,2.42,0,0,0,203.18,142.29Z" transform="translate(0 -0.15)"/><path class="cls-2" d="M201.28,139.73l.11.11c-.11-.17-.21-.35-.31-.52C201,139.49,201.15,139.61,201.28,139.73Z" transform="translate(0 -0.15)"/></g><path class="cls-2" d="M65,191.49a9.72,9.72,0,0,1-4.2,8.37,12.78,12.78,0,0,1-4.16,1.87,18.85,18.85,0,0,1-4.61.58,15.47,15.47,0,0,1-4.05-.46L44.87,201c-.63-.2-1.2-.36-1.7-.5a5.74,5.74,0,0,0-1.52-.21v-6.67h.58a5.19,5.19,0,0,0,1.14,3.54,7.81,7.81,0,0,0,2.67,2,10.79,10.79,0,0,0,3.06.91,17.72,17.72,0,0,0,2.23.2,11.65,11.65,0,0,0,4.35-.73,8.49,8.49,0,0,0,3-1.93,7.77,7.77,0,0,0,1.73-2.66,8.17,8.17,0,0,0,.56-3,6,6,0,0,0-.82-3.25A8.77,8.77,0,0,0,58,186.39a13.51,13.51,0,0,0-3-1.69l-3.45-1.41c-1.33-.51-2.64-1-3.92-1.58a15.26,15.26,0,0,1-3.46-2,9.63,9.63,0,0,1-2.45-2.87,8.26,8.26,0,0,1-.94-4.12,9.58,9.58,0,0,1,1-4.48,9,9,0,0,1,2.67-3.13,11.9,11.9,0,0,1,3.8-1.85,15.72,15.72,0,0,1,4.36-.61,20,20,0,0,1,2.87.2c.9.14,1.76.31,2.58.5.66.16,1.3.28,1.93.38a11.42,11.42,0,0,0,1.81.15v6H61.2a4.33,4.33,0,0,0-2.41-4.13,15.19,15.19,0,0,0-6.35-1.08,8.17,8.17,0,0,0-3.84.79,7,7,0,0,0-2.38,1.93A6.58,6.58,0,0,0,45,169.86a10.16,10.16,0,0,0-.32,2.31,5.18,5.18,0,0,0,.73,2.81,7.36,7.36,0,0,0,2,2.05,15.94,15.94,0,0,0,2.85,1.58c1.07.47,2.2.92,3.37,1.34,1.33.51,2.68,1.06,4,1.64a15.8,15.8,0,0,1,3.67,2.17A10.25,10.25,0,0,1,64,186.92,9.33,9.33,0,0,1,65,191.49Z" transform="translate(0 -0.15)"/><path class="cls-2" d="M82.44,176.85a12.88,12.88,0,0,1,5.48,1.08,11.41,11.41,0,0,1,6.17,6.88,14.66,14.66,0,0,1,.76,4.68,15,15,0,0,1-.73,4.63,12.45,12.45,0,0,1-2.22,4.1,11.31,11.31,0,0,1-3.72,2.92,11.67,11.67,0,0,1-5.27,1.12,8.25,8.25,0,0,1-3.72-1,14,14,0,0,1-3.42-2.43v11.47a4.94,4.94,0,0,0,.12,1,3.47,3.47,0,0,0,.38,1,4.28,4.28,0,0,0,.58.82,1,1,0,0,0,.79.35v.59H70v-.59a1.06,1.06,0,0,0,.77-.35,4,4,0,0,0,.61-.82,3.47,3.47,0,0,0,.38-1,4.94,4.94,0,0,0,.12-1V180.72c0-.36,0-.7,0-1a2.42,2.42,0,0,0-.21-.88,1.53,1.53,0,0,0-.55-.64,2.23,2.23,0,0,0-1.09-.32v-.59h5.74v2.58a8.27,8.27,0,0,1,2.84-2.2A8.8,8.8,0,0,1,82.44,176.85ZM83,200.26a7.39,7.39,0,0,0,3.57-.93,8,8,0,0,0,2.52-2.28,9.82,9.82,0,0,0,1.46-3.14,13.77,13.77,0,0,0,.47-3.6,15.08,15.08,0,0,0-.59-4.15,12.29,12.29,0,0,0-1.69-3.66A9.49,9.49,0,0,0,86,179.87a6.59,6.59,0,0,0-3.65-1,6.68,6.68,0,0,0-2.43.47,6.15,6.15,0,0,0-2.11,1.35,6.68,6.68,0,0,0-1.46,2.07,6.29,6.29,0,0,0-.56,2.67v7.67a6.48,6.48,0,0,0,.64,2.89,8,8,0,0,0,1.67,2.29,7.68,7.68,0,0,0,2.31,1.49A6.79,6.79,0,0,0,83,200.26Z" transform="translate(0 -0.15)"/><path class="cls-2" d="M115.57,201.85v-3l-.29.29a10.84,10.84,0,0,1-3.36,2.29,11.75,11.75,0,0,1-4.6.82,11.6,11.6,0,0,1-3.51-.47,6.43,6.43,0,0,1-2.4-1.32,5.28,5.28,0,0,1-1.38-2,6.36,6.36,0,0,1-.44-2.34,5.83,5.83,0,0,1,1.09-3.51,9.47,9.47,0,0,1,3.13-2.7,26.7,26.7,0,0,1,5-2.13c2-.65,4.23-1.28,6.76-1.91a8.18,8.18,0,0,0-.93-3.68,7,7,0,0,0-1.93-2.2,6.25,6.25,0,0,0-2.35-1,10,10,0,0,0-2.1-.27,7,7,0,0,0-2.67.47,7.69,7.69,0,0,0-2,1.2,8.78,8.78,0,0,0-1.43,1.58,12.27,12.27,0,0,0-.94,1.61h-.52v-4.27a2.42,2.42,0,0,0,.87-.29,8.67,8.67,0,0,1,1-.47c.58-.23,1.38-.58,2.4-1a11,11,0,0,1,4.27-.67,14,14,0,0,1,5.21.82,7.48,7.48,0,0,1,3.07,2.17,7.07,7.07,0,0,1,1.44,3.07,18,18,0,0,1,.35,3.54V198a4.79,4.79,0,0,0,.53,2.2,1.58,1.58,0,0,0,1.4,1v.59Zm0-5.57v-8.37L115,188c-.94.24-2.08.55-3.43.94a21.67,21.67,0,0,0-3.83,1.52,12.46,12.46,0,0,0-3.1,2.22,4.11,4.11,0,0,0-1.29,3,3.83,3.83,0,0,0,1.52,3.1,6.14,6.14,0,0,0,4,1.23,6.63,6.63,0,0,0,3.4-.85,11.25,11.25,0,0,0,2.69-2.19Z" transform="translate(0 -0.15)"/><path class="cls-2" d="M141.15,181.53a3.31,3.31,0,0,0-1.46-1.46,5,5,0,0,0-1.76-.29,3.75,3.75,0,0,0-1.37.29,8.31,8.31,0,0,0-1.44.76,16.34,16.34,0,0,0-1.37,1q-.67.55-1.14,1V198.1a4.41,4.41,0,0,0,.11,1,4.25,4.25,0,0,0,.38,1,3.53,3.53,0,0,0,.59.82,1.09,1.09,0,0,0,.79.32v.59h-7.61v-.59a1.12,1.12,0,0,0,.76-.32,3.33,3.33,0,0,0,.62-.82,4.25,4.25,0,0,0,.38-1,5.08,5.08,0,0,0,.11-1V181.77a3,3,0,0,0-.52-1.64,2.37,2.37,0,0,0-1.53-1v-.47l5.92-1.76v3.51c.35-.43.72-.85,1.11-1.25A8.32,8.32,0,0,1,135,178a7.86,7.86,0,0,1,1.61-.82,6.09,6.09,0,0,1,2.05-.32,8.56,8.56,0,0,1,2.11.35,12.49,12.49,0,0,1,2.11.76Z" transform="translate(0 -0.15)"/><path class="cls-2" d="M152.33,179.25v14.11c0,1,0,1.93.06,2.75a9.68,9.68,0,0,0,.29,2,2.83,2.83,0,0,0,.7,1.26,1.85,1.85,0,0,0,1.29.44,3.12,3.12,0,0,0,2.31-1.18,5.42,5.42,0,0,0,1.38-2.8h.53v4.27a1.17,1.17,0,0,0-.88.35,7.49,7.49,0,0,1-1.32.88,5.41,5.41,0,0,1-2.54.47,5.7,5.7,0,0,1-3.28-.82,4.67,4.67,0,0,1-1.7-2.17,9.34,9.34,0,0,1-.61-3c-.06-1.1-.09-2.21-.09-3.34V179.25h-3.28v-2h3.28v-5.21a6,6,0,0,0-.27-1.84c-.17-.57-.75-.87-1.72-.91v-.58l5.85-1.88v10.42h6.56v2Z" transform="translate(0 -0.15)"/><path class="cls-2" d="M186.81,198a5,5,0,0,0,.11,1,3.77,3.77,0,0,0,.38,1,4.65,4.65,0,0,0,.59.82,1,1,0,0,0,.79.35v.59h-7.55v-.59a1.07,1.07,0,0,0,.76-.35,3.89,3.89,0,0,0,.61-.82,3.48,3.48,0,0,0,.39-1,5.75,5.75,0,0,0,.11-1V187.15a10.57,10.57,0,0,0-.58-3.68,7.64,7.64,0,0,0-1.58-2.64,6.31,6.31,0,0,0-2.26-1.55,6.73,6.73,0,0,0-5.09,0,7,7,0,0,0-2.22,1.38,6.81,6.81,0,0,0-1.58,2.13,6.27,6.27,0,0,0-.62,2.78V198a5,5,0,0,0,.12,1,3.47,3.47,0,0,0,.38,1,4.61,4.61,0,0,0,.58.82,1.05,1.05,0,0,0,.79.35v.59h-7.61v-.59a1.1,1.1,0,0,0,.77-.35,4.27,4.27,0,0,0,.61-.82,3.47,3.47,0,0,0,.38-1,5,5,0,0,0,.12-1V168.13a6,6,0,0,0-.29-1.87c-.2-.59-.77-.9-1.7-.94v-.58l5.85-1.82v16.92a10.37,10.37,0,0,1,1.05-1,8.82,8.82,0,0,1,1.56-1.05,9.2,9.2,0,0,1,2.1-.82,11.28,11.28,0,0,1,2.84-.32,10.67,10.67,0,0,1,4.68.93,9.4,9.4,0,0,1,3.17,2.43,9.81,9.81,0,0,1,1.78,3.28,11.7,11.7,0,0,1,.56,3.48Z" transform="translate(0 -0.15)"/><path class="cls-2" d="M224.44,201.26h.3v.59h-8.32v-.59h.3a1.15,1.15,0,0,0,.82-.35,4.27,4.27,0,0,0,.61-.82,3.47,3.47,0,0,0,.38-1,5,5,0,0,0,.12-1V165.38h-6.79a3.22,3.22,0,0,0-1.64.41,3.85,3.85,0,0,0-1.17,1,4.34,4.34,0,0,0-.7,1.35,4.61,4.61,0,0,0-.24,1.43h-.58v-6.38h26.28v6.38h-.59a4.9,4.9,0,0,0-.23-1.43,4.57,4.57,0,0,0-.7-1.35,4.1,4.1,0,0,0-1.17-1,3.25,3.25,0,0,0-1.64-.41h-6.91V198a5,5,0,0,0,.12,1,3.21,3.21,0,0,0,.38,1,4.61,4.61,0,0,0,.58.82A1.05,1.05,0,0,0,224.44,201.26Z" transform="translate(0 -0.15)"/><path class="cls-2" d="M244.46,202.26a13.79,13.79,0,0,1-5.27-1,12.2,12.2,0,0,1-4-2.63,11.53,11.53,0,0,1-2.57-4,14.13,14.13,0,0,1,.09-10.21,12,12,0,0,1,2.75-4.07,12.3,12.3,0,0,1,4.15-2.63,15,15,0,0,1,10.36,0,11.78,11.78,0,0,1,4,2.55,11.56,11.56,0,0,1,2.64,3.89,12.82,12.82,0,0,1,.93,4.94,14.3,14.3,0,0,1-.85,4.89,12.14,12.14,0,0,1-2.51,4.19,12.67,12.67,0,0,1-4.1,2.92A13.47,13.47,0,0,1,244.46,202.26Zm-.38-23.48a8.31,8.31,0,0,0-3.7,1,8.55,8.55,0,0,0-2.69,2.34,10.45,10.45,0,0,0-1.63,3.25,12.55,12.55,0,0,0-.55,3.69,13.11,13.11,0,0,0,.67,4.18,11.52,11.52,0,0,0,1.92,3.6,9.72,9.72,0,0,0,3,2.52,8.18,8.18,0,0,0,3.91.93,7.69,7.69,0,0,0,3.82-.93,8.89,8.89,0,0,0,2.77-2.43,10.71,10.71,0,0,0,1.66-3.37,13.09,13.09,0,0,0,.56-3.74,13.62,13.62,0,0,0-.59-3.9,11.15,11.15,0,0,0-1.81-3.57,9.31,9.31,0,0,0-3.06-2.6A8.88,8.88,0,0,0,244.08,178.78Z" transform="translate(0 -0.15)"/><path class="cls-2" d="M275.25,176.85a12.8,12.8,0,0,1,5.47,1.08,11.92,11.92,0,0,1,3.87,2.84,11.66,11.66,0,0,1,2.31,4,14.94,14.94,0,0,1,.76,4.68,15.29,15.29,0,0,1-.73,4.63,12.29,12.29,0,0,1-2.23,4.1,11.17,11.17,0,0,1-3.71,2.92,11.7,11.7,0,0,1-5.27,1.12,8.25,8.25,0,0,1-3.72-1,13.8,13.8,0,0,1-3.42-2.43v11.47a4.89,4.89,0,0,0,.11,1,3.77,3.77,0,0,0,.38,1,4.31,4.31,0,0,0,.59.82,1,1,0,0,0,.79.35v.59h-7.61v-.59a1,1,0,0,0,.76-.35,3.68,3.68,0,0,0,.62-.82,3.77,3.77,0,0,0,.38-1,5.65,5.65,0,0,0,.11-1V180.72c0-.36,0-.7,0-1a2.42,2.42,0,0,0-.2-.88,1.55,1.55,0,0,0-.56-.64,2.16,2.16,0,0,0-1.08-.32v-.59h5.74v2.58a8.18,8.18,0,0,1,2.84-2.2A8.77,8.77,0,0,1,275.25,176.85Zm.53,23.41a7.45,7.45,0,0,0,3.57-.93,8,8,0,0,0,2.51-2.28,9.84,9.84,0,0,0,1.47-3.14,13.77,13.77,0,0,0,.46-3.6,15.07,15.07,0,0,0-.58-4.15,12.31,12.31,0,0,0-1.7-3.66,9.46,9.46,0,0,0-2.72-2.63,6.6,6.6,0,0,0-3.66-1,6.68,6.68,0,0,0-2.43.47,6.11,6.11,0,0,0-2.1,1.35,6.71,6.71,0,0,0-1.47,2.07,6.28,6.28,0,0,0-.55,2.67v7.67a6.48,6.48,0,0,0,.64,2.89,8,8,0,0,0,1.67,2.29,7.44,7.44,0,0,0,2.31,1.49A6.79,6.79,0,0,0,275.78,200.26Z" transform="translate(0 -0.15)"/><path class="cls-2" d="M93.59,271.5h.3v.59H85.63v-.59h.3a1.09,1.09,0,0,0,.76-.35,3.89,3.89,0,0,0,.61-.82,3.47,3.47,0,0,0,.38-1,5,5,0,0,0,.12-1v-31.2a4.23,4.23,0,0,0-.12-.93,3.56,3.56,0,0,0-.38-1,3.26,3.26,0,0,0-.61-.79,1.14,1.14,0,0,0-.76-.32h-.3v-.59H95.82q5.85,0,9,2.29a7.73,7.73,0,0,1,3.19,6.73,9.57,9.57,0,0,1-.73,3.89,9.08,9.08,0,0,1-2,2.87,9.74,9.74,0,0,1-2.9,1.93,15.82,15.82,0,0,1-3.54,1.08l4.22,6.44q1.52,2.34,3.1,4.6t3.1,4.65c.27.39.58.8.91,1.23a9.91,9.91,0,0,0,1,1.17,5.44,5.44,0,0,0,1.17.85,2.74,2.74,0,0,0,1.26.32v.59h-2.52a6.06,6.06,0,0,1-3.83-1.15,10.47,10.47,0,0,1-2.49-2.66q-2.62-3.86-5.24-7.84t-5.18-7.85c-.43,0-.89-.08-1.37-.14s-.95-.13-1.38-.21v16a5,5,0,0,0,.12,1,3.47,3.47,0,0,0,.38,1,4.61,4.61,0,0,0,.58.82A1.05,1.05,0,0,0,93.59,271.5Zm-1.87-36.06v14.87H92c.32,0,.81.07,1.5.09s1.53,0,2.54,0a10,10,0,0,0,2.61-.38,7.68,7.68,0,0,0,2.57-1.29,7,7,0,0,0,2-2.37,7.67,7.67,0,0,0,.79-3.69,6.92,6.92,0,0,0-.85-3.63,6.1,6.1,0,0,0-2.34-2.22,10.17,10.17,0,0,0-3.6-1.11,32.8,32.8,0,0,0-4.62-.3Z" transform="translate(0 -0.15)"/><path class="cls-2" d="M116.77,260.26a14.36,14.36,0,0,0,1,3.89,11.21,11.21,0,0,0,2,3.25,9.46,9.46,0,0,0,3.07,2.26,10,10,0,0,0,4.22.85,10.44,10.44,0,0,0,2.72-.39,10.92,10.92,0,0,0,2.66-1.08,9.67,9.67,0,0,0,2.2-1.72A5.45,5.45,0,0,0,136,265h.53v4.39a1.69,1.69,0,0,0-.79.24c-.29.15-.63.35-1,.58a23,23,0,0,1-3.17,1.5,14.64,14.64,0,0,1-5.26.79,16.21,16.21,0,0,1-5-.77,11.55,11.55,0,0,1-4.18-2.34,11.24,11.24,0,0,1-2.9-4,14.44,14.44,0,0,1-1.08-5.85,13.93,13.93,0,0,1,.73-4.39,12.23,12.23,0,0,1,2.22-4,11.33,11.33,0,0,1,3.84-2.9,13,13,0,0,1,5.62-1.11,12.21,12.21,0,0,1,5.12,1,9.89,9.89,0,0,1,3.63,2.75,11.74,11.74,0,0,1,2.13,4.15,18.66,18.66,0,0,1,.71,5.27ZM125.26,249a7.35,7.35,0,0,0-3.54.82,8.83,8.83,0,0,0-2.55,2.11,9.53,9.53,0,0,0-1.63,2.93,13.85,13.85,0,0,0-.77,3.27h16.69a11.59,11.59,0,0,0-.62-3.33,10.13,10.13,0,0,0-1.55-2.93,7.45,7.45,0,0,0-2.52-2.08A7.57,7.57,0,0,0,125.26,249Z" transform="translate(0 -0.15)"/><path class="cls-2" d="M147.68,249.49V263.6c0,1,0,1.93.06,2.75a9.08,9.08,0,0,0,.29,2,2.77,2.77,0,0,0,.7,1.26,1.82,1.82,0,0,0,1.29.44,3.14,3.14,0,0,0,2.31-1.17,5.57,5.57,0,0,0,1.38-2.81h.52v4.27a1.18,1.18,0,0,0-.87.35,7.89,7.89,0,0,1-1.32.88,5.48,5.48,0,0,1-2.55.47,5.68,5.68,0,0,1-3.27-.82,4.61,4.61,0,0,1-1.7-2.17,9.62,9.62,0,0,1-.62-3c-.06-1.1-.08-2.21-.08-3.34V249.49h-3.28v-2h3.28v-5.21a6,6,0,0,0-.27-1.84c-.17-.57-.75-.87-1.72-.91V239l5.85-1.88V247.5h6.55v2Z" transform="translate(0 -0.15)"/><path class="cls-2" d="M172.91,251.77a3.28,3.28,0,0,0-1.47-1.46,4.94,4.94,0,0,0-1.75-.29,3.84,3.84,0,0,0-1.38.29,8.22,8.22,0,0,0-1.43.76c-.47.32-.93.66-1.38,1s-.83.71-1.14,1v15.22a4.45,4.45,0,0,0,.12,1,3.56,3.56,0,0,0,.38,1,3.51,3.51,0,0,0,.58.82,1.1,1.1,0,0,0,.79.32v.59h-7.61v-.59a1.1,1.1,0,0,0,.76-.32,3.1,3.1,0,0,0,.62-.82,4.25,4.25,0,0,0,.38-1,4.45,4.45,0,0,0,.12-1V252a3,3,0,0,0-.53-1.64,2.35,2.35,0,0,0-1.52-1.05v-.47l5.91-1.76v3.51c.35-.42.72-.84,1.11-1.25a8.48,8.48,0,0,1,1.32-1.12,7.61,7.61,0,0,1,1.61-.82,6,6,0,0,1,2-.32,8.5,8.5,0,0,1,2.1.35,12.49,12.49,0,0,1,2.11.76Z" transform="translate(0 -0.15)"/><path class="cls-2" d="M181.57,260.26a14.35,14.35,0,0,0,1,3.89,11.21,11.21,0,0,0,2,3.25,9.5,9.5,0,0,0,3.08,2.26,9.88,9.88,0,0,0,4.21.85,10.38,10.38,0,0,0,2.72-.39,10.6,10.6,0,0,0,2.66-1.08,9.46,9.46,0,0,0,2.2-1.72,5.58,5.58,0,0,0,1.32-2.32h.52v4.39a1.72,1.72,0,0,0-.79.24c-.29.15-.63.35-1,.58a22.75,22.75,0,0,1-3.16,1.5,14.7,14.7,0,0,1-5.27.79,16.15,16.15,0,0,1-5-.77,11.59,11.59,0,0,1-4.19-2.34,11.24,11.24,0,0,1-2.9-4,14.44,14.44,0,0,1-1.08-5.85,13.93,13.93,0,0,1,.73-4.39,12.07,12.07,0,0,1,2.23-4,11.19,11.19,0,0,1,3.83-2.9,13,13,0,0,1,5.62-1.11,12.18,12.18,0,0,1,5.12,1,9.81,9.81,0,0,1,3.63,2.75,11.6,11.6,0,0,1,2.14,4.15,18.66,18.66,0,0,1,.7,5.27ZM190.06,249a7.36,7.36,0,0,0-3.55.82A8.66,8.66,0,0,0,184,252a9.76,9.76,0,0,0-1.64,2.93,14.33,14.33,0,0,0-.76,3.27h16.68a11.58,11.58,0,0,0-.61-3.33,10.15,10.15,0,0,0-1.56-2.93,7.51,7.51,0,0,0-2.51-2.08A7.63,7.63,0,0,0,190.06,249Z" transform="translate(0 -0.15)"/><path class="cls-2" d="M220.61,272.09v-3l-.29.29a10.77,10.77,0,0,1-3.37,2.29,13.32,13.32,0,0,1-8.11.35,6.44,6.44,0,0,1-2.4-1.32,5.25,5.25,0,0,1-1.37-2,6.36,6.36,0,0,1-.44-2.34,5.89,5.89,0,0,1,1.08-3.51,9.58,9.58,0,0,1,3.13-2.7,27.11,27.11,0,0,1,5-2.13c2-.65,4.22-1.28,6.76-1.91a8,8,0,0,0-.94-3.68,6.85,6.85,0,0,0-1.93-2.2,6.29,6.29,0,0,0-2.34-1.05,10,10,0,0,0-2.11-.26,7,7,0,0,0-2.66.46,7.53,7.53,0,0,0-2,1.2,8.09,8.09,0,0,0-1.43,1.58,10.37,10.37,0,0,0-.94,1.61h-.53v-4.27a2.47,2.47,0,0,0,.88-.29,7.32,7.32,0,0,1,1-.47c.58-.23,1.38-.58,2.39-1a11.07,11.07,0,0,1,4.28-.67,14,14,0,0,1,5.21.82,7.55,7.55,0,0,1,3.07,2.17,7.06,7.06,0,0,1,1.43,3.07,17.28,17.28,0,0,1,.36,3.54v11.59a4.78,4.78,0,0,0,.52,2.2,1.58,1.58,0,0,0,1.41,1v.59Zm0-5.56v-8.38l-.59.12c-.93.24-2.07.55-3.42.94a21.08,21.08,0,0,0-3.83,1.52,12.52,12.52,0,0,0-3.11,2.22,4.1,4.1,0,0,0-1.28,3,3.8,3.8,0,0,0,1.52,3.1,6.12,6.12,0,0,0,4,1.23,6.57,6.57,0,0,0,3.39-.85,11.11,11.11,0,0,0,2.7-2.19Z" transform="translate(0 -0.15)"/><path class="cls-2" d="M237.64,249.49V263.6c0,1,0,1.93.06,2.75a9.68,9.68,0,0,0,.29,2,2.7,2.7,0,0,0,.71,1.26,1.81,1.81,0,0,0,1.28.44,3.14,3.14,0,0,0,2.31-1.17,5.49,5.49,0,0,0,1.38-2.81h.53v4.27a1.21,1.21,0,0,0-.88.35,7.49,7.49,0,0,1-1.32.88,5.41,5.41,0,0,1-2.54.47,5.7,5.7,0,0,1-3.28-.82,4.67,4.67,0,0,1-1.7-2.17,9.34,9.34,0,0,1-.61-3c-.06-1.1-.09-2.21-.09-3.34V249.49H230.5v-2h3.28v-5.21a6.34,6.34,0,0,0-.26-1.84c-.18-.57-.76-.87-1.73-.91V239l5.85-1.88V247.5h6.56v2Z" transform="translate(0 -0.15)"/></g></g></svg>